<svg width="114" height="36" viewBox="0 0 114 36" fill="none" xmlns="http://www.w3.org/2000/svg">
<g clip-path="url(#clip0_260_2011)">
<path d="M39.501 5.47607H57.8556V10.1801H51.1193V30.4252H46.201V10.1801H39.501V5.47607Z" fill="#383A9A"/>
<path d="M69.2974 22.2276V12.6036H73.8959V30.4242H69.2974V28.4282C68.204 30.0918 66.4333 30.9236 63.9868 30.9236C62.038 30.9236 60.4217 30.2699 59.1394 28.9639C57.8791 27.6343 57.2505 25.8273 57.2505 23.5462V12.6052H61.849V22.9775C61.849 24.1417 62.1641 25.0443 62.7942 25.6871C63.4228 26.3283 64.2845 26.6496 65.3778 26.6496C66.5893 26.6496 67.5455 26.2763 68.2466 25.528C68.9476 24.7797 69.2974 23.6801 69.2974 22.2307V22.2276Z" fill="#383A9A"/>
<path d="M86.5833 30.9211C83.8973 30.9211 81.6524 30.0184 79.847 28.213C78.0652 26.4076 77.1736 24.1738 77.1736 21.513C77.1736 18.8522 78.0652 16.6183 79.847 14.8129C81.6524 13.0075 83.8973 12.1033 86.5833 12.1033C88.3178 12.1033 89.8979 12.5192 91.3236 13.351C92.7493 14.1828 93.83 15.2997 94.5673 16.7018L90.6115 19.0192C90.2555 18.2835 89.7135 17.7006 88.9904 17.2721C88.2658 16.8451 87.4513 16.6309 86.5486 16.6309C85.1702 16.6309 84.0296 17.0893 83.1269 18.003C82.2242 18.9183 81.7721 20.0873 81.7721 21.5145C81.7721 22.9418 82.2227 24.0572 83.1269 25.0071C84.0296 25.9098 85.1702 26.362 86.5486 26.362C87.4749 26.362 88.3004 26.154 89.0251 25.7381C89.7498 25.3222 90.2901 24.7456 90.6462 24.0099L94.6382 26.2911C93.8536 27.7168 92.743 28.8463 91.3062 29.6765C89.8679 30.5083 88.2941 30.9242 86.5833 30.9242V30.9211Z" fill="#383A9A"/>
<path d="M106.114 21.4079L113.491 30.4254H108.145L101.657 22.3342V30.4254H97.0603V5.4762H101.657V20.4454L107.787 12.6048H113.276L106.112 21.4079H106.114Z" fill="#383A9A"/>
<path d="M7.04761 5.5254L23.2472 15.3037V34.1294L32.5151 28.4597V9.7789L16.5644 0.495239L7.04761 5.5254Z" fill="#5457E7"/>
<path d="M0.493164 15.1175L11.3743 21.6868V35.9014L19.782 30.7594V16.6755L8.93085 10.2275L0.493164 15.1175Z" fill="#5457E7"/>
<path d="M8.32195 34.3529V24.8566L0.0654297 29.6047L8.32195 34.3529Z" fill="#5457E7"/>
</g>
<defs>
<clipPath id="clip0_260_2011">
<rect width="113.427" height="35.4033" fill="white" transform="translate(0.0654297 0.495239)"/>
</clipPath>
</defs>
</svg>
