<svg width="137" height="92" viewBox="0 0 137 92" fill="none" xmlns="http://www.w3.org/2000/svg">
<g clip-path="url(#clip0_260_2024)">
<mask id="mask0_260_2024" style="mask-type:luminance" maskUnits="userSpaceOnUse" x="0" y="0" width="137" height="92">
<path d="M136.934 0.596436H0.651367V91.7974H136.934V0.596436Z" fill="white"/>
</mask>
<g mask="url(#mask0_260_2024)">
<path d="M126.259 28.3764H134.674C133.892 26.9634 133.044 25.5924 132.142 24.2634H123.13C124.248 25.5759 125.293 26.949 126.259 28.3764Z" fill="#F9A612"/>
<path d="M126.259 28.3764H134.674C133.892 26.9634 133.044 25.5924 132.142 24.2634H123.13C124.248 25.5759 125.293 26.949 126.259 28.3764Z" stroke="#F9A612" strokeWidth="0.375" strokeLinecap="round" strokeLinejoin="round"/>
<path d="M48.9073 34.9675C49.9998 31.9127 51.413 28.9823 53.1233 26.2255H44.8703C43.4337 29.0286 42.2497 31.9542 41.3323 34.9675C41.3323 34.9675 43.6573 34.4435 46.9613 31.1395C47.9269 32.2279 48.5969 33.5459 48.9073 34.9675Z" fill="#F9A612"/>
<path d="M48.9073 34.9675C49.9998 31.9127 51.413 28.9823 53.1233 26.2255H44.8703C43.4337 29.0286 42.2497 31.9542 41.3323 34.9675C41.3323 34.9675 43.6573 34.4435 46.9613 31.1395C47.9269 32.2279 48.5969 33.5459 48.9073 34.9675Z" stroke="#F9A612" strokeWidth="0.375" strokeLinecap="round" strokeLinejoin="round"/>
<path d="M49.5513 28.3495L53.1213 26.2255H44.8713L43.8413 28.3495H49.5513Z" fill="#FFCD7F"/>
<path d="M49.5513 28.3495L53.1213 26.2255H44.8713L43.8413 28.3495H49.5513Z" stroke="#FFCD7F" strokeWidth="0.375" strokeLinecap="round" strokeLinejoin="round"/>
<path d="M126.845 34.9675C125.75 31.9133 124.337 28.9831 122.627 26.2255H130.881C132.317 29.029 133.501 31.9545 134.419 34.9675C134.419 34.9675 132.094 34.4435 128.789 31.1395C127.824 32.2281 127.155 33.5461 126.845 34.9675Z" fill="#F9A612"/>
<path d="M126.845 34.9675C125.75 31.9133 124.337 28.9831 122.627 26.2255H130.881C132.317 29.029 133.501 31.9545 134.419 34.9675C134.419 34.9675 132.094 34.4435 128.789 31.1395C127.824 32.2281 127.155 33.5461 126.845 34.9675Z" stroke="#F9A612" strokeWidth="0.375" strokeLinecap="round" strokeLinejoin="round"/>
<path d="M126.195 28.3495L122.626 26.2255H130.88L131.91 28.3495H126.195Z" fill="#FFCD7F"/>
<path d="M126.195 28.3495L122.626 26.2255H130.88L131.91 28.3495H126.195Z" stroke="#FFCD7F" strokeWidth="0.375" strokeLinecap="round" strokeLinejoin="round"/>
<path d="M87.9055 0.784427C78.3546 0.781022 68.9777 3.33919 60.7518 8.19234C52.5259 13.0455 45.7522 20.016 41.1365 28.3774H49.5515C53.7837 22.0946 59.4947 16.9477 66.1822 13.3892C72.8698 9.83076 80.3291 7.96972 87.9045 7.96972C95.4798 7.96972 102.939 9.83076 109.627 13.3892C116.314 16.9477 122.025 22.0946 126.257 28.3774H134.672C130.057 20.0163 123.284 13.046 115.058 8.19285C106.833 3.33972 97.456 0.78138 87.9055 0.784427Z" fill="#F9A612"/>
<path d="M87.9055 0.784427C78.3546 0.781022 68.9777 3.33919 60.7518 8.19234C52.5259 13.0455 45.7522 20.016 41.1365 28.3774H49.5515C53.7837 22.0946 59.4947 16.9477 66.1822 13.3892C72.8698 9.83076 80.3291 7.96972 87.9045 7.96972C95.4798 7.96972 102.939 9.83076 109.627 13.3892C116.314 16.9477 122.025 22.0946 126.257 28.3774H134.672C130.057 20.0163 123.284 13.046 115.058 8.19285C106.833 3.33972 97.456 0.78138 87.9055 0.784427Z" stroke="#F9A612" strokeWidth="0.375" strokeLinecap="round" strokeLinejoin="round"/>
<path d="M53.4294 19.7724C53.3174 19.8864 53.3074 19.9054 53.3704 20.0234L53.7404 20.7524C53.7754 20.826 53.822 20.8935 53.8784 20.9524C53.9074 20.9804 53.9974 20.9474 54.1514 20.8374L54.3154 20.7184C54.3774 20.7184 54.4964 20.8184 54.4734 20.8914C54.2994 21.0484 54.1304 21.2194 53.9304 21.4154C53.7694 21.5774 53.6764 21.7004 53.4614 21.9154C53.3804 21.9394 53.2864 21.8374 53.2804 21.7664L53.3934 21.6234C53.454 21.5514 53.491 21.4625 53.4994 21.3688C53.5078 21.2751 53.4872 21.181 53.4404 21.0994C53.3304 20.8304 53.1904 20.5154 52.9744 20.0494L52.2394 18.4744C52.1437 18.1929 51.9972 17.9312 51.8074 17.7024C51.9098 17.4863 51.952 17.2465 51.9294 17.0084C51.9904 16.9454 52.0424 16.9404 52.1294 16.9924C52.3054 17.0924 52.5374 17.2064 52.9924 17.4194L55.4924 18.6074C55.8744 18.7884 56.0274 18.8534 56.2284 18.7074L56.4354 18.5554C56.4884 18.5494 56.6104 18.6554 56.5984 18.7224C56.3634 18.9414 56.1054 19.1944 55.8624 19.4424C55.6194 19.6904 55.4504 19.8704 55.2444 20.0994C55.2222 20.1029 55.1996 20.1016 55.1781 20.0953C55.1565 20.0891 55.1367 20.0782 55.1198 20.0634C55.103 20.0486 55.0897 20.0302 55.0808 20.0096C55.0719 19.9891 55.0676 19.9668 55.0684 19.9444L55.1954 19.7694C55.2834 19.6404 55.2684 19.5884 55.2394 19.5614C55.1089 19.4735 54.9711 19.3972 54.8274 19.3334L54.2914 19.0584C54.1914 19.0084 54.1444 19.0364 53.9814 19.2034L53.4294 19.7724ZM53.7114 18.9814C53.8194 18.8724 53.8284 18.8344 53.6664 18.7504L53.1594 18.4944C52.8894 18.3604 52.5484 18.1944 52.4054 18.1374C52.4774 18.2834 52.6424 18.6314 52.7904 18.9184L53.0304 19.3884C53.1164 19.5574 53.1544 19.5484 53.2714 19.4294L53.7114 18.9814Z" fill="white"/>
<path d="M55.1775 15.5354C54.7775 15.0434 54.6855 14.9534 54.4265 15.1214L54.3195 15.1914C54.2465 15.2074 54.1245 15.0574 54.1815 15.0014C54.5955 14.6214 54.9815 14.2714 55.5315 13.8244C55.9314 13.4794 56.3869 13.2046 56.8785 13.0114C57.2775 12.8672 57.7117 12.8518 58.1198 12.9676C58.528 13.0833 58.8895 13.3242 59.1535 13.6564C59.4257 13.9663 59.6023 14.3485 59.6618 14.7568C59.7212 15.165 59.661 15.5817 59.4885 15.9564C59.2248 16.4742 58.8436 16.9232 58.3755 17.2674C58.1325 17.4674 57.8485 17.6464 57.6615 17.7974C57.4135 17.9974 57.1535 18.2204 56.8665 18.4714C56.7995 18.4714 56.6985 18.3504 56.7195 18.2904L56.8585 18.1334C57.0585 17.9074 57.0585 17.8414 56.6705 17.3644L55.1775 15.5354ZM57.2515 16.5734C57.4835 16.8584 57.6455 17.0364 57.8275 17.0684C57.9286 17.0764 58.0302 17.0627 58.1256 17.0282C58.2209 16.9937 58.3078 16.9392 58.3805 16.8684C58.5526 16.7102 58.6896 16.5177 58.7826 16.3032C58.8756 16.0887 58.9225 15.8571 58.9204 15.6233C58.9182 15.3895 58.867 15.1588 58.77 14.9461C58.673 14.7334 58.5325 14.5434 58.3575 14.3884C58.2236 14.1707 58.0424 13.9859 57.8273 13.8479C57.6122 13.7099 57.3687 13.6222 57.1151 13.5912C56.8614 13.5603 56.604 13.5869 56.362 13.6692C56.12 13.7515 55.8997 13.8872 55.7175 14.0664C55.5775 14.1804 55.4995 14.2864 55.5025 14.3534C55.5055 14.4204 55.5805 14.5224 55.7115 14.6834L57.2515 16.5734Z" fill="white"/>
<path d="M63.1143 11.9694C62.9763 12.0514 62.9623 12.0694 62.9923 12.1964L63.1623 12.9964C63.1765 13.0771 63.2042 13.1548 63.2443 13.2264C63.2643 13.2614 63.3593 13.2514 63.5373 13.1854L63.7273 13.1124C63.7853 13.1324 63.8753 13.2574 63.8343 13.3204C63.6263 13.4274 63.4193 13.5494 63.1743 13.6864C62.9743 13.8024 62.8563 13.8974 62.5913 14.0534C62.5083 14.0534 62.4433 13.9324 62.4553 13.8624L62.6013 13.7534C62.6783 13.6994 62.737 13.6231 62.7694 13.5348C62.8017 13.4465 62.8062 13.3503 62.7823 13.2594C62.7443 12.9704 62.6903 12.6304 62.6013 12.1244L62.3013 10.4124C62.2811 10.1161 62.2069 9.82594 62.0823 9.55637C62.2379 9.37384 62.3415 9.15277 62.3823 8.91637C62.4573 8.87237 62.5083 8.88137 62.5823 8.95337C62.7273 9.09337 62.9223 9.26537 63.3063 9.58837L65.4183 11.3814C65.7433 11.6554 65.8723 11.7574 66.1063 11.6664L66.3453 11.5714C66.3973 11.5804 66.4903 11.7114 66.4583 11.7714C66.1753 11.9224 65.8583 12.1004 65.5583 12.2774C65.2583 12.4544 65.0503 12.5844 64.7913 12.7524C64.7691 12.75 64.7477 12.7429 64.7287 12.7314C64.7096 12.7199 64.6933 12.7043 64.6808 12.6858C64.6684 12.6673 64.6603 12.6463 64.6569 12.6243C64.6535 12.6022 64.655 12.5797 64.6613 12.5584L64.8283 12.4204C64.9473 12.3204 64.9463 12.2654 64.9283 12.2304C64.8242 12.1125 64.7105 12.0034 64.5883 11.9044L64.1413 11.5044C64.0583 11.4294 64.0043 11.4444 63.8043 11.5634L63.1143 11.9694ZM63.5903 11.2774C63.7233 11.1994 63.7413 11.1654 63.6073 11.0434L63.1833 10.6654C62.9563 10.4654 62.6693 10.2164 62.5463 10.1254C62.5783 10.2854 62.6463 10.6644 62.7163 10.9794L62.8273 11.4954C62.8673 11.6814 62.9063 11.6814 63.0493 11.5954L63.5903 11.2774Z" fill="white"/>
<path d="M68.0014 11.1554C67.652 11.3369 67.2619 11.4258 66.8684 11.4134C66.5759 11.1808 66.3494 10.8757 66.2114 10.5284C66.2154 10.5045 66.2247 10.4817 66.2385 10.4619C66.2524 10.442 66.2705 10.4254 66.2916 10.4134C66.3126 10.4013 66.3361 10.3941 66.3602 10.3922C66.3844 10.3903 66.4087 10.3938 66.4314 10.4024C66.6092 10.6131 66.8442 10.768 67.108 10.8484C67.3718 10.9288 67.6532 10.9312 67.9184 10.8554C68.0054 10.8227 68.0847 10.7721 68.1509 10.7069C68.2172 10.6417 68.269 10.5632 68.3031 10.4767C68.3371 10.3901 68.3526 10.2974 68.3485 10.2045C68.3444 10.1116 68.3209 10.0206 68.2794 9.93737C68.0464 9.44937 67.4514 9.37737 67.0044 9.36837C66.7143 9.39678 66.4222 9.3421 66.1621 9.21072C65.902 9.07933 65.6846 8.87666 65.5354 8.62637C65.2064 7.94837 65.5134 7.22637 66.3874 6.80937C66.6194 6.69896 66.8658 6.62187 67.1194 6.58037C67.1966 6.56853 67.273 6.55216 67.3484 6.53137C67.5596 6.77447 67.7338 7.04741 67.8654 7.34137C67.8654 7.42737 67.7214 7.50537 67.6394 7.47037C67.5069 7.29994 67.326 7.17351 67.1204 7.10766C66.9149 7.04181 66.6942 7.03962 66.4874 7.10137C66.4058 7.13108 66.3314 7.17752 66.2689 7.2377C66.2064 7.29788 66.1572 7.37047 66.1244 7.4508C66.0917 7.53114 66.0761 7.61744 66.0786 7.70416C66.0812 7.79089 66.1019 7.87612 66.1394 7.95437C66.2354 8.09554 66.3667 8.2092 66.5201 8.28408C66.6736 8.35897 66.844 8.39251 67.0144 8.38137L67.5144 8.40237C67.8042 8.38728 68.0923 8.45532 68.3447 8.59847C68.5972 8.74162 68.8035 8.95392 68.9394 9.21037C69.2914 9.95137 68.9124 10.7224 68.0014 11.1554Z" fill="white"/>
<path d="M70.1843 5.85246C70.1283 5.70246 70.1163 5.67046 69.9663 5.72546L69.5783 5.86946C69.1203 6.03846 69.0783 6.33746 69.0613 6.86946C69.0309 6.90549 68.9879 6.92856 68.9411 6.93395C68.8942 6.93934 68.8471 6.92664 68.8093 6.89846C68.774 6.51419 68.7115 6.1329 68.6223 5.75746C68.6398 5.72837 68.6661 5.70567 68.6974 5.6927C68.7288 5.67974 68.7634 5.6772 68.7963 5.68546C68.8663 5.78546 68.8963 5.79946 69.3713 5.62246L71.7043 4.76246C72.1173 4.60946 72.2043 4.56846 72.2163 4.41646C72.2365 4.39367 72.2624 4.37674 72.2913 4.36746C72.3093 4.36137 72.3283 4.35902 72.3472 4.36057C72.3662 4.36212 72.3846 4.36752 72.4013 4.37646C72.4554 4.75833 72.5562 5.13213 72.7013 5.48946C72.6903 5.55746 72.5263 5.63246 72.4763 5.58946C72.2223 5.22846 72.0253 4.96646 71.5543 5.13946L71.1793 5.27746C71.0283 5.33346 71.0163 5.35946 71.0793 5.52246L72.1013 8.28646C72.3163 8.86946 72.3723 8.90546 72.6683 8.83846L72.9313 8.77746C72.9646 8.80239 72.9899 8.83648 73.0041 8.87555C73.0183 8.91462 73.0208 8.95698 73.0113 8.99746C72.5993 9.13546 72.2833 9.24446 72.0013 9.34846C71.7013 9.46046 71.3763 9.58646 70.9423 9.76146C70.9065 9.73886 70.8791 9.70498 70.8647 9.66515C70.8502 9.62532 70.8493 9.5818 70.8623 9.54146L71.1323 9.40546C71.4033 9.27046 71.4203 9.19946 71.2043 8.61746L70.1843 5.85246Z" fill="white"/>
<path d="M74.1963 5.10838C74.0293 4.46138 73.9963 4.39438 73.7163 4.42538L73.5353 4.44438C73.5156 4.43369 73.4985 4.4188 73.4853 4.40075C73.472 4.3827 73.4629 4.36195 73.4586 4.33997C73.4543 4.318 73.4549 4.29535 73.4604 4.27363C73.4659 4.25192 73.4761 4.23169 73.4903 4.21438C73.9673 4.05738 74.4643 3.90238 75.0793 3.74438C75.5077 3.60732 75.9628 3.57508 76.4063 3.65038C76.6039 3.69707 76.7847 3.79755 76.9288 3.94069C77.0728 4.08384 77.1744 4.26405 77.2223 4.46138C77.275 4.67407 77.2614 4.89776 77.1835 5.10256C77.1056 5.30735 76.967 5.48347 76.7863 5.60738C76.7293 5.65738 76.7393 5.69538 76.7863 5.75838C77.1727 6.2936 77.6531 6.75409 78.2043 7.11738C78.3536 7.18864 78.5209 7.21305 78.6843 7.18738C78.7144 7.20002 78.7385 7.22389 78.7513 7.25393C78.7642 7.28396 78.7649 7.31783 78.7533 7.34838C78.5987 7.4397 78.4296 7.50396 78.2533 7.53838C78.0059 7.622 77.7398 7.63281 77.4864 7.56953C77.2331 7.50624 77.0033 7.37151 76.8243 7.18138C76.5501 6.90869 76.2952 6.61732 76.0613 6.30938C76.0204 6.24415 75.9584 6.19488 75.8857 6.16977C75.8129 6.14467 75.7337 6.14523 75.6613 6.17138C75.4343 6.22938 75.4253 6.24538 75.4613 6.37138L75.6613 7.17138C75.8143 7.77138 75.8613 7.80138 76.1703 7.77838L76.3523 7.76638C76.3832 7.79413 76.4052 7.83034 76.4157 7.87052C76.4262 7.9107 76.4247 7.95307 76.4113 7.99238C76.0653 8.06738 75.7663 8.13838 75.4543 8.21738C75.1423 8.29638 74.8483 8.38038 74.5153 8.47938C74.482 8.45341 74.4583 8.41715 74.4478 8.37626C74.4373 8.33537 74.4406 8.29216 74.4573 8.25338L74.6243 8.17638C74.9013 8.04938 74.9293 7.99438 74.7763 7.39938L74.1963 5.10838ZM75.2963 5.70238C75.3543 5.92838 75.3783 5.94238 75.7603 5.84538C75.8524 5.82947 75.9399 5.79367 76.0168 5.74047C76.0936 5.68728 76.158 5.61797 76.2053 5.53738C76.265 5.42104 76.3005 5.29383 76.3098 5.16339C76.3191 5.03296 76.3019 4.902 76.2593 4.77838C76.2426 4.65489 76.1999 4.53634 76.1341 4.4305C76.0684 4.32466 75.981 4.23392 75.8777 4.16423C75.7744 4.09454 75.6575 4.04748 75.5347 4.02614C75.412 4.00479 75.2861 4.00965 75.1653 4.04038C74.9003 4.10838 74.8913 4.13138 74.9723 4.44038L75.2963 5.70238Z" fill="white"/>
<path d="M80.2663 5.62346C80.1083 5.64646 80.0893 5.65646 80.0663 5.78746L79.9213 6.58746C79.9047 6.66769 79.9009 6.75006 79.9103 6.83146C79.9163 6.87146 80.0103 6.89946 80.1983 6.90446H80.3983C80.4443 6.94546 80.4803 7.09546 80.4183 7.13846C80.1853 7.15846 79.9473 7.19346 79.6693 7.22846C79.4443 7.26046 79.2943 7.30346 78.9903 7.34846C78.9123 7.31946 78.8983 7.17846 78.9373 7.11846L79.1123 7.07246C79.2032 7.05369 79.2863 7.00765 79.3504 6.94048C79.4146 6.87331 79.4567 6.78819 79.4713 6.69646C79.5453 6.41546 79.6243 6.08046 79.7333 5.57746L80.0973 3.87746C80.1914 3.59544 80.2328 3.29847 80.2193 3.00146C80.4311 2.89007 80.6095 2.72442 80.7363 2.52146C80.8223 2.50746 80.8663 2.53546 80.9073 2.63046C80.9883 2.81446 81.1073 3.04746 81.3383 3.49346L82.6173 5.95246C82.8173 6.32846 82.8963 6.47246 83.1463 6.47546H83.4033C83.4473 6.50346 83.4843 6.65946 83.4303 6.70846C83.1113 6.74146 82.7533 6.78746 82.4093 6.83746C82.0653 6.88746 81.8223 6.92946 81.5193 6.98746C81.4995 6.97698 81.4824 6.96224 81.469 6.94433C81.4557 6.92641 81.4465 6.90575 81.4421 6.88385C81.4377 6.86194 81.4382 6.83933 81.4436 6.81765C81.449 6.79596 81.4591 6.77575 81.4733 6.75846L81.6803 6.69446C81.8283 6.64646 81.8473 6.59446 81.8423 6.55546C81.7905 6.40618 81.7266 6.26137 81.6513 6.12246L81.3893 5.58046C81.3413 5.48046 81.2893 5.47446 81.0543 5.50846L80.2663 5.62346ZM80.9663 5.16246C81.1193 5.13946 81.1493 5.11546 81.0663 4.95146L80.8163 4.44146C80.6813 4.17046 80.5103 3.83046 80.4303 3.70146C80.4003 3.86046 80.3193 4.23746 80.2653 4.55646L80.1733 5.07546C80.1393 5.26246 80.1733 5.27546 80.3403 5.25346L80.9663 5.16246Z" fill="white"/>
<path d="M86.2992 3.21238C86.2922 2.53738 86.2782 2.45738 85.9992 2.42738L85.7922 2.40238C85.7772 2.3872 85.7654 2.36906 85.7578 2.3491C85.7501 2.32914 85.7467 2.30781 85.7477 2.28646C85.7488 2.2651 85.7542 2.2442 85.7638 2.22507C85.7734 2.20595 85.7868 2.18903 85.8032 2.17538C86.2432 2.13838 86.7642 2.10638 87.3452 2.09938C87.7598 2.07855 88.1746 2.13379 88.5692 2.26238C88.8116 2.33967 89.0228 2.49273 89.1717 2.69903C89.3206 2.90534 89.3993 3.15398 89.3962 3.40838C89.4062 4.50838 88.3052 4.67438 87.9512 4.67838C87.8712 4.67838 87.8122 4.67838 87.7372 4.67838C87.7112 4.65686 87.6945 4.62613 87.6906 4.59259C87.6867 4.55906 87.6959 4.5253 87.7162 4.49838C87.9384 4.43299 88.1284 4.28768 88.2497 4.09047C88.371 3.89326 88.415 3.65811 88.3732 3.43038C88.3682 2.93638 88.1092 2.40538 87.5082 2.41138C87.2612 2.41138 87.2492 2.48638 87.2512 2.75338L87.2792 5.57138C87.2852 6.19238 87.3272 6.24538 87.6272 6.28938L87.8412 6.32038C87.8583 6.33406 87.8721 6.3514 87.8816 6.37114C87.8911 6.39087 87.896 6.41248 87.896 6.43438C87.896 6.45627 87.8911 6.47789 87.8816 6.49762C87.8721 6.51735 87.8583 6.5347 87.8412 6.54838C87.4672 6.53838 87.1412 6.53438 86.8192 6.53738C86.4972 6.54038 86.1782 6.55038 85.8192 6.56838C85.7452 6.52838 85.7302 6.37538 85.8042 6.34038L85.9912 6.30538C86.2912 6.24838 86.3302 6.20538 86.3242 5.58038L86.2992 3.21238Z" fill="white"/>
<path d="M91.7274 3.99646C91.7114 4.18347 91.7174 4.19647 91.8974 4.21046L92.3564 4.24846C92.7024 4.27646 92.7864 4.23646 92.8794 3.92246L92.9254 3.75846C92.9764 3.70946 93.1424 3.72246 93.1704 3.78546C93.1404 3.99746 93.1144 4.23646 93.0944 4.48546C93.0744 4.73446 93.0604 4.97847 93.0564 5.19247C93.0202 5.21962 92.9755 5.23311 92.9303 5.23055C92.8851 5.22799 92.8423 5.20954 92.8094 5.17846L92.7904 5.01046C92.7494 4.68446 92.6744 4.62546 92.3284 4.59646L91.8684 4.56046C91.6894 4.54546 91.6814 4.55146 91.6684 4.75046L91.6044 5.54246C91.5616 5.7571 91.5778 5.97933 91.6514 6.18546C91.7284 6.31146 91.8514 6.37446 92.3364 6.41446C92.9154 6.46146 93.1434 6.46046 93.5694 5.73847C93.5881 5.72355 93.6098 5.71299 93.6331 5.70754C93.6564 5.70209 93.6806 5.7019 93.704 5.70698C93.7273 5.71205 93.7493 5.72227 93.7682 5.73688C93.7871 5.7515 93.8026 5.77014 93.8134 5.79147C93.7441 6.15425 93.6221 6.50496 93.4514 6.83247C93.0994 6.79047 92.4604 6.73247 91.9154 6.68847L91.0494 6.61846C90.7304 6.59246 90.4034 6.57246 89.9034 6.54546C89.8801 6.51002 89.8694 6.46776 89.873 6.4255C89.8766 6.38324 89.8944 6.34342 89.9234 6.31246L90.2384 6.29146C90.5384 6.26847 90.5854 6.23246 90.6384 5.61946L90.8384 3.13746C90.8874 2.53746 90.8504 2.48846 90.5564 2.40446L90.3924 2.35746C90.3668 2.32231 90.3558 2.27859 90.3618 2.23551C90.3677 2.19243 90.3902 2.15334 90.4244 2.12646C90.7364 2.16446 91.0624 2.19746 91.3814 2.22646L92.7924 2.34146C93.2184 2.37546 93.5984 2.40046 93.6854 2.39346C93.6854 2.50046 93.6924 2.98346 93.6854 3.43246C93.6524 3.50246 93.4984 3.50346 93.4364 3.43946C93.4017 3.24546 93.3304 3.05982 93.2264 2.89246C93.1431 2.80896 93.0439 2.74301 92.9346 2.69853C92.8254 2.65404 92.7083 2.63192 92.5904 2.63346L92.0584 2.59046C91.8394 2.57146 91.8374 2.58546 91.8174 2.83146L91.7274 3.99646Z" fill="white"/>
<path d="M95.4053 3.72846C95.5253 3.07146 95.5243 2.99646 95.2553 2.90746L95.0824 2.84846C95.0689 2.83063 95.0596 2.81003 95.055 2.78815C95.0505 2.76627 95.0509 2.74366 95.0561 2.72194C95.0614 2.70023 95.0714 2.67995 95.0854 2.66258C95.0995 2.6452 95.1172 2.63116 95.1374 2.62146C95.6374 2.67746 96.1543 2.74346 96.7793 2.85646C97.2266 2.9114 97.6541 3.07256 98.0264 3.32646C98.186 3.45176 98.3078 3.61878 98.3784 3.80904C98.449 3.99929 98.4656 4.20536 98.4264 4.40446C98.3854 4.61995 98.2797 4.81783 98.1234 4.97167C97.967 5.12552 97.7675 5.22801 97.5514 5.26546C97.4794 5.28646 97.4723 5.32646 97.4913 5.40446C97.6198 6.05265 97.8644 6.67228 98.2133 7.23346C98.3193 7.36073 98.4617 7.45251 98.6214 7.49646C98.6439 7.52023 98.6564 7.55172 98.6564 7.58446C98.6564 7.6172 98.6439 7.64869 98.6214 7.67246C98.444 7.69073 98.2649 7.67924 98.0914 7.63846C97.8314 7.61102 97.5848 7.50956 97.3807 7.34613C97.1767 7.1827 97.0239 6.96416 96.9404 6.71646C96.8052 6.35382 96.6952 5.98227 96.6114 5.60446C96.6013 5.5279 96.5654 5.45708 96.5096 5.40377C96.4537 5.35047 96.3813 5.31789 96.3044 5.31146C96.0744 5.26946 96.0594 5.28046 96.0354 5.41146L95.8884 6.22046C95.7794 6.82546 95.8103 6.87946 96.0974 6.98446L96.2683 7.04946C96.2846 7.08787 96.2893 7.13019 96.2819 7.17123C96.2744 7.21227 96.2551 7.25024 96.2263 7.28046C95.8803 7.20446 95.5784 7.14246 95.2634 7.08646C94.9484 7.03046 94.6434 6.98046 94.2994 6.93146C94.2796 6.89378 94.2731 6.85059 94.2807 6.80874C94.2883 6.7669 94.3096 6.72879 94.3414 6.70046H94.5244C94.8294 6.70046 94.8773 6.66246 94.9873 6.05746L95.4053 3.72846ZM96.1553 4.72846C96.1133 4.95846 96.1303 4.98246 96.5183 5.05146C96.6086 5.07569 96.7031 5.07991 96.7951 5.06385C96.8872 5.04779 96.9746 5.01182 97.0514 4.95846C97.1539 4.87732 97.2391 4.77636 97.3018 4.66159C97.3645 4.54683 97.4035 4.42061 97.4164 4.29046C97.4533 4.17123 97.4645 4.04552 97.4493 3.92163C97.4341 3.79774 97.3927 3.6785 97.328 3.57178C97.2632 3.46506 97.1766 3.37331 97.0737 3.30257C96.9709 3.23184 96.8542 3.18374 96.7314 3.16146C96.4614 3.11246 96.4444 3.12946 96.3874 3.44646L96.1553 4.72846Z" fill="white"/>
<path d="M102.433 7.24244C102.28 7.19144 102.259 7.19144 102.18 7.29844L101.689 7.95144C101.638 8.01547 101.597 8.0874 101.568 8.16444C101.556 8.20244 101.625 8.26444 101.792 8.35844L101.972 8.45844C101.995 8.51544 101.959 8.66444 101.885 8.67544C101.667 8.58844 101.439 8.51244 101.175 8.41744C100.96 8.34544 100.808 8.31744 100.516 8.21744C100.46 8.15644 100.51 8.02544 100.571 7.98944L100.749 8.02744C100.841 8.0505 100.937 8.04492 101.025 8.01147C101.113 7.97802 101.188 7.91831 101.241 7.84044C101.434 7.62244 101.655 7.35844 101.979 6.95944L103.072 5.60544C103.282 5.39639 103.452 5.15024 103.572 4.87944C103.813 4.87484 104.047 4.80576 104.251 4.67944C104.333 4.70744 104.36 4.75244 104.351 4.85544C104.34 5.05544 104.338 5.31544 104.351 5.81844L104.382 8.58944C104.389 9.01344 104.397 9.17844 104.618 9.29544L104.847 9.41344C104.874 9.45744 104.836 9.61344 104.767 9.63344C104.467 9.51944 104.126 9.39844 103.797 9.28844C103.468 9.17844 103.231 9.10644 102.935 9.02144C102.923 9.00307 102.914 8.98214 102.91 8.96012C102.907 8.9381 102.908 8.91553 102.914 8.89399C102.92 8.87246 102.93 8.85247 102.945 8.83545C102.959 8.81842 102.977 8.80477 102.997 8.79544L103.21 8.83144C103.365 8.85444 103.404 8.81844 103.417 8.78144C103.439 8.62543 103.447 8.46784 103.441 8.31044L103.451 7.71044C103.451 7.59844 103.407 7.56844 103.186 7.49444L102.433 7.24244ZM103.267 7.14744C103.413 7.19544 103.451 7.18844 103.455 7.00544L103.462 6.43744C103.462 6.13744 103.462 5.75544 103.452 5.60344C103.352 5.73244 103.111 6.03144 102.919 6.29144L102.603 6.71444C102.488 6.86544 102.513 6.89544 102.671 6.94844L103.267 7.14744Z" fill="white"/>
<path d="M106.245 10.3964C105.88 10.2502 105.557 10.0139 105.307 9.70937C105.293 9.33589 105.375 8.96499 105.545 8.63237C105.566 8.61964 105.59 8.61168 105.614 8.60908C105.638 8.60648 105.663 8.6093 105.686 8.61733C105.709 8.62537 105.73 8.63842 105.747 8.65555C105.765 8.67267 105.778 8.69345 105.786 8.71637C105.743 8.98872 105.78 9.26778 105.892 9.51979C106.004 9.7718 106.186 9.98596 106.417 10.1364C106.499 10.1809 106.589 10.2078 106.682 10.2153C106.775 10.2228 106.869 10.2107 106.956 10.1797C107.044 10.1488 107.125 10.0998 107.192 10.0358C107.26 9.97183 107.314 9.89435 107.349 9.80837C107.411 9.56965 107.406 9.31845 107.334 9.08251C107.263 8.84657 107.127 8.63507 106.942 8.47137C106.73 8.27032 106.58 8.013 106.509 7.72961C106.439 7.44622 106.45 7.1485 106.542 6.87137C106.624 6.69983 106.741 6.54767 106.886 6.42511C107.031 6.30254 107.201 6.21239 107.384 6.16069C107.566 6.10899 107.758 6.09694 107.946 6.12534C108.134 6.15374 108.313 6.22194 108.472 6.32537C108.709 6.4267 108.929 6.56141 109.127 6.72537C109.186 6.77676 109.248 6.82357 109.313 6.86537C109.269 7.18462 109.177 7.49541 109.04 7.78737C108.977 7.84837 108.822 7.78737 108.794 7.70137C108.835 7.49059 108.811 7.27251 108.726 7.07545C108.641 6.87839 108.499 6.71147 108.317 6.59637C108.241 6.55427 108.157 6.52861 108.071 6.52105C107.984 6.51348 107.897 6.52418 107.814 6.55246C107.732 6.58073 107.657 6.62595 107.593 6.68518C107.529 6.74442 107.479 6.81637 107.444 6.89637C107.401 7.06159 107.401 7.23529 107.446 7.40032C107.49 7.56535 107.576 7.71599 107.696 7.83737L108.006 8.22837C108.208 8.43743 108.345 8.69963 108.403 8.98413C108.46 9.26863 108.435 9.56361 108.33 9.83437C108.238 10.0161 108.109 10.1765 107.951 10.3052C107.794 10.4339 107.611 10.528 107.414 10.5814C107.217 10.6349 107.012 10.6465 106.811 10.6155C106.609 10.5844 106.417 10.5115 106.245 10.4014" fill="white"/>
<path d="M110.584 8.6364C110.908 8.0444 110.935 7.9674 110.705 7.8034L110.534 7.6814C110.499 7.6224 110.569 7.4934 110.656 7.4884C111.056 7.6704 111.529 7.8974 112.039 8.1754C112.411 8.36016 112.747 8.61089 113.029 8.9154C113.202 9.1013 113.31 9.33736 113.339 9.58918C113.368 9.84099 113.315 10.0954 113.189 10.3154C113.094 10.4677 112.97 10.5992 112.823 10.7022C112.676 10.8053 112.509 10.8776 112.334 10.9149C112.158 10.9523 111.977 10.9538 111.801 10.9195C111.625 10.8853 111.457 10.8158 111.308 10.7154C111.245 10.6826 111.184 10.6462 111.124 10.6064C111.111 10.575 111.111 10.5397 111.124 10.5082C111.137 10.4767 111.162 10.4517 111.193 10.4384C111.42 10.4905 111.658 10.4569 111.861 10.3441C112.064 10.2313 112.218 10.0472 112.293 9.8274C112.367 9.72592 112.42 9.61024 112.447 9.48761C112.474 9.36499 112.476 9.23806 112.452 9.11479C112.427 8.99152 112.378 8.87456 112.307 8.77125C112.235 8.66793 112.143 8.58049 112.036 8.5144C111.819 8.3954 111.773 8.4534 111.644 8.6884L110.291 11.1624C109.991 11.7074 110.003 11.7734 110.244 11.9624L110.415 12.0944C110.464 12.1594 110.39 12.2944 110.307 12.2944C109.984 12.1024 109.7 11.9394 109.419 11.7854C109.138 11.6314 108.853 11.4854 108.53 11.3224C108.485 11.2524 108.547 11.1104 108.63 11.1164L108.809 11.1774C109.099 11.2774 109.157 11.2524 109.455 10.7074L110.584 8.6364Z" fill="white"/>
<path d="M114.946 11.9715C114.846 12.1265 114.84 12.1415 114.99 12.2415L115.372 12.4985C115.66 12.6925 115.753 12.6985 115.987 12.4705L116.108 12.3505C116.177 12.3315 116.315 12.4245 116.308 12.4925C116.178 12.6625 116.039 12.8585 115.897 13.0695C115.755 13.2805 115.627 13.4825 115.519 13.6695C115.458 13.7005 115.319 13.6125 115.31 13.5375L115.375 13.3805C115.499 13.0805 115.462 12.9875 115.175 12.7935L114.793 12.5365C114.644 12.4365 114.635 12.4365 114.522 12.6045L114.08 13.2635C113.94 13.4313 113.849 13.6343 113.815 13.8505C113.815 13.9985 113.895 14.1135 114.3 14.3855C114.782 14.7095 114.982 14.8195 115.707 14.3975C115.793 14.3665 115.916 14.4815 115.893 14.5635C115.655 14.8462 115.376 15.0922 115.065 15.2935C114.778 15.0855 114.25 14.7225 113.796 14.4165L113.075 13.9325C112.809 13.7545 112.534 13.5775 112.11 13.3085C112.089 13.2455 112.178 13.1085 112.241 13.1145L112.528 13.2505C112.803 13.3805 112.859 13.3695 113.201 12.8595L114.59 10.7925C114.929 10.2875 114.918 10.2315 114.702 10.0145L114.582 9.89348C114.555 9.82648 114.647 9.70347 114.724 9.70647C114.977 9.89247 115.245 10.0805 115.511 10.2595L116.686 11.0495C117.041 11.2875 117.36 11.4945 117.44 11.5325C117.386 11.6245 117.156 12.0495 116.935 12.4385C116.871 12.4855 116.735 12.4105 116.715 12.3235C116.78 12.1375 116.808 11.941 116.798 11.7445C116.767 11.6308 116.713 11.5247 116.64 11.4324C116.566 11.3401 116.475 11.2636 116.371 11.2075L115.927 10.9075C115.745 10.7845 115.737 10.7955 115.599 11.0005L114.946 11.9715Z" fill="white"/>
<path d="M118.287 13.5375C118.712 13.0215 118.748 12.9565 118.557 12.7475L118.435 12.6125C118.404 12.5445 118.51 12.4125 118.593 12.4405C119.001 12.7325 119.42 13.0405 119.91 13.4465C120.273 13.7119 120.568 14.0603 120.769 14.4625C120.847 14.6493 120.872 14.854 120.841 15.0541C120.811 15.2542 120.725 15.4419 120.594 15.5965C120.453 15.7642 120.265 15.8849 120.053 15.9426C119.842 16.0003 119.618 15.9922 119.411 15.9195C119.339 15.9035 119.311 15.9345 119.292 16.0125C119.089 16.6405 119 17.3001 119.031 17.9595C119.062 18.1215 119.141 18.2706 119.257 18.3875C119.265 18.4193 119.26 18.4527 119.243 18.4808C119.227 18.5089 119.2 18.5296 119.168 18.5385C119.005 18.468 118.854 18.3707 118.722 18.2505C118.509 18.0997 118.344 17.8911 118.245 17.6492C118.147 17.4073 118.12 17.1423 118.167 16.8855C118.227 16.5034 118.312 16.1258 118.423 15.7555C118.45 15.6845 118.453 15.6064 118.43 15.5339C118.407 15.4613 118.361 15.3985 118.298 15.3555C118.118 15.2065 118.098 15.2085 118.014 15.3115L117.492 15.9455C117.102 16.4205 117.103 16.4815 117.301 16.7145L117.419 16.8545C117.435 16.9105 117.332 17.0345 117.271 17.0345C117.006 16.7995 116.771 16.5995 116.526 16.3955C116.281 16.1915 116.036 16.0025 115.76 15.7955C115.744 15.7315 115.846 15.6065 115.909 15.6155L116.069 15.7045C116.335 15.8535 116.395 15.8425 116.786 15.3685L118.287 13.5375ZM118.455 14.7735C118.308 14.9545 118.31 14.9825 118.614 15.2325C118.681 15.2973 118.762 15.3468 118.85 15.3775C118.938 15.4083 119.032 15.4195 119.124 15.4105C119.253 15.3904 119.376 15.3447 119.487 15.2759C119.598 15.2072 119.693 15.1169 119.768 15.0105C119.858 14.9245 119.929 14.8203 119.976 14.7049C120.023 14.5895 120.045 14.4655 120.041 14.3409C120.036 14.2164 120.006 14.0942 119.951 13.9825C119.896 13.8707 119.817 13.7719 119.721 13.6925C119.509 13.5185 119.486 13.5255 119.282 13.7735L118.455 14.7735Z" fill="white"/>
<path d="M121.443 18.7224C121.33 18.6084 121.312 18.5994 121.193 18.6594L120.458 19.0184C120.385 19.0529 120.318 19.0984 120.258 19.1534C120.23 19.1814 120.258 19.2724 120.369 19.4284L120.486 19.5954C120.481 19.6564 120.381 19.7734 120.311 19.7504C120.155 19.5734 119.987 19.4024 119.794 19.1974C119.634 19.0354 119.512 18.9414 119.294 18.7214C119.27 18.6414 119.375 18.5474 119.446 18.5434L119.587 18.6574C119.659 18.7195 119.747 18.7582 119.841 18.7682C119.935 18.7782 120.03 18.7591 120.112 18.7134C120.382 18.6064 120.699 18.4724 121.169 18.2624L122.757 17.5494C123.04 17.4589 123.304 17.3168 123.535 17.1304C123.751 17.236 123.99 17.2816 124.229 17.2624C124.29 17.3244 124.295 17.3764 124.242 17.4624C124.142 17.6364 124.022 17.8624 123.801 18.3194L122.574 20.8064C122.386 21.1874 122.319 21.3384 122.465 21.5434L122.614 21.7524C122.614 21.8034 122.514 21.9264 122.443 21.9124C122.227 21.6744 121.979 21.4124 121.734 21.1654C121.489 20.9184 121.312 20.7464 121.087 20.5364C121.084 20.5141 121.086 20.4914 121.092 20.4699C121.098 20.4483 121.109 20.4285 121.124 20.4117C121.139 20.395 121.158 20.3818 121.179 20.3731C121.2 20.3644 121.222 20.3604 121.244 20.3614L121.418 20.4914C121.544 20.5814 121.597 20.5674 121.626 20.5394C121.716 20.4098 121.794 20.273 121.86 20.1304L122.142 19.5984C122.195 19.4984 122.167 19.4514 122.003 19.2854L121.443 18.7224ZM122.231 19.0164C122.339 19.1264 122.376 19.1354 122.462 18.9754L122.726 18.4754C122.865 18.2064 123.038 17.8664 123.096 17.7254C122.948 17.7954 122.596 17.9534 122.308 18.0984L121.834 18.3314C121.663 18.4154 121.673 18.4534 121.79 18.5714L122.231 19.0164Z" fill="white"/>
<path d="M89.2683 15.3535L87.9323 14.6175L86.5703 15.2925L86.8613 13.8015L85.7993 12.7175L87.3083 12.5325L88.0083 11.1835L88.6513 12.5625L90.1513 12.8135L89.0373 13.8505L89.2683 15.3535Z" fill="#F9A612"/>
<path d="M94.2333 15.9034L92.9773 15.0494L91.5603 15.5964L91.9833 14.1374L91.0223 12.9594L92.5403 12.9134L93.3663 11.6354L93.8803 13.0674L95.3463 13.4524L94.1463 14.3854L94.2333 15.9034Z" fill="#F9A612"/>
<path d="M99.1203 17.3704L98.0343 16.3034L96.5413 16.5964L97.2203 15.2354L96.4913 13.9064L97.9913 14.1324L99.0333 13.0234L99.2823 14.5234L100.657 15.1674L99.3083 15.8674L99.1203 17.3704Z" fill="#F9A612"/>
<path d="M103.961 19.5154L103.039 18.3064L101.521 18.3804L102.387 17.1324L101.848 15.7094L103.304 16.1464L104.488 15.1954L104.522 16.7144L105.793 17.5464L104.361 18.0464L103.961 19.5154Z" fill="#F9A612"/>
<path d="M108.423 22.3244L107.642 21.0244L106.127 20.9314L107.127 19.7854L106.747 18.3124L108.147 18.9124L109.434 18.0974L109.294 19.5964L110.467 20.5654L108.986 20.9064L108.423 22.3244Z" fill="#F9A612"/>
<path d="M114.542 23.7905L113.05 24.0505L112.412 25.4315L111.7 24.0895L110.2 23.9115L111.255 22.8225L110.955 21.3315L112.317 21.9995L113.645 21.2565L113.427 22.7565L114.542 23.7905Z" fill="#F9A612"/>
<path d="M118.201 28.4104L116.682 28.3934L115.805 29.6354L115.352 28.1844L113.901 27.7344L115.143 26.8554L115.122 25.3374L116.339 26.2444L117.775 25.7544L117.291 27.1944L118.201 28.4104Z" fill="#F9A612"/>
<path d="M110.428 32.3405L109.787 30.9605L108.287 30.7075L109.399 29.6735L109.175 28.1735L110.508 28.9115L111.866 28.2355L111.573 29.7265L112.639 30.8125L111.13 30.9965L110.428 32.3405Z" fill="#F9A612"/>
<path d="M106.561 28.2605L105.816 26.9325L104.309 26.7905L105.34 25.6765L105.01 24.1935L106.389 24.8315L107.695 24.0585L107.514 25.5675L108.651 26.5735L107.161 26.8665L106.561 28.2605Z" fill="#F9A612"/>
<path d="M102.036 25.4014L101.205 24.1284L99.6843 24.0964L100.639 22.9124L100.202 21.4564L101.621 21.9974L102.874 21.1334L102.796 22.6504L104.004 23.5744L102.537 23.9744L102.036 25.4014Z" fill="#F9A612"/>
<path d="M97.4284 22.8684L96.2984 21.8554L94.8174 22.2134L95.4344 20.8234L94.6344 19.5304L96.1474 19.6834L97.1334 18.5264L97.4514 20.0104L98.8574 20.5894L97.5484 21.3524L97.4284 22.8684Z" fill="#F9A612"/>
<path d="M98.9514 30.2464L97.9754 29.0804L96.4634 29.2214L97.2724 27.9354L96.6724 26.5404L98.1464 26.9104L99.2854 25.9104L99.3854 27.4254L100.69 28.2014L99.2804 28.7664L98.9514 30.2464Z" fill="#F9A612"/>
<path d="M93.9343 27.9664L92.8343 26.9154L91.3433 27.2274L92.0033 25.8584L91.2513 24.5404L92.7513 24.7404L93.7723 23.6144L94.0443 25.1094L95.4273 25.7314L94.0953 26.4534L93.9343 27.9664Z" fill="#F9A612"/>
<path d="M92.2514 21.7595L91.0104 20.8845L89.5804 21.4125L90.0334 19.9605L89.0884 18.7675L90.6114 18.7455L91.4544 17.4805L91.9434 18.9205L93.4074 19.3305L92.1924 20.2405L92.2514 21.7595Z" fill="#F9A612"/>
<path d="M81.8993 15.9025L83.1543 15.0475L84.5723 15.5965L84.1443 14.1395L85.1053 12.9615L83.5863 12.9135L82.7643 11.6365L82.2513 13.0655L80.7803 13.4535L81.9803 14.3845L81.8993 15.9025Z" fill="#F9A612"/>
<path d="M76.6273 17.3704L77.7093 16.3034L79.2013 16.5964L78.5213 15.2374L79.2543 13.9064L77.7543 14.1314L76.7163 13.0234L76.4683 14.5234L75.0903 15.1674L76.4403 15.8674L76.6273 17.3704Z" fill="#F9A612"/>
<path d="M71.9375 19.5154L72.8575 18.3074L74.3755 18.3804L73.5105 17.1304L74.0485 15.7094L72.5935 16.1464L71.4095 15.1964L71.3755 16.7174L70.1045 17.5474L71.5395 18.0474L71.9375 19.5154Z" fill="#F9A612"/>
<path d="M67.3674 22.3265L68.1484 21.0265L69.6654 20.9265L68.6654 19.7825L69.0454 18.3095L67.6454 18.9095L66.3644 18.0955L66.4954 19.6065L65.3254 20.5755L66.8064 20.9185L67.3674 22.3265Z" fill="#F9A612"/>
<path d="M61.3513 23.7864L62.8513 24.0494L63.4863 25.4304L64.1953 24.0854L65.7063 23.9104L64.6513 22.8194L64.9513 21.3284L63.5873 21.9974L62.2623 21.2544L62.4783 22.7544L61.3513 23.7864Z" fill="#F9A612"/>
<path d="M57.6394 28.4155L59.1584 28.3985L60.0364 29.6375L60.4864 28.1885L61.9394 27.7385L60.6994 26.8615L60.7204 25.3395L59.5014 26.2495L58.0614 25.7585L58.5514 27.1965L57.6394 28.4155Z" fill="#F9A612"/>
<path d="M54.9314 33.5095L56.4004 33.1225L57.5534 34.1105L57.6374 32.5965L58.9374 31.8065L57.5204 31.2575L57.1694 29.7775L56.2084 30.9565L54.6934 30.8325L55.5174 32.1095L54.9314 33.5095Z" fill="#F9A612"/>
<path d="M59.8274 35.2795L61.3384 35.1265L62.3234 36.2805L62.6434 34.7975L64.0504 34.2185L62.7354 33.4575L62.6194 31.9395L61.4864 32.9545L60.0094 32.5965L60.6244 33.9865L59.8274 35.2795Z" fill="#F9A612"/>
<path d="M69.1814 32.4714L70.6874 32.6714L71.3824 34.0214L72.0314 32.6514L73.5314 32.4104L72.4314 31.3674L72.6644 29.8674L71.3304 30.5964L69.9744 29.8964L70.2514 31.3964L69.1814 32.4714Z" fill="#F9A612"/>
<path d="M105.659 32.4714L104.152 32.6714L103.457 34.0214L102.807 32.6514L101.307 32.4104L102.412 31.3674L102.177 29.8674L103.513 30.5964L104.867 29.9074L104.588 31.4014L105.659 32.4714Z" fill="#F9A612"/>
<path d="M116.012 35.2795L114.5 35.1265L113.515 36.2805L113.196 34.7975L111.789 34.2185L113.103 33.4575L113.22 31.9395L114.352 32.9545L115.829 32.5965L115.214 33.9865L116.012 35.2795Z" fill="#F9A612"/>
<path d="M120.886 33.5095L119.416 33.1225L118.263 34.1105L118.179 32.5965L116.879 31.8065L118.297 31.2575L118.648 29.7775L119.607 30.9565L121.124 30.8325L120.298 32.1095L120.886 33.5095Z" fill="#F9A612"/>
<path d="M65.3624 32.3424L66.0044 30.9634L67.5044 30.7104L66.3914 29.6744L66.6124 28.1744L65.2844 28.9124L63.9214 28.2364L64.2214 29.7274L63.1514 30.8104L64.6604 30.9954L65.3624 32.3424Z" fill="#F9A612"/>
<path d="M69.5864 28.2604L70.3264 26.9334L71.8394 26.7884L70.8054 25.6754L71.1354 24.1934L69.7584 24.8314L68.4484 24.0594L68.6314 25.5674L67.4934 26.5674L68.9824 26.8624L69.5864 28.2604Z" fill="#F9A612"/>
<path d="M73.9844 25.4014L74.8154 24.1304L76.3364 24.0934L75.3814 22.9104L75.8154 21.4534L74.3954 21.9944L73.1444 21.1304L73.2214 22.6484L72.0134 23.5714L73.4814 23.9714L73.9844 25.4014Z" fill="#F9A612"/>
<path d="M78.9193 22.8664L80.0513 21.8534L81.5293 22.2124L80.9153 20.8224L81.7153 19.5274L80.2023 19.6814L79.2203 18.5244L78.8993 20.0094L77.4993 20.5884L78.8103 21.3504L78.9193 22.8664Z" fill="#F9A612"/>
<path d="M76.2024 30.2455L76.9924 28.9455L78.5094 28.8625L77.5204 27.7115L77.9124 26.2425L76.5124 26.8235L75.2354 26.0005L75.3514 27.5165L74.1724 28.4785L75.6504 28.8285L76.2024 30.2455Z" fill="#F9A612"/>
<path d="M81.4133 27.9684L82.4883 26.8964L83.9813 27.1714L83.2903 25.8184L84.0153 24.4824L82.5153 24.7194L81.4663 23.6194L81.2333 25.1194L79.8613 25.7754L81.2143 26.4654L81.4133 27.9684Z" fill="#F9A612"/>
<path d="M84.3613 21.7594L85.6053 20.8854L87.0323 21.4144L86.5823 19.9604L87.5233 18.7674L86.0033 18.7474L85.1613 17.4814L84.6713 18.9204L83.2073 19.3314L84.4223 20.2434L84.3613 21.7594Z" fill="#F9A612"/>
<path d="M89.1653 26.5965L87.8323 25.8595L86.4703 26.5375L86.7603 25.0455L85.6973 23.9565L87.2033 23.7735L87.9033 22.4235L88.5473 23.8015L90.0473 24.0545L88.9323 25.0905L89.1653 26.5965Z" fill="#F9A612"/>
<path d="M19.0364 41.5964L34.9364 57.4064C36.8887 59.5008 39.1392 61.2958 41.6154 62.7334C43.3323 63.6394 45.2161 64.1856 47.1514 64.3384V65.5134H26.6374V64.3384C27.5663 64.4159 28.496 64.1986 29.2944 63.7174C29.53 63.568 29.7266 63.3645 29.8677 63.1238C30.0087 62.883 30.0902 62.612 30.1054 62.3334C30.1139 61.8605 30.0112 61.3923 29.8054 60.9664C29.2388 60.1343 28.571 59.3759 27.8174 58.7084L12.9294 43.9804V57.8804C12.8449 59.3354 12.9846 60.7948 13.3434 62.2074C13.6159 62.8044 14.088 63.2878 14.6784 63.5744C15.562 64.0774 16.5616 64.3411 17.5784 64.3394H19.0414V65.5144H0.651367V64.3384H2.17637C2.90076 64.4037 3.63031 64.2962 4.30512 64.0248C4.97994 63.7535 5.58079 63.326 6.05837 62.7774C6.56837 62.1008 6.8227 60.4674 6.82137 57.8774V30.0174C6.9035 28.5523 6.76427 27.0831 6.40837 25.6594C6.13369 25.0835 5.67676 24.6143 5.10837 24.3244C4.21319 23.825 3.20545 23.562 2.18037 23.5604H0.651367V22.3834H19.0364V23.5604H17.5734C16.5611 23.5623 15.565 23.8141 14.6734 24.2934C14.0382 24.6066 13.5485 25.1529 13.3064 25.8184C12.9753 27.1924 12.8466 28.6073 12.9244 30.0184V43.2184C13.3477 42.8184 14.8004 41.4718 17.2824 39.1784C23.5804 33.4124 27.3867 29.5638 28.7014 27.6324C29.1987 26.9905 29.4973 26.217 29.5604 25.4074C29.5549 25.1556 29.4917 24.9083 29.3757 24.6847C29.2598 24.4611 29.0941 24.267 28.8914 24.1174C28.2217 23.6848 27.4263 23.489 26.6324 23.5614H25.6514V22.3834H41.4924V23.5604C40.6309 23.5704 39.7749 23.6986 38.9484 23.9414C37.9656 24.2807 37.0267 24.7355 36.1514 25.2964C34.6956 26.2416 33.3325 27.3224 32.0804 28.5244C31.6137 28.9484 29.4614 31.1221 25.6234 35.0454L19.0364 41.5964Z" fill="#00306B"/>
<path d="M50.5514 57.2415C49.2741 58.2969 47.9223 59.2587 46.5064 60.1195C45.6836 60.5004 44.7871 60.6957 43.8804 60.6915C43.2129 60.7115 42.5488 60.5893 41.9321 60.3331C41.3154 60.0769 40.7603 59.6925 40.3034 59.2055C39.3407 58.1378 38.8377 56.7336 38.9034 55.2975C38.8804 54.3678 39.118 53.4502 39.5894 52.6485C40.42 51.4232 41.5374 50.4194 42.8444 49.7245C45.3171 48.402 47.8949 47.2862 50.5514 46.3885V45.5665C50.5514 43.4792 50.2201 42.0478 49.5574 41.2725C49.1944 40.8733 48.746 40.5611 48.2457 40.3592C47.7453 40.1574 47.2058 40.071 46.6674 40.1065C45.8348 40.0628 45.0171 40.3406 44.3834 40.8825C44.1169 41.0981 43.9009 41.3697 43.7507 41.6779C43.6006 41.9862 43.5199 42.3236 43.5144 42.6665L43.5614 43.9895C43.6002 44.5799 43.4072 45.1621 43.0234 45.6125C42.8439 45.8015 42.6263 45.9502 42.3849 46.0487C42.1435 46.1471 41.8839 46.1931 41.6234 46.1835C41.3637 46.1917 41.1054 46.1428 40.8666 46.0404C40.6278 45.9379 40.4144 45.7844 40.2414 45.5905C39.8636 45.1369 39.6717 44.5569 39.7044 43.9675C39.7405 43.2518 39.9408 42.5539 40.2896 41.928C40.6385 41.302 41.1267 40.7647 41.7164 40.3575C43.3484 39.1701 45.3431 38.5888 47.3574 38.7135C48.9334 38.6528 50.5006 38.9743 51.9254 39.6505C52.8312 40.1287 53.5365 40.9145 53.9144 41.8665C54.2686 43.175 54.4074 44.5324 54.3254 45.8855V52.9965C54.2951 54.2193 54.3331 55.4429 54.4394 56.6615C54.4639 56.9947 54.5967 57.3107 54.8174 57.5615C54.9818 57.7099 55.1959 57.7912 55.4174 57.7895C55.6407 57.795 55.8614 57.7405 56.0564 57.6315C56.7204 57.1304 57.3395 56.5722 57.9064 55.9635V57.2435C56.2031 59.5255 54.5751 60.6671 53.0224 60.6685C52.686 60.6823 52.3508 60.6195 52.0421 60.4849C51.7334 60.3503 51.4593 60.1474 51.2404 59.8915C50.7226 59.1094 50.4814 58.1765 50.5554 57.2415M50.5554 55.7555V47.7815C49.0365 48.3484 47.5493 48.997 46.1004 49.7245C45.0967 50.2276 44.2154 50.9444 43.5184 51.8245C43.0111 52.5216 42.7393 53.3623 42.7424 54.2245C42.7083 55.226 43.0598 56.2025 43.7244 56.9525C43.9999 57.2871 44.3452 57.5575 44.736 57.7447C45.1269 57.932 45.554 58.0316 45.9874 58.0365C47.1434 58.0365 48.6661 57.2755 50.5554 55.7535" fill="#00306B"/>
<path d="M65.5643 43.1445C68.0163 40.1905 70.3547 38.7135 72.5793 38.7135C73.6264 38.6856 74.656 38.9856 75.5243 39.5714C76.4541 40.289 77.1405 41.2753 77.4903 42.3965C77.8839 43.76 78.0528 45.1786 77.9903 46.5965V55.5294C77.9326 56.4398 78.0411 57.353 78.3103 58.2244C78.4752 58.6032 78.7607 58.9169 79.1223 59.1165C79.7778 59.3811 80.4856 59.4907 81.1903 59.4365V60.2584H70.8433V59.4365H71.2763C71.9876 59.5006 72.7014 59.3449 73.3213 58.9905C73.7321 58.657 74.0177 58.1942 74.1313 57.6775C74.2198 56.9651 74.2506 56.2468 74.2233 55.5294V46.9615C74.3195 45.5392 74.0647 44.1151 73.4813 42.8144C73.2278 42.3863 72.8589 42.0382 72.4167 41.8099C71.9746 41.5816 71.4772 41.4823 70.9813 41.5234C69.166 41.5234 67.361 42.5135 65.5663 44.4935V55.5275C65.5023 56.4113 65.5872 57.2997 65.8173 58.1554C66.0001 58.5635 66.3075 58.9031 66.6953 59.1255C67.4229 59.3882 68.198 59.4936 68.9693 59.4345V60.2565H58.6193V59.4345H59.0773C59.4759 59.4857 59.881 59.4386 60.2572 59.2973C60.6334 59.1559 60.9692 58.9246 61.2353 58.6235C61.6988 57.6597 61.8923 56.5884 61.7953 55.5234V47.7615C61.842 46.2283 61.7848 44.6938 61.6243 43.1684C61.5728 42.7489 61.3885 42.3568 61.0983 42.0494C60.8284 41.8393 60.492 41.7329 60.1503 41.7495C59.6238 41.7708 59.1052 41.8863 58.6193 42.0905L58.2773 41.2695L64.5773 38.7104H65.5603L65.5643 43.1445Z" fill="#00306B"/>
<path d="M96.3833 38.7135V45.8425H95.6293C95.3279 44.1413 94.5561 42.5585 93.4013 41.2735C92.4428 40.447 91.207 40.014 89.9423 40.0615C89.0067 40.0174 88.0875 40.3184 87.3593 40.9075C87.0662 41.1264 86.8258 41.4081 86.6559 41.7321C86.486 42.056 86.3908 42.4139 86.3773 42.7795C86.3571 43.5738 86.6158 44.35 87.1083 44.9735C87.9121 45.8375 88.8945 46.5159 89.9873 46.9615L93.3213 48.5835C96.4126 50.0901 97.9586 52.0771 97.9593 54.5445C97.9849 55.4265 97.8031 56.3023 97.4284 57.1013C97.0538 57.9002 96.4968 58.6001 95.8023 59.1445C94.4484 60.2804 92.7365 60.9009 90.9693 60.8965C89.4829 60.8658 88.0073 60.6354 86.5823 60.2115C86.1833 60.0783 85.7676 60.0019 85.3473 59.9845C85.167 59.9905 84.9926 60.0499 84.8462 60.1554C84.6998 60.2608 84.5881 60.4074 84.5253 60.5765H83.7723V53.1065H84.5253C84.7957 54.937 85.6542 56.6298 86.9713 57.9295C88.0635 58.9653 89.51 59.5452 91.0153 59.5505C91.9594 59.5889 92.881 59.2565 93.5833 58.6245C93.8992 58.3462 94.1515 58.0032 94.323 57.6188C94.4946 57.2343 94.5813 56.8174 94.5773 56.3965C94.5876 55.9021 94.4945 55.4111 94.304 54.9547C94.1136 54.4984 93.8299 54.0869 93.4713 53.7465C92.1263 52.6464 90.6397 51.7319 89.0513 51.0275C87.418 50.3413 85.9409 49.3309 84.7093 48.0575C83.9998 47.1107 83.6376 45.9487 83.6833 44.7665C83.6631 43.9637 83.8098 43.1655 84.1141 42.4224C84.4185 41.6793 84.8738 41.0075 85.4513 40.4495C86.0586 39.8673 86.7769 39.4135 87.5635 39.1153C88.3501 38.817 89.1887 38.6803 90.0293 38.7135C91.0465 38.7466 92.0538 38.9237 93.0213 39.2395C93.5245 39.4114 94.0454 39.5261 94.5743 39.5815C94.7778 39.5937 94.9796 39.5374 95.1473 39.4215C95.3511 39.2185 95.5137 38.9781 95.6263 38.7135H96.3833Z" fill="#00306B"/>
<path d="M112.923 57.2414C111.646 58.2965 110.295 59.2583 108.879 60.1194C108.057 60.5002 107.16 60.6955 106.253 60.6914C105.586 60.7115 104.922 60.5894 104.305 60.3332C103.688 60.077 103.133 59.6926 102.676 59.2054C101.714 58.1378 101.211 56.7336 101.276 55.2974C101.253 54.3678 101.49 53.45 101.961 52.6484C102.791 51.4227 103.909 50.4188 105.216 49.7244C107.69 48.4017 110.269 47.2859 112.926 46.3884V45.5664C112.926 43.4791 112.595 42.0478 111.932 41.2724C111.569 40.8731 111.121 40.5609 110.621 40.359C110.12 40.1571 109.581 40.0708 109.042 40.1064C108.21 40.0629 107.392 40.3407 106.758 40.8824C106.492 41.0981 106.276 41.3696 106.126 41.6779C105.976 41.9862 105.896 42.3237 105.891 42.6664L105.936 43.9894C105.975 44.58 105.781 45.1622 105.397 45.6124C105.218 45.8014 105 45.9501 104.759 46.0486C104.517 46.147 104.258 46.193 103.997 46.1834C103.738 46.1916 103.479 46.1428 103.241 46.0403C103.002 45.9379 102.788 45.7843 102.615 45.5904C102.237 45.1371 102.045 44.5569 102.078 43.9674C102.114 43.2519 102.314 42.5543 102.663 41.9284C103.012 41.3025 103.499 40.765 104.088 40.3574C105.722 39.1703 107.717 38.589 109.732 38.7134C111.309 38.6532 112.876 38.9746 114.301 39.6504C115.205 40.1303 115.91 40.9157 116.288 41.8664C116.641 43.1752 116.779 44.5325 116.697 45.8854V52.9964C116.667 54.2193 116.705 55.4429 116.812 56.6614C116.837 56.9945 116.97 57.3104 117.19 57.5614C117.356 57.7112 117.572 57.7927 117.795 57.7894C118.019 57.7946 118.241 57.74 118.436 57.6314C119.099 57.1288 119.717 56.5708 120.285 55.9634V57.2434C118.579 59.5268 116.949 60.6691 115.395 60.6704C115.059 60.6844 114.724 60.6216 114.416 60.487C114.107 60.3524 113.834 60.1494 113.615 59.8934C113.097 59.1115 112.856 58.1786 112.929 57.2434M112.929 55.7574V47.7814C111.411 48.3478 109.924 48.9964 108.476 49.7244C107.472 50.2264 106.59 50.9434 105.894 51.8244C105.386 52.5212 105.114 53.3621 105.117 54.2244C105.083 55.2256 105.434 56.2017 106.097 56.9524C106.373 57.2867 106.718 57.5569 107.109 57.7441C107.5 57.9314 107.927 58.0311 108.36 58.0364C109.517 58.0364 111.04 57.2754 112.929 55.7534" fill="#00306B"/>
<path d="M135.356 38.7134V45.8424H134.602C134.301 44.1414 133.53 42.5586 132.375 41.2734C131.416 40.4465 130.18 40.0134 128.914 40.0614C127.979 40.0172 127.06 40.3183 126.332 40.9074C126.039 41.1263 125.799 41.4081 125.629 41.732C125.459 42.056 125.364 42.4139 125.35 42.7794C125.33 43.5737 125.589 44.35 126.081 44.9734C126.886 45.837 127.868 46.5154 128.96 46.9614L132.293 48.5834C135.387 50.0901 136.933 52.0771 136.933 54.5444C136.959 55.4269 136.777 56.303 136.402 57.1021C136.027 57.9012 135.469 58.6008 134.773 59.1444C133.42 60.2791 131.709 60.8983 129.943 60.8924C128.457 60.862 126.981 60.6316 125.556 60.2074C125.157 60.0745 124.742 59.9981 124.321 59.9804C124.141 59.9864 123.967 60.0459 123.82 60.1513C123.674 60.2567 123.562 60.4033 123.499 60.5724H122.751V53.1024H123.503C123.773 54.933 124.631 56.6259 125.948 57.9254C127.041 58.9612 128.487 59.541 129.992 59.5464C130.937 59.585 131.858 59.2527 132.56 58.6204C132.875 58.3424 133.127 57.9999 133.298 57.6162C133.469 57.2325 133.555 56.8165 133.551 56.3964C133.563 55.9025 133.471 55.4116 133.281 54.9552C133.092 54.4989 132.809 54.0872 132.451 53.7464C131.105 52.6469 129.618 51.7328 128.029 51.0284C126.396 50.3422 124.919 49.3318 123.687 48.0584C122.975 47.1125 122.609 45.9501 122.651 44.7664C122.632 43.9637 122.779 43.1656 123.083 42.4225C123.388 41.6795 123.843 41.0077 124.42 40.4494C125.028 39.8674 125.747 39.4137 126.534 39.1154C127.321 38.8172 128.16 38.6805 129.001 38.7134C130.019 38.7466 131.026 38.9237 131.993 39.2394C132.497 39.4114 133.018 39.5261 133.546 39.5814C133.75 39.5935 133.952 39.5372 134.119 39.4214C134.324 39.2195 134.487 38.9789 134.598 38.7134H135.356Z" fill="#00306B"/>
<path d="M15.7073 69.2965C15.7073 68.2655 15.7073 67.9585 14.5533 67.9585V67.7375H17.6963C18.8707 67.6353 20.0499 67.8694 21.0963 68.4125C21.624 68.7927 22.0493 69.2978 22.3341 69.8826C22.6189 70.4673 22.7543 71.1136 22.7283 71.7635C22.7283 73.9855 21.2803 75.8635 18.3343 75.8635H14.5513V75.6425C15.7053 75.6425 15.7053 75.3355 15.7053 74.3035L15.7073 69.2965ZM16.8613 75.2615C17.2794 75.3633 17.7079 75.4167 18.1383 75.4205C20.2383 75.4205 21.3543 73.7645 21.3543 71.8005C21.3543 69.7875 20.2243 68.1795 18.0883 68.1795C17.6734 68.1806 17.2606 68.2382 16.8613 68.3505V75.2615Z" fill="#00306B"/>
<path d="M24.4354 72.4474C24.4354 73.6754 25.0734 75.0474 26.4114 75.0474C26.7949 75.0515 27.168 74.9231 27.4677 74.6838C27.7674 74.4446 27.9754 74.1093 28.0564 73.7344L28.2404 73.8575C28.1839 74.4268 27.9271 74.9576 27.5158 75.3554C27.1045 75.7531 26.5654 75.992 25.9944 76.0294C25.6486 76.0102 25.3104 75.9207 25.0003 75.7664C24.6903 75.6122 24.4148 75.3965 24.1909 75.1323C23.9669 74.8682 23.799 74.5612 23.6975 74.2301C23.596 73.899 23.563 73.5507 23.6004 73.2064C23.6004 71.6234 24.4004 70.1994 26.1414 70.1994C26.4315 70.1932 26.7196 70.2483 26.987 70.361C27.2544 70.4736 27.495 70.6414 27.6931 70.8533C27.8913 71.0653 28.0426 71.3166 28.137 71.5909C28.2315 71.8653 28.2671 72.1564 28.2414 72.4454L24.4354 72.4474ZM26.9884 72.0795C26.9884 71.3185 26.6084 70.6434 25.7364 70.6434C25.3837 70.6843 25.0582 70.853 24.8214 71.1176C24.5846 71.3822 24.453 71.7244 24.4514 72.0795H26.9884Z" fill="#00306B"/>
<path d="M29.5295 71.8204C29.5295 70.9864 29.2715 70.9864 29.0995 70.9864C28.9556 70.9948 28.8145 71.0286 28.6825 71.0864L28.5965 70.8774L30.2535 70.2034H30.5235V71.4674H30.5515C30.6998 71.1231 30.9372 70.8246 31.2391 70.6024C31.541 70.3803 31.8967 70.2426 32.2695 70.2034C33.6935 70.2034 34.3315 71.6634 34.3315 72.9034C34.3315 74.4244 33.5095 76.0334 31.8035 76.0334C31.5681 76.0448 31.3329 76.007 31.113 75.9222C30.8931 75.8375 30.6933 75.7078 30.5265 75.5414V77.4324C30.5265 78.1564 30.7475 78.2424 31.4715 78.2544V78.4764H28.5845V78.2544C29.3085 78.2424 29.5295 78.1544 29.5295 77.4324V71.8204ZM30.5235 74.1534C30.4926 74.3629 30.5097 74.5767 30.5735 74.7787C30.6372 74.9806 30.7459 75.1655 30.8915 75.3194C31.1446 75.5531 31.4802 75.6769 31.8245 75.6634C32.9665 75.6634 33.2855 74.3634 33.2855 73.4414C33.2855 72.5574 32.9295 71.0594 31.7855 71.0594C31.5279 71.0925 31.2809 71.1825 31.0623 71.3227C30.8437 71.463 30.659 71.65 30.5215 71.8704L30.5235 74.1534Z" fill="#00306B"/>
<path d="M39.2264 74.3254C39.2264 74.8784 39.2264 75.2704 39.5334 75.2704C39.7334 75.2704 40.0124 74.9514 40.1714 74.7924V75.1354C39.8894 75.5034 39.4104 76.0354 38.8954 76.0354C38.3804 76.0354 38.2324 75.5934 38.2324 75.1354C37.6804 75.5354 37.2504 76.0354 36.5024 76.0354C36.3181 76.0384 36.1353 76.0023 35.9661 75.9293C35.7969 75.8563 35.6452 75.7482 35.5209 75.6122C35.3967 75.4761 35.3028 75.3152 35.2454 75.14C35.1881 74.9649 35.1687 74.7796 35.1884 74.5964C35.1884 73.2224 37.2264 72.7304 38.2324 72.2894C38.2324 71.3684 38.1714 70.5704 37.2264 70.5704C37.124 70.5603 37.0207 70.5715 36.9228 70.603C36.8249 70.6346 36.7345 70.686 36.6573 70.754C36.5801 70.822 36.5177 70.9052 36.4741 70.9983C36.4304 71.0914 36.4063 71.1926 36.4034 71.2954C36.4034 71.8834 36.2804 72.1664 35.9034 72.1664C35.5594 72.1664 35.4034 71.8964 35.4034 71.5774C35.4034 71.2584 35.7594 70.2024 37.4284 70.2024C39.2284 70.2024 39.2284 71.3434 39.2284 71.6874L39.2264 74.3254ZM38.2324 72.6444C37.4104 72.9754 36.1824 73.4054 36.1824 74.3384C36.1658 74.5871 36.2482 74.8324 36.4115 75.0207C36.5748 75.2091 36.8058 75.3254 37.0544 75.3444C37.4962 75.2607 37.9049 75.0525 38.2324 74.7444V72.6444Z" fill="#00306B"/>
<path d="M42.2094 71.3794H42.2334C42.5034 70.9374 42.9704 70.2014 43.6204 70.2014C43.8115 70.1929 43.9985 70.2583 44.1426 70.384C44.2867 70.5096 44.3769 70.686 44.3944 70.8764C44.3943 71.0187 44.3394 71.1554 44.2411 71.2582C44.1427 71.361 44.0086 71.422 43.8664 71.4284C43.4734 71.4284 43.2664 71.0284 42.9954 71.0284C42.7244 71.0284 42.3194 71.7154 42.2094 71.9484V74.2564C42.2094 75.2504 42.2094 75.6434 43.2284 75.6434V75.8644H40.3684V75.6434C40.9324 75.6314 41.2154 75.5434 41.2154 74.8204V71.8204C41.2154 70.9864 40.9574 70.9864 40.7854 70.9864C40.6416 70.9949 40.5005 71.0288 40.3684 71.0864L40.2834 70.8784L41.9394 70.2034H42.2094V71.3794Z" fill="#00306B"/>
<path d="M47.7954 70.3725V70.8145H46.5064V74.1905C46.5064 74.6905 46.5064 75.2455 47.0834 75.2455C47.2257 75.2337 47.3616 75.1811 47.4747 75.094C47.5879 75.0069 47.6735 74.889 47.7214 74.7545H47.9674C47.8784 75.0711 47.6954 75.3533 47.4425 75.5636C47.1897 75.774 46.8789 75.9026 46.5514 75.9325C46.1584 75.9325 45.5084 75.6755 45.5084 74.6195V70.8145H44.6514V70.5695C45.0525 70.3693 45.4078 70.0882 45.6951 69.744C45.9823 69.3999 46.1952 68.9999 46.3204 68.5695H46.5044V70.3695L47.7954 70.3725Z" fill="#00306B"/>
<path d="M49.9513 71.3665C50.1718 71.0483 50.4565 70.7799 50.787 70.5783C51.1175 70.3768 51.4865 70.2468 51.8703 70.1965C52.205 70.1941 52.529 70.3137 52.7819 70.5329C53.0347 70.7521 53.1991 71.0559 53.2443 71.3875C53.4479 71.0528 53.7273 70.7707 54.0599 70.5638C54.3925 70.3569 54.7691 70.2311 55.1593 70.1965C56.2153 70.1965 56.6083 71.1295 56.6083 72.0505V74.8115C56.6083 75.5355 56.8903 75.6215 57.4543 75.6345V75.8555H54.7663V75.6345C55.3313 75.6215 55.6133 75.5345 55.6133 74.8115V72.3815C55.6133 71.6935 55.5893 70.9325 54.7053 70.9325C54.1522 70.9812 53.6405 71.246 53.2813 71.6695V74.8115C53.2813 75.5355 53.5643 75.6215 54.1283 75.6345V75.8555H51.4403V75.6345C52.0053 75.6215 52.2873 75.5345 52.2873 74.8115V72.3815C52.2873 71.6935 52.2623 70.9325 51.3793 70.9325C50.8262 70.9812 50.3145 71.246 49.9553 71.6695V74.8115C49.9553 75.5355 50.2373 75.6215 50.8023 75.6345V75.8555H48.1143V75.6345C48.6783 75.6215 48.9613 75.5345 48.9613 74.8115V71.8115C48.9613 70.9775 48.7033 70.9775 48.5313 70.9775C48.3875 70.9859 48.2463 71.0197 48.1143 71.0775L48.0283 70.8685L49.6853 70.1935H49.9553L49.9513 71.3665Z" fill="#00306B"/>
<path d="M58.7694 72.4474C58.7694 73.6754 59.4074 75.0474 60.7454 75.0474C61.1289 75.0515 61.502 74.923 61.8017 74.6838C62.1014 74.4446 62.3094 74.1092 62.3904 73.7344L62.5744 73.8574C62.5178 74.4268 62.2611 74.9576 61.8498 75.3554C61.4385 75.7531 60.8993 75.992 60.3284 76.0294C59.9826 76.0101 59.6444 75.9207 59.3343 75.7664C59.0242 75.6122 58.7488 75.3964 58.5248 75.1323C58.3009 74.8682 58.133 74.5612 58.0315 74.2301C57.93 73.899 57.8969 73.5507 57.9344 73.2064C57.9344 71.6234 58.7344 70.1994 60.4754 70.1994C60.7654 70.1934 61.0535 70.2485 61.3208 70.3612C61.5881 70.474 61.8286 70.6417 62.0268 70.8537C62.2249 71.0656 62.3762 71.3168 62.4707 71.5911C62.5652 71.8653 62.6009 72.1564 62.5754 72.4454L58.7694 72.4474ZM61.3224 72.0794C61.3224 71.3184 60.9424 70.6434 60.0704 70.6434C59.717 70.6833 59.3905 70.8516 59.1529 71.1163C58.9152 71.381 58.7831 71.7237 58.7814 72.0794H61.3224Z" fill="#00306B"/>
<path d="M64.9563 71.3555C65.6433 70.5945 66.1223 70.2015 66.8223 70.2015C67.8163 70.2015 68.2093 71.1345 68.2093 72.0545V74.8165C68.2093 75.5405 68.4913 75.6265 69.0563 75.6395V75.8605H66.3673V75.6395C66.9323 75.6265 67.2143 75.5395 67.2143 74.8165V72.2755C67.2143 71.0605 66.7143 70.9375 66.3433 70.9375C66.0706 70.9664 65.8067 71.0511 65.5681 71.1863C65.3295 71.3215 65.1212 71.5044 64.9563 71.7235V74.8165C64.9563 75.5405 65.2383 75.6265 65.8033 75.6395V75.8605H63.1153V75.6395C63.6793 75.6265 63.9623 75.5395 63.9623 74.8165V71.8165C63.9623 70.9825 63.7043 70.9825 63.5323 70.9825C63.3885 70.9909 63.2473 71.0247 63.1153 71.0825L63.0293 70.8735L64.6863 70.1985H64.9563V71.3555Z" fill="#00306B"/>
<path d="M72.3464 70.3725V70.8145H71.0574V74.1905C71.0574 74.6905 71.0574 75.2455 71.6344 75.2455C71.7768 75.2338 71.9129 75.1812 72.0262 75.0941C72.1396 75.007 72.2254 74.8891 72.2734 74.7545H72.5184C72.4295 75.0704 72.2471 75.3521 71.995 75.5624C71.743 75.7727 71.4332 75.9017 71.1064 75.9325C70.7134 75.9325 70.0634 75.6755 70.0634 74.6195V70.8145H69.2034V70.5695C69.6048 70.3695 69.9604 70.0885 70.2478 69.7443C70.5352 69.4001 70.7482 69.0001 70.8734 68.5695H71.0574V70.3695L72.3464 70.3725Z" fill="#00306B"/>
<path d="M78.1153 74.2514C78.1153 75.2454 78.1153 75.6384 79.1333 75.6384V75.8594H76.0773V75.6384C77.1213 75.6384 77.1213 75.2454 77.1213 74.2514V70.8144H76.0513V70.3724H77.1213V69.8724C77.0863 69.5506 77.1203 69.225 77.2208 68.9173C77.3213 68.6095 77.4861 68.3267 77.7043 68.0875C77.9225 67.8484 78.189 67.6583 78.4862 67.53C78.7835 67.4018 79.1046 67.3382 79.4283 67.3434C79.9683 67.3434 80.9133 67.7244 80.9133 68.3624C80.9028 68.4892 80.8477 68.6081 80.7578 68.698C80.6679 68.7879 80.549 68.843 80.4223 68.8534C79.7603 68.8534 79.7843 67.7854 78.9373 67.7854C78.1153 67.7854 78.1153 68.7424 78.1153 69.3854V70.3794H79.5273V70.8214H78.1153V74.2514Z" fill="#00306B"/>
<path d="M85.3945 72.9874C85.4203 73.3673 85.3698 73.7486 85.2461 74.1087C85.1223 74.4688 84.9277 74.8005 84.6738 75.0843C84.4198 75.368 84.1117 75.5981 83.7675 75.7609C83.4232 75.9238 83.0499 76.0161 82.6695 76.0324C82.3116 76.0159 81.9606 75.9286 81.6368 75.7755C81.3129 75.6224 81.0227 75.4065 80.7829 75.1404C80.5431 74.8742 80.3585 74.5632 80.2398 74.2252C80.1211 73.8872 80.0707 73.529 80.0915 73.1714C80.0712 72.8014 80.1241 72.4311 80.247 72.0816C80.37 71.7321 80.5606 71.4102 80.808 71.1344C81.0554 70.8585 81.3547 70.6342 81.6889 70.4741C82.023 70.314 82.3855 70.2214 82.7555 70.2014C83.1125 70.2082 83.4647 70.286 83.7914 70.4303C84.1182 70.5745 84.4129 70.7824 84.6585 71.0416C84.9041 71.3009 85.0957 71.6065 85.222 71.9406C85.3484 72.2746 85.407 72.6305 85.3945 72.9874ZM81.2085 72.6444C81.2085 73.6994 81.5895 75.6144 82.9515 75.6144C84.0685 75.6144 84.2775 74.3624 84.2775 73.5034C84.2775 72.4354 83.9095 70.6194 82.5465 70.6194C81.9465 70.6194 81.2085 71.0734 81.2085 72.6444Z" fill="#00306B"/>
<path d="M87.8003 71.3794H87.8253C88.0953 70.9374 88.5623 70.2014 89.2123 70.2014C89.4032 70.1931 89.5899 70.2586 89.7338 70.3843C89.8777 70.5099 89.9678 70.6861 89.9853 70.8764C89.9852 71.0186 89.9302 71.1554 89.8319 71.2582C89.7336 71.361 89.5994 71.4219 89.4573 71.4284C89.0643 71.4284 88.8573 71.0284 88.5853 71.0284C88.3133 71.0284 87.9113 71.7154 87.8003 71.9484V74.2564C87.8003 75.2504 87.8003 75.6434 88.8193 75.6434V75.8644H85.9593V75.6434C86.5243 75.6314 86.8063 75.5434 86.8063 74.8204V71.8204C86.8063 70.9864 86.5483 70.9864 86.3763 70.9864C86.2325 70.995 86.0913 71.0288 85.9593 71.0864L85.8733 70.8784L87.5313 70.2034H87.8003V71.3794Z" fill="#00306B"/>
<path d="M94.7864 73.1344L94.2944 74.2764C94.1571 74.5326 94.0658 74.8108 94.0244 75.0984C94.0244 75.5524 94.5154 75.5984 94.9694 75.6384V75.8594H92.4164V75.6384C93.0554 75.5774 93.3164 75.2574 93.6814 74.3984L96.6024 67.5494H96.8234L99.5854 74.1774C99.8914 74.9144 100.125 75.6014 101.034 75.6384V75.8594H97.8294V75.6384C98.3574 75.6134 98.6644 75.5154 98.6644 75.0854C98.6151 74.7614 98.5159 74.447 98.3704 74.1534L97.9284 73.1344H94.7864ZM96.3864 69.4154L94.9694 72.6964H97.7694L96.3864 69.4154Z" fill="#00306B"/>
<path d="M106.815 70.5964C107.035 70.5964 107.072 70.6584 107.072 70.8544C107.072 71.0504 107.035 71.1244 106.815 71.1244H105.968C106.162 71.4587 106.264 71.8382 106.263 72.2244C106.254 72.4959 106.188 72.7624 106.07 73.0069C105.952 73.2514 105.783 73.4685 105.576 73.6442C105.369 73.8198 105.128 73.9503 104.867 74.0272C104.606 74.104 104.333 74.1256 104.063 74.0904C103.797 74.0863 103.533 74.0446 103.278 73.9664C103.16 74.047 103.059 74.1504 102.981 74.2706C102.903 74.3908 102.85 74.5254 102.824 74.6664C102.824 74.9614 103.093 75.0474 104.996 75.0594C106.42 75.0714 106.972 75.5374 106.972 76.4464C106.972 77.1954 105.917 78.5084 103.916 78.5084C103.069 78.5084 101.498 78.1774 101.498 77.3424C101.498 76.9494 102.05 76.3604 102.307 76.0904L102.615 75.7714C102.357 75.6614 102.015 75.4764 102.015 75.1574C102.015 74.6294 102.615 74.1754 102.985 73.8574C102.668 73.7137 102.4 73.4801 102.215 73.1855C102.029 72.891 101.934 72.5485 101.941 72.2004C101.947 71.9204 102.011 71.6445 102.127 71.3899C102.244 71.1352 102.412 70.9072 102.62 70.7198C102.828 70.5324 103.072 70.3897 103.338 70.3003C103.603 70.211 103.884 70.177 104.163 70.2004C104.636 70.1876 105.1 70.3249 105.489 70.5924L106.815 70.5964ZM102.383 76.9174C102.383 77.4174 103.23 77.7894 104.397 77.7894C105.919 77.7894 106.532 77.1384 106.532 76.5984C106.532 75.9984 105.574 75.9984 104.998 75.9984C104.301 76.0059 103.603 75.9611 102.912 75.8644C102.628 76.1503 102.442 76.5201 102.383 76.9194M102.983 71.9364C102.983 72.6974 103.241 73.8024 104.183 73.8024C105.214 73.8024 105.214 72.6244 105.214 72.3534C105.214 71.6054 104.932 70.5004 103.998 70.5004C103.656 70.5004 102.98 70.7214 102.98 71.9364" fill="#00306B"/>
<path d="M109.551 74.8164C109.551 75.5404 109.833 75.6264 110.397 75.6394V75.8594H107.709V75.6394C108.273 75.6264 108.556 75.5394 108.556 74.8164V71.8164C108.556 70.9824 108.298 70.9824 108.126 70.9824C107.983 70.9903 107.841 71.0242 107.709 71.0824L107.623 70.8734L109.28 70.1984H109.551V74.8164ZM109.051 67.3414C109.17 67.3414 109.286 67.3766 109.385 67.4425C109.483 67.5085 109.56 67.6022 109.606 67.7118C109.651 67.8215 109.663 67.9421 109.64 68.0585C109.617 68.1749 109.56 68.2818 109.476 68.3657C109.392 68.4496 109.285 68.5067 109.168 68.5299C109.052 68.5531 108.931 68.5412 108.822 68.4958C108.712 68.4503 108.618 68.3734 108.553 68.2748C108.487 68.1761 108.451 68.0601 108.451 67.9414C108.451 67.7823 108.515 67.6297 108.627 67.5172C108.74 67.4046 108.892 67.3414 109.051 67.3414Z" fill="#00306B"/>
<path d="M112.696 71.3555C113.382 70.5945 113.862 70.2015 114.561 70.2015C115.556 70.2015 115.948 71.1345 115.948 72.0545V74.8165C115.948 75.5405 116.229 75.6265 116.796 75.6395V75.8605H114.108V75.6395C114.672 75.6265 114.954 75.5395 114.954 74.8165V72.2755C114.954 71.0605 114.454 70.9375 114.082 70.9375C113.81 70.9665 113.546 71.0513 113.308 71.1865C113.069 71.3217 112.861 71.5045 112.696 71.7235V74.8165C112.696 75.5405 112.977 75.6265 113.542 75.6395V75.8605H110.851V75.6395C111.417 75.6265 111.698 75.5395 111.698 74.8165V71.8165C111.698 70.9825 111.441 70.9825 111.268 70.9825C111.125 70.9911 110.983 71.0249 110.851 71.0825L110.766 70.8735L112.423 70.1985H112.693L112.696 71.3555Z" fill="#00306B"/>
<path d="M122.503 70.5964C122.725 70.5964 122.761 70.6584 122.761 70.8544C122.761 71.0504 122.725 71.1244 122.503 71.1244H121.651C121.848 71.4578 121.951 71.8376 121.951 72.2244C121.942 72.4959 121.876 72.7625 121.758 73.0071C121.64 73.2517 121.472 73.4688 121.265 73.6445C121.057 73.8203 120.816 73.9507 120.555 74.0275C120.295 74.1043 120.021 74.1257 119.751 74.0904C119.485 74.0862 119.22 74.0445 118.965 73.9664C118.847 74.047 118.746 74.1504 118.668 74.2706C118.59 74.3908 118.537 74.5254 118.511 74.6664C118.511 74.9614 118.782 75.0474 120.685 75.0594C122.108 75.0714 122.66 75.5374 122.66 76.4464C122.66 77.1954 121.606 78.5084 119.604 78.5084C118.757 78.5084 117.186 78.1774 117.186 77.3424C117.186 76.9494 117.738 76.3604 117.996 76.0904L118.303 75.7714C118.046 75.6614 117.703 75.4764 117.703 75.1574C117.703 74.6294 118.303 74.1754 118.673 73.8574C118.356 73.7137 118.088 73.4801 117.903 73.1855C117.717 72.891 117.622 72.5485 117.629 72.2004C117.635 71.9204 117.699 71.6445 117.815 71.3899C117.932 71.1352 118.1 70.9072 118.308 70.7198C118.516 70.5324 118.76 70.3897 119.026 70.3003C119.291 70.211 119.572 70.177 119.851 70.2004C120.323 70.1876 120.787 70.3249 121.176 70.5924L122.503 70.5964ZM118.072 76.9174C118.072 77.4174 118.919 77.7894 120.084 77.7894C121.608 77.7894 122.221 77.1384 122.221 76.5984C122.221 75.9984 121.263 75.9984 120.687 75.9984C119.989 76.0059 119.291 75.9611 118.599 75.8644C118.316 76.151 118.131 76.5206 118.072 76.9194M118.672 71.9364C118.672 72.6974 118.929 73.8024 119.872 73.8024C120.903 73.8024 120.903 72.6244 120.903 72.3534C120.903 71.6054 120.621 70.5004 119.688 70.5004C119.344 70.5004 118.67 70.7214 118.67 71.9364" fill="#00306B"/>
<path d="M16.0443 87.6115C16.0443 88.1645 16.0443 88.5565 16.3513 88.5565C16.5513 88.5565 16.8303 88.2375 16.9893 88.0785V88.4215C16.7073 88.7895 16.2283 89.3215 15.7133 89.3215C15.1983 89.3215 15.0503 88.8785 15.0503 88.4215C14.4983 88.8265 14.0683 89.3215 13.3203 89.3215C13.1362 89.3245 12.9536 89.2884 12.7846 89.2155C12.6155 89.1427 12.4639 89.0348 12.3396 88.8989C12.2154 88.7631 12.1215 88.6024 12.064 88.4275C12.0065 88.2526 11.9869 88.0675 12.0063 87.8845C12.0063 86.5105 14.0443 86.0185 15.0503 85.5775C15.0503 84.6565 14.9893 83.8585 14.0443 83.8585C13.9419 83.8484 13.8386 83.8595 13.7407 83.8911C13.6428 83.9227 13.5524 83.9741 13.4752 84.0421C13.398 84.1101 13.3356 84.1933 13.292 84.2864C13.2483 84.3795 13.2242 84.4807 13.2213 84.5835C13.2213 85.1715 13.0983 85.4545 12.7213 85.4545C12.3773 85.4545 12.2213 85.1845 12.2213 84.8655C12.2213 84.5465 12.5773 83.4905 14.2463 83.4905C16.0463 83.4905 16.0463 84.6315 16.0463 84.9755L16.0443 87.6115ZM15.0513 85.9305C14.2293 86.2615 13.0013 86.6915 13.0013 87.6245C12.9847 87.8732 13.0671 88.1185 13.2304 88.3068C13.3937 88.4952 13.6247 88.6115 13.8733 88.6305C14.3151 88.5468 14.7238 88.3386 15.0513 88.0305V85.9305Z" fill="#00306B"/>
<path d="M19.0283 84.6414C19.7153 83.8804 20.1943 83.4874 20.8943 83.4874C21.8883 83.4874 22.2813 84.4204 22.2813 85.3414V88.1024C22.2813 88.8264 22.5633 88.9124 23.1283 88.9254V89.1464H20.4393V88.9254C21.0043 88.9124 21.2863 88.8254 21.2863 88.1024V85.5614C21.2863 84.3464 20.7863 84.2244 20.4153 84.2244C20.1427 84.2532 19.8788 84.3378 19.6402 84.4728C19.4016 84.6078 19.1934 84.7905 19.0283 85.0094V88.1024C19.0283 88.8264 19.3103 88.9124 19.8753 88.9254V89.1464H17.1873V88.9254C17.7513 88.9124 18.0343 88.8254 18.0343 88.1024V85.1074C18.0343 84.2734 17.7763 84.2734 17.6043 84.2734C17.4605 84.2818 17.3193 84.3157 17.1873 84.3734L17.1013 84.1644L18.7583 83.4894H19.0283V84.6414Z" fill="#00306B"/>
<path d="M27.4515 82.2484C27.4515 81.4134 27.1935 81.4134 27.0215 81.4134C26.8777 81.4224 26.7366 81.4562 26.6045 81.5134L26.5185 81.3044L28.1745 80.6304H28.4455V87.6964C28.4455 88.5314 28.7035 88.5314 28.8755 88.5314C29.0193 88.523 29.1605 88.4891 29.2925 88.4314L29.3785 88.6404L27.7215 89.3154H27.4515V88.5304C27.2518 88.7708 27.0027 88.9653 26.721 89.1008C26.4394 89.2363 26.1319 89.3095 25.8195 89.3154C25.1658 89.2484 24.5652 88.9255 24.1489 88.4172C23.7326 87.9088 23.5343 87.2564 23.5975 86.6024C23.5975 85.1424 24.6395 83.4854 26.2365 83.4854C26.4599 83.4773 26.6827 83.5144 26.8915 83.5945C27.1002 83.6746 27.2907 83.796 27.4515 83.9514V82.2484ZM27.4515 85.4274C27.489 85.05 27.3758 84.6731 27.1366 84.3788C26.8974 84.0845 26.5515 83.8967 26.1745 83.8564C25.7335 83.8564 24.7145 84.2564 24.7145 86.1764C24.7145 87.6764 25.4625 88.6554 26.3955 88.6554C26.6006 88.6432 26.8008 88.5877 26.9829 88.4923C27.1649 88.397 27.3246 88.2641 27.4515 88.1024V85.4274Z" fill="#00306B"/>
<path d="M33.7705 82.5794C33.7705 81.5484 33.7705 81.2414 32.6165 81.2414V81.0204H35.7595C36.9339 80.9187 38.113 81.1528 39.1595 81.6954C39.6872 82.0756 40.1125 82.5807 40.3973 83.1655C40.6821 83.7502 40.8175 84.3965 40.7915 85.0464C40.7915 87.2684 39.3435 89.1464 36.3975 89.1464H32.6165V88.9254C33.7705 88.9254 33.7705 88.6184 33.7705 87.5864V82.5794ZM34.9245 88.5444C35.3426 88.6463 35.7711 88.6996 36.2015 88.7034C38.3015 88.7034 39.4175 87.0474 39.4175 85.0834C39.4175 83.0704 38.2875 81.4624 36.1515 81.4624C35.7366 81.4635 35.3238 81.521 34.9245 81.6334V88.5444Z" fill="#00306B"/>
<path d="M43.5044 88.1024C43.5044 88.8264 43.7874 88.9124 44.3514 88.9254V89.1454H41.6634V88.9254C42.2284 88.9124 42.5104 88.8254 42.5104 88.1024V85.1074C42.5104 84.2734 42.2524 84.2734 42.0804 84.2734C41.9365 84.2815 41.7953 84.3153 41.6634 84.3734L41.5774 84.1644L43.2344 83.4894H43.5044V88.1024ZM43.0044 80.6274C43.1231 80.6274 43.2391 80.6626 43.3377 80.7286C43.4364 80.7945 43.5133 80.8882 43.5587 80.9978C43.6041 81.1075 43.616 81.2281 43.5929 81.3445C43.5697 81.4609 43.5126 81.5678 43.4287 81.6517C43.3447 81.7356 43.2378 81.7928 43.1214 81.8159C43.0051 81.8391 42.8844 81.8272 42.7748 81.7818C42.6651 81.7364 42.5714 81.6595 42.5055 81.5608C42.4396 81.4621 42.4044 81.3461 42.4044 81.2274C42.4044 81.0683 42.4676 80.9157 42.5801 80.8032C42.6927 80.6907 42.8453 80.6274 43.0044 80.6274Z" fill="#00306B"/>
<path d="M48.6233 85.3654H48.4023C48.2183 84.5434 47.8873 83.8555 46.9293 83.8555C46.8188 83.8424 46.7067 83.8515 46.5998 83.8823C46.4928 83.913 46.393 83.9648 46.3062 84.0345C46.2195 84.1042 46.1475 84.1905 46.0944 84.2884C46.0414 84.3862 46.0084 84.4937 45.9973 84.6045C45.9973 85.9425 49.0283 85.7704 49.0283 87.6724C48.996 88.1389 48.7805 88.5736 48.4288 88.8818C48.0772 89.1899 47.618 89.3466 47.1513 89.3175C46.7782 89.3038 46.4085 89.242 46.0513 89.1335C45.9519 89.1005 45.8488 89.08 45.7443 89.0725C45.6947 89.0692 45.6456 89.0833 45.6053 89.1123C45.5649 89.1413 45.536 89.1834 45.5233 89.2315H45.3023V87.2684H45.5233C45.555 87.7038 45.7423 88.1131 46.051 88.4218C46.3596 88.7304 46.769 88.9177 47.2043 88.9494C47.3223 88.9618 47.4415 88.9495 47.5545 88.9134C47.6674 88.8773 47.7717 88.8181 47.8606 88.7396C47.9495 88.6611 48.0212 88.565 48.0711 88.4574C48.1209 88.3498 48.1479 88.233 48.1503 88.1144C48.1503 86.6785 45.2893 86.8755 45.2893 85.1325C45.2825 84.9094 45.3225 84.6873 45.4067 84.4806C45.4908 84.2739 45.6173 84.087 45.778 83.9321C45.9387 83.7772 46.13 83.6576 46.3396 83.581C46.5493 83.5044 46.7726 83.4726 46.9953 83.4875C47.2343 83.4953 47.4705 83.5408 47.6953 83.6225C47.8427 83.673 47.9953 83.7066 48.1503 83.7225C48.3093 83.7225 48.3583 83.6224 48.4073 83.4894H48.6283L48.6233 85.3654Z" fill="#00306B"/>
<path d="M53.8893 87.6114C53.8893 88.1644 53.8893 88.5564 54.1963 88.5564C54.3963 88.5564 54.6753 88.2374 54.8343 88.0784V88.4214C54.5523 88.7894 54.0733 89.3214 53.5583 89.3214C53.0433 89.3214 52.8953 88.8784 52.8953 88.4214C52.3433 88.8264 51.9133 89.3214 51.1653 89.3214C50.981 89.3245 50.7981 89.2883 50.6288 89.2153C50.4595 89.1423 50.3077 89.0341 50.1835 88.8979C50.0592 88.7617 49.9653 88.6006 49.908 88.4254C49.8508 88.2501 49.8315 88.0647 49.8513 87.8814C49.8513 86.5074 51.8893 86.0154 52.8953 85.5744C52.8953 84.6534 52.8343 83.8554 51.8893 83.8554C51.787 83.8454 51.6836 83.8565 51.5857 83.8881C51.4878 83.9197 51.3974 83.9711 51.3203 84.0391C51.2431 84.1071 51.1807 84.1902 51.137 84.2833C51.0933 84.3765 51.0693 84.4776 51.0663 84.5804C51.0663 85.1684 50.9433 85.4514 50.5663 85.4514C50.2223 85.4514 50.0663 85.1814 50.0663 84.8624C50.0663 84.5434 50.4233 83.4874 52.0923 83.4874C53.8923 83.4874 53.8923 84.6284 53.8923 84.9724L53.8893 87.6114ZM52.8953 85.9304C52.0733 86.2614 50.8453 86.6914 50.8453 87.6244C50.8288 87.8732 50.9111 88.1184 51.0744 88.3068C51.2377 88.4952 51.4688 88.6115 51.7173 88.6304C52.1591 88.5467 52.5678 88.3386 52.8953 88.0304V85.9304Z" fill="#00306B"/>
<path d="M56.7744 84.6044H56.7994C56.968 84.2881 57.214 84.0198 57.5144 83.8244C57.8149 83.6291 58.16 83.5131 58.5174 83.4874C59.4504 83.4874 60.6044 84.3224 60.6044 86.1634C60.6298 86.5557 60.577 86.9492 60.449 87.321C60.321 87.6927 60.1204 88.0354 59.8589 88.3289C59.5973 88.6225 59.2801 88.8611 58.9255 89.031C58.5709 89.2008 58.1861 89.2985 57.7934 89.3184C57.0664 89.2976 56.3635 89.0531 55.7804 88.6184V82.2484C55.7804 81.4134 55.5224 81.4134 55.3504 81.4134C55.2066 81.4219 55.0654 81.4557 54.9334 81.5134L54.8474 81.3044L56.5044 80.6294H56.7744V84.6044ZM56.7744 88.2744C57.1085 88.6361 57.5716 88.8517 58.0634 88.8744C58.8124 88.8744 59.5634 88.0514 59.5634 86.5054C59.5634 85.3754 58.9994 84.3444 58.0044 84.3444C57.7671 84.3609 57.5357 84.4261 57.3246 84.5359C57.1135 84.6456 56.9273 84.7976 56.7774 84.9824L56.7744 88.2744Z" fill="#00306B"/>
<path d="M63.2803 88.1024C63.2803 88.8264 63.5633 88.9124 64.1273 88.9254V89.1454H61.4393V88.9254C62.0043 88.9124 62.2863 88.8254 62.2863 88.1024V85.1074C62.2863 84.2734 62.0283 84.2734 61.8563 84.2734C61.7124 84.2815 61.5711 84.3153 61.4393 84.3734L61.3533 84.1644L63.0103 83.4894H63.2803V88.1024ZM62.7803 80.6274C62.8989 80.6274 63.0149 80.6626 63.1136 80.7286C63.2123 80.7945 63.2892 80.8882 63.3346 80.9978C63.38 81.1075 63.3919 81.2281 63.3687 81.3445C63.3456 81.4609 63.2884 81.5678 63.2045 81.6517C63.1206 81.7356 63.0137 81.7928 62.8973 81.8159C62.7809 81.8391 62.6603 81.8272 62.5507 81.7818C62.441 81.7364 62.3473 81.6595 62.2814 81.5608C62.2155 81.4621 62.1803 81.3461 62.1803 81.2274C62.1803 81.0683 62.2435 80.9157 62.356 80.8032C62.4685 80.6907 62.6211 80.6274 62.7803 80.6274Z" fill="#00306B"/>
<path d="M66.6934 88.1024C66.6934 88.8264 66.9754 88.9124 67.5404 88.9254V89.1464H64.8514V88.9254C65.4154 88.9124 65.6984 88.8254 65.6984 88.1024V82.2484C65.6984 81.4134 65.4404 81.4134 65.2684 81.4134C65.1246 81.4218 64.9834 81.4556 64.8514 81.5134L64.7654 81.3044L66.4224 80.6294H66.6924L66.6934 88.1024Z" fill="#00306B"/>
<path d="M70.1055 88.1024C70.1055 88.8264 70.3895 88.9124 70.9525 88.9254V89.1454H68.2655V88.9254C68.8295 88.9124 69.1125 88.8254 69.1125 88.1024V85.1074C69.1125 84.2734 68.8535 84.2734 68.6825 84.2734C68.5386 84.2815 68.3973 84.3153 68.2655 84.3734L68.1785 84.1644L69.8365 83.4894H70.1055V88.1024ZM69.6055 80.6274C69.7241 80.6274 69.8401 80.6626 69.9388 80.7286C70.0375 80.7945 70.1144 80.8882 70.1598 80.9978C70.2052 81.1075 70.2171 81.2281 70.1939 81.3445C70.1708 81.4609 70.1136 81.5678 70.0297 81.6517C69.9458 81.7356 69.8389 81.7928 69.7225 81.8159C69.6061 81.8391 69.4855 81.8272 69.3759 81.7818C69.2662 81.7364 69.1725 81.6595 69.1066 81.5608C69.0407 81.4621 69.0055 81.3461 69.0055 81.2274C69.0055 81.0683 69.0687 80.9157 69.1812 80.8032C69.2937 80.6907 69.4463 80.6274 69.6055 80.6274Z" fill="#00306B"/>
<path d="M74.5014 83.6594V84.0964H73.2124V87.4724C73.2124 87.9724 73.2124 88.5274 73.7894 88.5274C73.9318 88.5157 74.0679 88.4632 74.1812 88.3761C74.2946 88.289 74.3804 88.1711 74.4284 88.0364H74.6734C74.5845 88.3524 74.4021 88.6341 74.15 88.8444C73.898 89.0547 73.5882 89.1837 73.2614 89.2144C72.8684 89.2144 72.2184 88.9574 72.2184 87.9014V84.0964H71.3594V83.8564C71.7605 83.6563 72.1159 83.3752 72.4031 83.031C72.6903 82.6868 72.9032 82.2869 73.0284 81.8564H73.2124V83.6564L74.5014 83.6594Z" fill="#00306B"/>
<path d="M75.7773 84.9235C75.5683 84.4695 75.2863 83.9414 74.7463 83.8804V83.6595H77.2993V83.8804C76.9193 83.8804 76.6373 83.9294 76.6373 84.3214C76.682 84.5834 76.7687 84.8363 76.8943 85.0704L78.1713 87.6964L79.3373 84.8125C79.4316 84.6165 79.4857 84.4036 79.4963 84.1864C79.4963 83.9044 79.2763 83.8794 78.9453 83.8794V83.6584H80.7363V83.8794C80.3443 83.8794 80.1363 84.1864 80.0003 84.5174L77.6513 90.2635C77.5278 90.6635 77.2929 91.0201 76.9742 91.2916C76.6554 91.5631 76.266 91.7382 75.8513 91.7964C75.752 91.8062 75.6517 91.7961 75.5564 91.7666C75.461 91.7372 75.3725 91.689 75.296 91.6249C75.2194 91.5609 75.1564 91.4822 75.1107 91.3935C75.0649 91.3049 75.0372 91.2079 75.0293 91.1085C75.0303 91.0304 75.0479 90.9535 75.0808 90.8827C75.1138 90.8119 75.1613 90.7489 75.2204 90.6979C75.2795 90.6469 75.3487 90.6089 75.4235 90.5866C75.4983 90.5643 75.577 90.5581 75.6543 90.5685C76.0603 90.5685 76.2543 90.7895 76.4653 90.7895C76.9563 90.7895 77.2133 90.1025 77.3653 89.7465L77.6963 88.9245L75.7773 84.9235Z" fill="#00306B"/>
<path d="M89.5265 83.6474H89.3055C89.3097 83.3452 89.2543 83.0451 89.1425 82.7643C89.0307 82.4835 88.8646 82.2275 88.6538 82.011C88.443 81.7944 88.1915 81.6215 87.9139 81.5021C87.6362 81.3828 87.3377 81.3194 87.0355 81.3154C86.6825 81.3033 86.3385 81.4281 86.0754 81.6636C85.8123 81.8992 85.6503 82.2273 85.6235 82.5794C85.6235 84.2854 90.0655 84.5794 90.0655 86.9854C90.0608 87.3109 89.9896 87.6319 89.8562 87.9288C89.7228 88.2257 89.5302 88.4921 89.29 88.7118C89.0498 88.9314 88.7673 89.0996 88.4597 89.206C88.1521 89.3124 87.826 89.3548 87.5015 89.3304C87.0609 89.3354 86.6234 89.2563 86.2125 89.0974C85.9361 88.977 85.6419 88.9023 85.3415 88.8764C85.0585 88.8764 84.9975 89.0854 84.9725 89.3304H84.7515V86.5444H84.9725C84.9759 86.8548 85.0412 87.1614 85.1646 87.4462C85.288 87.731 85.4669 87.9884 85.691 88.2032C85.915 88.4181 86.1797 88.586 86.4694 88.6973C86.7592 88.8086 87.0682 88.861 87.3785 88.8514C88.2005 88.8514 88.9985 88.4224 88.9985 87.5254C88.9985 85.6604 84.6785 85.4394 84.6785 83.0094C84.7113 82.404 84.9819 81.8361 85.4314 81.4291C85.8808 81.0222 86.4728 80.8092 87.0785 80.8364C87.4588 80.8393 87.8346 80.9189 88.1835 81.0704C88.4064 81.1761 88.6415 81.254 88.8835 81.3024C89.1785 81.3024 89.2515 81.0824 89.3005 80.8364H89.5215L89.5265 83.6474Z" fill="#00306B"/>
<path d="M91.9564 85.7335C91.9564 86.9615 92.5943 88.3335 93.9323 88.3335C94.3158 88.3375 94.6889 88.2091 94.9886 87.9699C95.2883 87.7307 95.4963 87.3953 95.5774 87.0205L95.7614 87.1435C95.7048 87.7128 95.448 88.2437 95.0367 88.6414C94.6254 89.0392 94.0863 89.278 93.5154 89.3155C93.1699 89.2962 92.8321 89.2068 92.5223 89.0528C92.2125 88.8988 91.9373 88.6834 91.7134 88.4198C91.4894 88.1561 91.3215 87.8496 91.2197 87.519C91.1179 87.1883 91.0845 86.8405 91.1214 86.4965C91.1214 84.9135 91.9214 83.4895 93.6634 83.4895C93.9534 83.4833 94.2416 83.5383 94.5089 83.651C94.7763 83.7637 95.0169 83.9314 95.2151 84.1434C95.4132 84.3553 95.5645 84.6066 95.659 84.881C95.7534 85.1553 95.789 85.4465 95.7634 85.7355L91.9564 85.7335ZM94.5094 85.3655C94.5094 84.6045 94.1294 83.9295 93.2574 83.9295C92.904 83.9694 92.5776 84.1377 92.3402 84.4025C92.1027 84.6672 91.9708 85.0099 91.9694 85.3655H94.5094Z" fill="#00306B"/>
<path d="M98.1443 84.6664H98.1683C98.4383 84.2244 98.9043 83.4884 99.5553 83.4884C99.7463 83.4801 99.9331 83.5456 100.077 83.6712C100.221 83.7968 100.312 83.973 100.329 84.1634C100.329 84.3057 100.274 84.4425 100.175 84.5453C100.077 84.648 99.9425 84.709 99.8003 84.7154C99.4083 84.7154 99.2003 84.3104 98.9303 84.3104C98.6603 84.3104 98.2543 84.9974 98.1443 85.2304V87.5384C98.1443 88.5324 98.1443 88.9254 99.1623 88.9254V89.1464H96.3023V88.9254C96.8673 88.9134 97.1503 88.8254 97.1503 88.1024V85.1074C97.1503 84.2734 96.8923 84.2734 96.7203 84.2734C96.5762 84.2817 96.4346 84.3156 96.3023 84.3734L96.2163 84.1654L97.8733 83.4904H98.1443V84.6664Z" fill="#00306B"/>
<path d="M105.151 84.8254C105.253 84.6296 105.321 84.4179 105.351 84.1994C105.351 83.8924 105.081 83.8804 104.724 83.8804V83.6594H106.516V83.8804C106.016 83.8804 105.83 84.2984 105.645 84.7394L103.755 89.3184H103.509L101.62 84.8184C101.386 84.2654 101.251 83.9714 100.6 83.8854V83.6644H103.178V83.8854C102.785 83.8854 102.528 83.9344 102.528 84.3274C102.552 84.5414 102.614 84.7493 102.711 84.9414L103.927 87.8414L105.151 84.8254Z" fill="#00306B"/>
<path d="M108.883 88.1024C108.883 88.8264 109.167 88.9124 109.73 88.9254V89.1454H107.043V88.9254C107.606 88.9124 107.89 88.8254 107.89 88.1024V85.1074C107.89 84.2734 107.632 84.2734 107.461 84.2734C107.317 84.2814 107.176 84.3152 107.043 84.3734L106.956 84.1644L108.614 83.4894H108.883V88.1024ZM108.383 80.6274C108.502 80.6274 108.618 80.6626 108.717 80.7286C108.815 80.7945 108.892 80.8882 108.938 80.9978C108.983 81.1075 108.995 81.2281 108.972 81.3445C108.949 81.4609 108.892 81.5678 108.808 81.6517C108.724 81.7356 108.617 81.7928 108.5 81.8159C108.384 81.8391 108.263 81.8272 108.154 81.7818C108.044 81.7364 107.95 81.6595 107.885 81.5608C107.819 81.4621 107.783 81.3461 107.783 81.2274C107.783 81.0683 107.847 80.9157 107.959 80.8032C108.072 80.6907 108.224 80.6274 108.383 80.6274Z" fill="#00306B"/>
<path d="M115.083 87.0594C115.024 87.6423 114.764 88.1863 114.347 88.5984C113.931 89.0105 113.384 89.265 112.8 89.3184C111.413 89.3184 110.456 88.0654 110.456 86.3844C110.431 86.02 110.48 85.6542 110.6 85.3091C110.719 84.964 110.907 84.6465 111.152 84.3758C111.398 84.105 111.695 83.8865 112.027 83.7333C112.358 83.5802 112.717 83.4955 113.082 83.4844C113.807 83.4844 114.924 83.9634 114.924 84.8104C114.926 84.8799 114.912 84.9489 114.885 85.0128C114.857 85.0768 114.817 85.1342 114.766 85.1814C114.715 85.2286 114.654 85.2645 114.588 85.2867C114.522 85.3089 114.453 85.317 114.383 85.3104C113.883 85.3104 113.745 85.0524 113.695 84.6104C113.695 84.5084 113.674 84.4076 113.632 84.3146C113.59 84.2217 113.529 84.1388 113.452 84.0715C113.375 84.0042 113.285 83.954 113.188 83.9243C113.09 83.8946 112.987 83.8861 112.886 83.8994C111.83 83.8994 111.413 84.9664 111.413 85.8754C111.413 86.9304 111.953 88.3754 113.204 88.3754C113.602 88.3531 113.983 88.204 114.29 87.9499C114.597 87.6958 114.815 87.3501 114.911 86.9634L115.083 87.0594Z" fill="#00306B"/>
<path d="M116.74 85.7335C116.74 86.9615 117.379 88.3335 118.716 88.3335C119.1 88.3375 119.473 88.2091 119.773 87.9699C120.072 87.7306 120.28 87.3953 120.361 87.0205L120.545 87.1435C120.489 87.7128 120.232 88.2436 119.821 88.6414C119.409 89.0391 118.87 89.278 118.299 89.3155C117.954 89.2962 117.615 89.2067 117.305 89.0525C116.995 88.8982 116.72 88.6825 116.496 88.4183C116.272 88.1542 116.104 87.8473 116.002 87.5161C115.901 87.185 115.868 86.8367 115.905 86.4925C115.905 84.9095 116.705 83.4855 118.447 83.4855C118.737 83.4793 119.026 83.5343 119.293 83.647C119.56 83.7596 119.801 83.9274 119.999 84.1393C120.197 84.3513 120.348 84.6026 120.443 84.8769C120.537 85.1513 120.573 85.4425 120.547 85.7315L116.74 85.7335ZM119.293 85.3655C119.293 84.6045 118.912 83.9295 118.041 83.9295C117.688 83.9692 117.361 84.1374 117.124 84.4022C116.886 84.667 116.755 85.0098 116.753 85.3655H119.293Z" fill="#00306B"/>
<path d="M124.903 85.3655H124.682C124.498 84.5435 124.167 83.8555 123.209 83.8555C123.099 83.8424 122.987 83.8515 122.88 83.8823C122.773 83.913 122.673 83.9647 122.586 84.0344C122.499 84.1041 122.427 84.1905 122.374 84.2883C122.321 84.3862 122.287 84.4937 122.276 84.6045C122.276 85.9425 125.308 85.7705 125.308 87.6725C125.276 88.1392 125.06 88.574 124.708 88.8822C124.356 89.1904 123.896 89.3468 123.429 89.3175C123.056 89.3036 122.687 89.2417 122.329 89.1335C122.23 89.1004 122.127 89.0799 122.023 89.0725C121.974 89.0689 121.924 89.0829 121.884 89.1119C121.843 89.141 121.814 89.1832 121.801 89.2315H121.58V87.2685H121.801C121.833 87.7039 122.021 88.1133 122.33 88.4219C122.638 88.7305 123.048 88.9177 123.483 88.9495C123.601 88.9618 123.72 88.9495 123.833 88.9134C123.946 88.8773 124.05 88.818 124.139 88.7395C124.228 88.661 124.299 88.5649 124.349 88.4573C124.398 88.3497 124.425 88.2329 124.427 88.1145C124.427 86.6785 121.569 86.8755 121.569 85.1325C121.562 84.9092 121.601 84.6868 121.685 84.4797C121.768 84.2727 121.895 84.0855 122.056 83.9304C122.216 83.7753 122.408 83.6557 122.618 83.5794C122.828 83.5031 123.051 83.4718 123.274 83.4875C123.513 83.4952 123.75 83.5408 123.974 83.6225C124.121 83.6727 124.274 83.7062 124.428 83.7225C124.589 83.7225 124.637 83.6225 124.687 83.4895H124.908L124.903 85.3655Z" fill="#00306B"/>
</g>
</g>
<defs>
<clipPath id="clip0_260_2024">
<rect width="136.283" height="91.201" fill="white" transform="translate(0.651367 0.596436)"/>
</clipPath>
</defs>
</svg>
