<svg width="28" height="29" viewBox="0 0 28 29" fill="none" xmlns="http://www.w3.org/2000/svg">
<path fill-rule="evenodd" clip-rule="evenodd" d="M9.34484 21.5681C9.2808 21.4171 9.17794 21.2858 9.04672 21.1875L9.03734 21.1809C8.05894 20.4236 7.26766 19.4516 6.72458 18.3399C6.18149 17.2282 5.90114 16.0066 5.90516 14.7694C5.90516 10.2412 9.58109 6.56435 14.1102 6.56435C18.6392 6.56435 22.3152 10.2403 22.3152 14.7694C22.3158 16.0053 22.0368 17.2253 21.4993 18.3382C20.9618 19.4511 20.1795 20.428 19.2111 21.1959L19.1905 21.2109C19.067 21.304 18.9693 21.4269 18.9064 21.5681H9.34484ZM10.6339 16.1353L12.5089 18.0103C12.6023 18.1032 12.7141 18.1755 12.8372 18.2224C12.9602 18.2693 13.0918 18.2899 13.2233 18.2827C13.3548 18.2755 13.4834 18.2408 13.6006 18.1808C13.7179 18.1208 13.8212 18.0368 13.9039 17.9344L17.6558 13.2459C17.8113 13.0517 17.8833 12.8037 17.856 12.5564C17.8286 12.3091 17.7042 12.0828 17.51 11.9273C17.3158 11.7718 17.0678 11.6998 16.8205 11.7271C16.5732 11.7545 16.3469 11.8789 16.1914 12.0731L13.0948 15.945L11.9605 14.8097C11.7824 14.6452 11.5476 14.556 11.3053 14.5607C11.0629 14.5655 10.8318 14.6638 10.6603 14.8352C10.4889 15.0065 10.3903 15.2376 10.3854 15.4799C10.3805 15.7223 10.4695 15.9571 10.6339 16.1353ZM18.8033 23.4431C18.7986 24.0665 18.7986 24.7275 18.7986 25.319C18.7976 26.0648 18.5008 26.7798 17.9734 27.307C17.446 27.8343 16.7309 28.1308 15.9852 28.1315H12.2352C11.4891 28.1315 10.7737 27.8353 10.2461 27.3078C9.71849 26.7804 9.42197 26.065 9.42172 25.319V23.4431H18.8033ZM13.1727 1.87592C13.1727 1.62727 13.2714 1.38882 13.4472 1.213C13.6231 1.03719 13.8615 0.938416 14.1102 0.938416C14.3588 0.938416 14.5973 1.03719 14.7731 1.213C14.9489 1.38882 15.0477 1.62727 15.0477 1.87592V3.75092C15.0477 3.99956 14.9489 4.23801 14.7731 4.41383C14.5973 4.58964 14.3588 4.68842 14.1102 4.68842C13.8615 4.68842 13.6231 4.58964 13.4472 4.41383C13.2714 4.23801 13.1727 3.99956 13.1727 3.75092V1.87592ZM24.4255 15.9422C24.1766 15.9422 23.9379 15.8433 23.7619 15.6673C23.5859 15.4913 23.487 15.2526 23.487 15.0037C23.487 14.7548 23.5859 14.5161 23.7619 14.3402C23.9379 14.1642 24.1766 14.0653 24.4255 14.0653H26.3014C26.5503 14.0653 26.789 14.1642 26.965 14.3402C27.141 14.5161 27.2398 14.7548 27.2398 15.0037C27.2398 15.2526 27.141 15.4913 26.965 15.6673C26.789 15.8433 26.5503 15.9422 26.3014 15.9422H24.4255ZM1.91891 15.9422C1.67002 15.9422 1.43132 15.8433 1.25533 15.6673C1.07934 15.4913 0.980469 15.2526 0.980469 15.0037C0.980469 14.7548 1.07934 14.5161 1.25533 14.3402C1.43132 14.1642 1.67002 14.0653 1.91891 14.0653H3.79484C4.04373 14.0653 4.28243 14.1642 4.45842 14.3402C4.63441 14.5161 4.73328 14.7548 4.73328 15.0037C4.73328 15.2526 4.63441 15.4913 4.45842 15.6673C4.28243 15.8433 4.04373 15.9422 3.79484 15.9422H1.91891ZM23.488 4.30029C23.6661 4.13592 23.901 4.04688 24.1434 4.0518C24.3857 4.05672 24.6168 4.15524 24.7881 4.3267C24.9594 4.49817 25.0578 4.72929 25.0625 4.97165C25.0673 5.214 24.9781 5.4488 24.8136 5.62685L23.488 6.95154C23.401 7.03864 23.2977 7.10776 23.184 7.15495C23.0703 7.20214 22.9484 7.22647 22.8254 7.22656C22.7023 7.22664 22.5803 7.20248 22.4666 7.15546C22.3528 7.10843 22.2494 7.03946 22.1623 6.95248C22.0752 6.8655 22.0061 6.76221 21.9589 6.64852C21.9117 6.53483 21.8874 6.41296 21.8873 6.28986C21.8872 6.16676 21.9114 6.04486 21.9584 5.9311C22.0055 5.81734 22.0744 5.71396 22.1614 5.62685L23.488 4.30029ZM3.40672 5.62685C3.24223 5.4488 3.15301 5.214 3.15776 4.97165C3.16252 4.72929 3.26087 4.49817 3.43221 4.3267C3.60356 4.15524 3.83461 4.05672 4.07696 4.0518C4.31932 4.04688 4.55418 4.13592 4.73234 4.30029L6.05984 5.62685C6.14932 5.7134 6.22067 5.8169 6.26972 5.93131C6.31877 6.04572 6.34454 6.16876 6.34554 6.29324C6.34653 6.41772 6.32272 6.54115 6.2755 6.65633C6.22828 6.77151 6.15859 6.87614 6.07051 6.9641C5.98242 7.05206 5.8777 7.1216 5.76245 7.16865C5.64721 7.21571 5.52374 7.23934 5.39926 7.23817C5.27478 7.23701 5.15178 7.21106 5.03744 7.16185C4.9231 7.11263 4.8197 7.04114 4.73328 6.95154L3.40672 5.62685Z" fill="#30336E"/>
</svg>
