<svg width="170" height="39" viewBox="0 0 170 39" fill="none" xmlns="http://www.w3.org/2000/svg">
<path d="M115.781 31.945C115.972 32.283 116.18 32.5777 116.405 32.829C116.639 33.0803 116.895 33.2753 117.172 33.414C117.449 33.5527 117.748 33.622 118.069 33.622C118.442 33.622 118.745 33.5267 118.979 33.336C119.213 33.1453 119.33 32.8853 119.33 32.556C119.33 32.27 119.256 32.0403 119.109 31.867C118.97 31.6937 118.758 31.542 118.472 31.412C118.195 31.2733 117.852 31.126 117.445 30.97C117.228 30.892 116.977 30.788 116.691 30.658C116.414 30.5193 116.149 30.346 115.898 30.138C115.647 29.9213 115.439 29.6613 115.274 29.358C115.109 29.046 115.027 28.6733 115.027 28.24C115.027 27.72 115.157 27.2737 115.417 26.901C115.686 26.5197 116.045 26.2293 116.496 26.03C116.955 25.822 117.467 25.718 118.03 25.718C118.611 25.718 119.109 25.8177 119.525 26.017C119.95 26.2077 120.301 26.4547 120.578 26.758C120.864 27.0527 121.085 27.3603 121.241 27.681L119.785 28.487C119.664 28.2703 119.516 28.0753 119.343 27.902C119.178 27.72 118.988 27.577 118.771 27.473C118.554 27.3603 118.307 27.304 118.03 27.304C117.666 27.304 117.393 27.3907 117.211 27.564C117.029 27.7287 116.938 27.9237 116.938 28.149C116.938 28.3743 117.012 28.5737 117.159 28.747C117.306 28.9117 117.532 29.072 117.835 29.228C118.138 29.3753 118.52 29.527 118.979 29.683C119.274 29.787 119.555 29.917 119.824 30.073C120.101 30.229 120.348 30.4197 120.565 30.645C120.79 30.8617 120.964 31.1217 121.085 31.425C121.215 31.7197 121.28 32.062 121.28 32.452C121.28 32.894 121.193 33.2883 121.02 33.635C120.847 33.9817 120.608 34.2763 120.305 34.519C120.002 34.753 119.659 34.9307 119.278 35.052C118.905 35.182 118.511 35.247 118.095 35.247C117.54 35.247 117.02 35.143 116.535 34.935C116.058 34.7183 115.642 34.428 115.287 34.064C114.932 33.7 114.654 33.3057 114.455 32.881L115.781 31.945ZM120.586 27.577V25.9H127.346V27.577H124.889V35H123.03V27.577H120.586ZM129.169 30.762H131.132L134.096 35H131.899L129.169 30.762ZM127.102 25.9H128.961V35H127.102V25.9ZM128.233 27.486V25.9H130.157C130.876 25.9 131.487 26.0213 131.99 26.264C132.493 26.5067 132.878 26.8447 133.147 27.278C133.416 27.7113 133.55 28.2183 133.55 28.799C133.55 29.371 133.416 29.878 133.147 30.32C132.878 30.7533 132.493 31.0913 131.99 31.334C131.487 31.5767 130.876 31.698 130.157 31.698H128.233V30.216H130.04C130.369 30.216 130.651 30.164 130.885 30.06C131.128 29.9473 131.314 29.7913 131.444 29.592C131.574 29.384 131.639 29.137 131.639 28.851C131.639 28.565 131.574 28.3223 131.444 28.123C131.314 27.915 131.128 27.759 130.885 27.655C130.651 27.5423 130.369 27.486 130.04 27.486H128.233ZM135.124 32.933L135.345 31.464H139.713L139.934 32.933H135.124ZM137.503 28.851L136.138 31.984L136.177 32.4L134.981 35H132.888L137.503 25.367L142.118 35H140.012L138.842 32.478L138.868 32.01L137.503 28.851ZM139.982 27.577V25.9H146.742V27.577H144.285V35H142.426V27.577H139.982ZM147.694 35V33.427H152.283V35H147.694ZM147.694 27.473V25.9H152.283V27.473H147.694ZM147.694 30.944V29.397H152.023V30.944H147.694ZM146.498 25.9H148.292V35H146.498V25.9ZM157.235 31.62V30.138H161.72C161.746 30.8313 161.664 31.4857 161.473 32.101C161.291 32.7163 161.001 33.2623 160.602 33.739C160.212 34.207 159.727 34.5753 159.146 34.844C158.565 35.1127 157.902 35.247 157.157 35.247C156.455 35.247 155.805 35.13 155.207 34.896C154.618 34.662 154.102 34.3327 153.66 33.908C153.227 33.4833 152.889 32.9763 152.646 32.387C152.412 31.7977 152.295 31.152 152.295 30.45C152.295 29.748 152.416 29.1067 152.659 28.526C152.91 27.9367 153.257 27.434 153.699 27.018C154.141 26.602 154.661 26.2813 155.259 26.056C155.857 25.8307 156.507 25.718 157.209 25.718C157.833 25.718 158.392 25.8047 158.886 25.978C159.389 26.1513 159.831 26.394 160.212 26.706C160.602 27.0093 160.936 27.3733 161.213 27.798L159.627 28.721C159.402 28.3223 159.085 28.0017 158.678 27.759C158.279 27.5077 157.79 27.382 157.209 27.382C156.663 27.382 156.165 27.5077 155.714 27.759C155.263 28.0017 154.904 28.3527 154.635 28.812C154.375 29.2713 154.245 29.8173 154.245 30.45C154.245 31.074 154.375 31.6243 154.635 32.101C154.895 32.569 155.246 32.933 155.688 33.193C156.139 33.453 156.646 33.583 157.209 33.583C157.582 33.583 157.915 33.5353 158.21 33.44C158.505 33.336 158.756 33.193 158.964 33.011C159.181 32.829 159.363 32.621 159.51 32.387C159.657 32.153 159.77 31.8973 159.848 31.62H157.235ZM166.601 25.9H168.72L165.587 31.23V35H163.702V31.243L160.569 25.9H162.688L164.638 29.566L166.601 25.9Z" fill="#7F9AD6" fill-opacity="0.968627"/>
<path d="M66.5837 24.7454C65.5261 24.8753 62.941 24.8753 61.8834 24.7454C47.9308 22.9951 47.9864 0.130423 64.1037 0.000545013C80.4745 -0.129333 80.5487 22.9951 66.5837 24.7454ZM62.4647 5.65951C55.7111 6.79131 55.7235 19.3276 64.0666 19.4822C73.4487 19.6554 73.393 3.82885 62.4647 5.65951Z" fill="#00306B"/>
<path d="M136.421 24.7454H131.387C117.063 21.5912 118.621 0.124212 133.941 0.000518366C148.642 -0.11699 150.949 19.7791 138.87 24.0156L136.427 24.7516L136.421 24.7454ZM132.308 5.65949C125.598 6.7851 125.505 19.3214 133.91 19.4822C143.317 19.6616 143.181 3.8412 132.308 5.65949Z" fill="#00306B"/>
<path d="M5.70845 0.959473H0V24.0839H5.70845V0.959473Z" fill="#00306B"/>
<path d="M77.102 0.959473L83.8185 16.4892L90.7454 1.00277L97.0847 1.11409L106.813 24.0839H100.771L93.7264 8.22646L87.3067 24.0468L80.9489 23.9355L71.2266 0.959473H77.102Z" fill="#7F9AD6" fill-opacity="0.968627"/>
<path d="M23.1621 15.1657V0.959473H28.8706V24.0839H23.3291C22.3767 24.0839 13.4151 10.7498 11.4112 9.54379V24.0839H6.20994L5.70898 23.5892V0.959473H11.5844L23.1683 15.1657H23.1621Z" fill="#00306B"/>
<path d="M163.75 15.1657V0.959473H169.458V24.0839H163.917L152.339 9.54997V23.5892L151.832 24.0839H146.631V0.959473H152.166L163.75 15.1657Z" fill="#00306B"/>
<path d="M45.9902 15.1657V0.959473H51.6987V24.0839H46.1572L34.9011 9.54997H34.4064C33.9302 9.59945 34.5734 9.96435 34.5734 10.0447V23.5892L34.0724 24.0839H28.8711V0.959473H34.4126L45.9964 15.1657H45.9902Z" fill="#00306B"/>
<path d="M115.784 0.959473V5.91339H108.394V24.0839H102.691V5.91339H94.9668V0.959473H115.784Z" fill="#00306B"/>
<path d="M121.494 0.959473H115.785V24.0839H121.494V0.959473Z" fill="#00306B"/>
</svg>
