<svg width="188" height="18" viewBox="0 0 188 18" fill="none" xmlns="http://www.w3.org/2000/svg">
<path d="M53.3953 17.3053C52.6826 17.3928 50.9404 17.3928 50.2276 17.3053C40.8248 16.1257 40.8623 0.716922 51.7239 0.629396C62.7564 0.541869 62.8064 16.1257 53.3953 17.3053ZM50.6194 4.44305C46.0681 5.20578 46.0764 13.6542 51.6989 13.7584C58.0217 13.8751 57.9842 3.20934 50.6194 4.44305Z" fill="#E6E6EE"/>
<path d="M114.026 17.3053H110.633C100.981 15.1796 102.031 0.712736 112.355 0.629378C122.262 0.550187 123.817 13.9584 115.677 16.8134L114.03 17.3094L114.026 17.3053ZM111.254 4.44303C106.732 5.20159 106.67 13.65 112.334 13.7583C118.673 13.8792 118.582 3.21766 111.254 4.44303Z" fill="#E6E6EE"/>
<path d="M163.8 17.3052C156.172 15.5172 156.118 2.90084 163.608 0.971091C167.163 0.0541465 171.86 1.58794 172.394 5.6225C172.477 6.26853 170.831 5.8559 170.385 5.92259C169.997 2.52573 165.1 1.60878 162.662 3.38015C159.752 5.49746 159.365 10.624 161.253 13.4624C163.929 17.4761 171.068 15.2963 170.585 10.4031H165.383V8.62341H172.623V17.0843C171.043 17.3844 171.06 16.1507 170.814 14.9962C170.497 14.3668 170.285 15.2712 170.143 15.413C169.13 16.4133 168.276 16.7759 166.971 17.3094H163.804L163.8 17.3052Z" fill="#E6E6EE"/>
<path d="M149.095 17.3051C146.365 16.9634 143.618 14.6001 143.664 11.7368L145.677 11.7576C145.519 16.3132 154.826 17.0092 154.513 12.5412C154.322 9.82787 150.495 9.77368 148.466 9.12349C146.936 8.63167 144.76 7.76474 144.389 6.01005C142.906 -1.06709 156.076 -1.02958 155.876 5.72663L153.851 5.71829C153.709 2.69654 150.504 2.12971 147.999 2.76323C146.202 3.21753 145.702 5.38486 147.061 6.49769C149.166 8.22322 154.843 7.55635 156.147 10.6906C157.452 13.8249 155.509 16.6341 152.254 17.3051C151.246 17.2176 150.066 17.426 149.087 17.3051H149.095Z" fill="#E6E6EE"/>
<path d="M3.847 1.27539H0V16.8593H3.847V1.27539Z" fill="#E6E6EE"/>
<path d="M64.1402 1.27539L68.6666 11.7411L73.3346 1.30457L77.6068 1.37959L84.1629 16.8593H80.0909L75.3436 6.17271L71.0173 16.8343L66.7326 16.7592L60.1807 1.27539H64.1402Z" fill="#8185FF"/>
<path d="M18.5514 10.8491V1.27539H22.3984V16.8593H18.664C18.0221 16.8593 11.9828 7.87322 10.6324 7.06047V16.8593H7.12715L6.78955 16.5258V1.27539H10.7491L18.5556 10.8491H18.5514Z" fill="#E6E6EE"/>
<path d="M134.841 10.8491V1.27539H138.688V16.8593H134.953L127.151 7.06464V16.5258L126.809 16.8593H123.304V1.27539H127.034L134.841 10.8491Z" fill="#E6E6EE"/>
<path d="M37.103 10.8491V1.27539H40.95V16.8593H37.2155L29.6299 7.06464H29.2965C28.9755 7.09799 29.409 7.34389 29.409 7.39808V16.5258L29.0714 16.8593H25.5662V1.27539H29.3006L37.1072 10.8491H37.103Z" fill="#E6E6EE"/>
<path d="M95.9289 1.27539V4.6139H90.9482V16.8593H87.1054V4.6139H81.8997V1.27539H95.9289Z" fill="#E6E6EE"/>
<path d="M177.604 10.4032V17.0844C176.92 17.0219 176.049 17.3345 175.565 16.751V1.05042H183.597C183.693 1.05042 185.181 1.63809 185.373 1.75063C188.273 3.43447 187.99 8.69439 184.681 9.91143C184.364 10.0281 182.918 10.4032 182.693 10.4032H177.604ZM177.604 2.83429V8.2901L177.941 8.62354H182.693C182.905 8.62354 184.397 8.02752 184.606 7.8358C185.614 6.90635 185.523 4.4306 184.51 3.49699C184.389 3.38445 183.439 2.83429 183.372 2.83429H177.604Z" fill="#E6E6EE"/>
<path d="M101.585 1.27539H97.7378V16.8593H101.585V1.27539Z" fill="#E6E6EE"/>
</svg>
