<svg width="148" height="31" viewBox="0 0 148 31" fill="none" xmlns="http://www.w3.org/2000/svg">
<path d="M53.3948 16.6762C52.6821 16.7638 50.9399 16.7638 50.2272 16.6762C40.8243 15.4967 40.8618 0.0878938 51.7234 0.000367291C62.7559 -0.0871592 62.806 15.4967 53.3948 16.6762ZM50.6189 3.81402C46.0676 4.57675 46.0759 13.0251 51.6984 13.1293C58.0212 13.246 57.9837 2.58031 50.6189 3.81402Z" fill="#00306B"/>
<path d="M114.026 16.6762H110.633C100.981 14.5506 102.031 0.0837079 112.355 0.000349333C122.262 -0.0788413 123.817 13.3294 115.677 16.1844L114.03 16.6804L114.026 16.6762ZM111.254 3.814C106.732 4.57257 106.67 13.021 112.334 13.1293C118.673 13.2502 118.582 2.58863 111.254 3.814Z" fill="#00306B"/>
<path d="M103.719 21.5653C103.673 21.1619 103.486 20.8494 103.156 20.6278C102.827 20.4034 102.412 20.2912 101.912 20.2912C101.554 20.2912 101.244 20.348 100.983 20.4616C100.722 20.5724 100.518 20.7259 100.374 20.9219C100.232 21.1151 100.161 21.3352 100.161 21.5824C100.161 21.7898 100.209 21.9687 100.305 22.1193C100.405 22.2699 100.534 22.3963 100.693 22.4986C100.855 22.598 101.028 22.6818 101.213 22.75C101.398 22.8153 101.575 22.8693 101.746 22.9119L102.598 23.1335C102.876 23.2017 103.162 23.294 103.455 23.4105C103.747 23.527 104.018 23.6804 104.268 23.8707C104.518 24.0611 104.72 24.2969 104.874 24.5781C105.03 24.8594 105.108 25.196 105.108 25.5881C105.108 26.0824 104.98 26.5213 104.724 26.9048C104.472 27.2884 104.104 27.5909 103.621 27.8125C103.141 28.0341 102.56 28.1449 101.878 28.1449C101.224 28.1449 100.659 28.0412 100.182 27.8338C99.7045 27.6264 99.331 27.3324 99.0611 26.9517C98.7912 26.5682 98.642 26.1136 98.6136 25.5881H99.9347C99.9602 25.9034 100.063 26.1662 100.241 26.3764C100.423 26.5838 100.655 26.7386 100.936 26.8409C101.22 26.9403 101.531 26.9901 101.869 26.9901C102.241 26.9901 102.572 26.9318 102.862 26.8153C103.155 26.696 103.385 26.5312 103.553 26.321C103.72 26.108 103.804 25.8594 103.804 25.5753C103.804 25.3168 103.73 25.1051 103.582 24.9403C103.438 24.7756 103.24 24.6392 102.99 24.5312C102.743 24.4233 102.463 24.3281 102.151 24.2457L101.119 23.9645C100.42 23.7741 99.8665 23.4943 99.4574 23.125C99.0511 22.7557 98.848 22.267 98.848 21.6591C98.848 21.1562 98.9844 20.7173 99.2571 20.3423C99.5298 19.9673 99.8991 19.6761 100.365 19.4688C100.831 19.2585 101.357 19.1534 101.942 19.1534C102.533 19.1534 103.054 19.2571 103.506 19.4645C103.96 19.6719 104.318 19.9574 104.58 20.321C104.841 20.6818 104.977 21.0966 104.989 21.5653H103.719ZM109.635 21.4545V22.4773H106.059V21.4545H109.635ZM107.018 19.8864H108.292V26.0781C108.292 26.3253 108.329 26.5114 108.403 26.6364C108.477 26.7585 108.572 26.8423 108.689 26.8878C108.808 26.9304 108.937 26.9517 109.076 26.9517C109.179 26.9517 109.268 26.9446 109.345 26.9304C109.422 26.9162 109.481 26.9048 109.524 26.8963L109.754 27.9489C109.68 27.9773 109.575 28.0057 109.439 28.0341C109.302 28.0653 109.132 28.0824 108.927 28.0852C108.592 28.0909 108.279 28.0312 107.99 27.9062C107.7 27.7812 107.466 27.5881 107.287 27.3267C107.108 27.0653 107.018 26.7372 107.018 26.3423V19.8864ZM111.044 28V21.4545H112.276V22.4943H112.344C112.463 22.142 112.673 21.8651 112.974 21.6634C113.278 21.4588 113.622 21.3565 114.006 21.3565C114.085 21.3565 114.179 21.3594 114.287 21.3651C114.398 21.3707 114.484 21.3778 114.547 21.3864V22.6051C114.496 22.5909 114.405 22.5753 114.274 22.5582C114.143 22.5384 114.013 22.5284 113.882 22.5284C113.581 22.5284 113.313 22.5923 113.077 22.7202C112.844 22.8452 112.659 23.0199 112.523 23.2443C112.386 23.4659 112.318 23.7187 112.318 24.0028V28H111.044ZM117.496 28.1449C117.081 28.1449 116.706 28.0682 116.371 27.9148C116.036 27.7585 115.77 27.5327 115.574 27.2372C115.381 26.9418 115.284 26.5795 115.284 26.1506C115.284 25.7812 115.355 25.4773 115.497 25.2386C115.639 25 115.831 24.8111 116.072 24.6719C116.314 24.5327 116.584 24.4276 116.882 24.3565C117.18 24.2855 117.484 24.2315 117.794 24.1946C118.186 24.1491 118.504 24.1122 118.749 24.0838C118.993 24.0526 119.17 24.0028 119.281 23.9347C119.392 23.8665 119.447 23.7557 119.447 23.6023V23.5724C119.447 23.2003 119.342 22.9119 119.132 22.7074C118.925 22.5028 118.615 22.4006 118.203 22.4006C117.774 22.4006 117.436 22.4957 117.189 22.6861C116.945 22.8736 116.776 23.0824 116.682 23.3125L115.484 23.0398C115.626 22.642 115.834 22.321 116.107 22.0767C116.382 21.8295 116.699 21.6506 117.057 21.5398C117.415 21.4261 117.791 21.3693 118.186 21.3693C118.447 21.3693 118.724 21.4006 119.017 21.4631C119.313 21.5227 119.588 21.6335 119.844 21.7955C120.102 21.9574 120.314 22.1889 120.479 22.4901C120.643 22.7884 120.726 23.1761 120.726 23.6534V28H119.482V27.1051H119.43C119.348 27.2699 119.224 27.4318 119.06 27.5909C118.895 27.75 118.683 27.8821 118.425 27.9872C118.166 28.0923 117.857 28.1449 117.496 28.1449ZM117.773 27.1222C118.125 27.1222 118.426 27.0526 118.676 26.9134C118.929 26.7741 119.121 26.5923 119.251 26.3679C119.385 26.1406 119.452 25.8977 119.452 25.6392V24.7955C119.406 24.8409 119.318 24.8835 119.188 24.9233C119.06 24.9602 118.913 24.9929 118.749 25.0213C118.584 25.0469 118.423 25.071 118.267 25.0938C118.111 25.1136 117.98 25.1307 117.875 25.1449C117.628 25.1761 117.402 25.2287 117.197 25.3026C116.996 25.3764 116.834 25.483 116.712 25.6222C116.592 25.7585 116.533 25.9403 116.533 26.1676C116.533 26.483 116.649 26.7216 116.882 26.8835C117.115 27.0426 117.412 27.1222 117.773 27.1222ZM125.478 21.4545V22.4773H121.903V21.4545H125.478ZM122.862 19.8864H124.136V26.0781C124.136 26.3253 124.173 26.5114 124.247 26.6364C124.321 26.7585 124.416 26.8423 124.532 26.8878C124.652 26.9304 124.781 26.9517 124.92 26.9517C125.022 26.9517 125.112 26.9446 125.189 26.9304C125.265 26.9162 125.325 26.9048 125.368 26.8963L125.598 27.9489C125.524 27.9773 125.419 28.0057 125.282 28.0341C125.146 28.0653 124.975 28.0824 124.771 28.0852C124.436 28.0909 124.123 28.0312 123.833 27.9062C123.544 27.7812 123.309 27.5881 123.13 27.3267C122.951 27.0653 122.862 26.7372 122.862 26.3423V19.8864ZM129.638 28.1321C128.994 28.1321 128.438 27.9943 127.972 27.7188C127.509 27.4403 127.151 27.0497 126.898 26.5469C126.648 26.0412 126.523 25.4489 126.523 24.7699C126.523 24.0994 126.648 23.5085 126.898 22.9972C127.151 22.4858 127.504 22.0866 127.955 21.7997C128.41 21.5128 128.941 21.3693 129.549 21.3693C129.918 21.3693 130.276 21.4304 130.623 21.5526C130.969 21.6747 131.281 21.8665 131.556 22.1278C131.832 22.3892 132.049 22.7287 132.208 23.1463C132.367 23.5611 132.447 24.0653 132.447 24.6591V25.1108H127.244V24.1562H131.198C131.198 23.821 131.13 23.5241 130.994 23.2656C130.857 23.0043 130.665 22.7983 130.418 22.6477C130.174 22.4972 129.887 22.4219 129.558 22.4219C129.2 22.4219 128.887 22.5099 128.62 22.6861C128.356 22.8594 128.151 23.0866 128.006 23.3679C127.864 23.6463 127.793 23.9489 127.793 24.2756V25.0213C127.793 25.4588 127.87 25.831 128.023 26.1378C128.18 26.4446 128.397 26.679 128.675 26.8409C128.954 27 129.279 27.0795 129.651 27.0795C129.893 27.0795 130.113 27.0455 130.312 26.9773C130.511 26.9062 130.683 26.8011 130.827 26.6619C130.972 26.5227 131.083 26.3509 131.16 26.1463L132.366 26.3636C132.269 26.7187 132.096 27.0298 131.846 27.2969C131.599 27.5611 131.288 27.767 130.913 27.9148C130.54 28.0597 130.116 28.1321 129.638 28.1321ZM136.605 30.5909C136.085 30.5909 135.637 30.5227 135.262 30.3864C134.89 30.25 134.586 30.0696 134.35 29.8452C134.115 29.6207 133.939 29.375 133.822 29.108L134.917 28.6562C134.994 28.7812 135.096 28.9134 135.224 29.0526C135.355 29.1946 135.531 29.3153 135.752 29.4148C135.977 29.5142 136.265 29.5639 136.618 29.5639C137.1 29.5639 137.5 29.446 137.815 29.2102C138.13 28.9773 138.288 28.6051 138.288 28.0938V26.8068H138.207C138.13 26.946 138.02 27.1009 137.875 27.2713C137.733 27.4418 137.537 27.5895 137.287 27.7145C137.037 27.8395 136.711 27.902 136.311 27.902C135.794 27.902 135.328 27.7812 134.913 27.5398C134.501 27.2955 134.174 26.9361 133.933 26.4616C133.694 25.9844 133.575 25.3977 133.575 24.7017C133.575 24.0057 133.693 23.4091 133.929 22.9119C134.167 22.4148 134.494 22.0341 134.909 21.7699C135.324 21.5028 135.794 21.3693 136.319 21.3693C136.725 21.3693 137.054 21.4375 137.304 21.5739C137.554 21.7074 137.748 21.8636 137.887 22.0426C138.029 22.2216 138.139 22.3793 138.216 22.5156H138.309V21.4545H139.558V28.1449C139.558 28.7074 139.427 29.169 139.166 29.5298C138.904 29.8906 138.551 30.1577 138.105 30.331C137.662 30.5043 137.162 30.5909 136.605 30.5909ZM136.592 26.8452C136.958 26.8452 137.268 26.7599 137.521 26.5895C137.777 26.4162 137.97 26.169 138.1 25.848C138.234 25.5241 138.301 25.1364 138.301 24.6847C138.301 24.2443 138.235 23.8565 138.105 23.5213C137.974 23.1861 137.782 22.9247 137.529 22.7372C137.277 22.5469 136.964 22.4517 136.592 22.4517C136.208 22.4517 135.889 22.5511 135.633 22.75C135.377 22.946 135.184 23.2131 135.054 23.5511C134.926 23.8892 134.862 24.267 134.862 24.6847C134.862 25.1136 134.927 25.4901 135.058 25.8139C135.189 26.1378 135.382 26.3906 135.637 26.5724C135.896 26.7543 136.214 26.8452 136.592 26.8452ZM142.072 30.4545C141.882 30.4545 141.708 30.4389 141.552 30.4077C141.396 30.3793 141.279 30.348 141.203 30.3139L141.51 29.2699C141.743 29.3324 141.95 29.3594 142.132 29.3509C142.314 29.3423 142.474 29.2741 142.613 29.1463C142.755 29.0185 142.88 28.8097 142.988 28.5199L143.146 28.0852L140.751 21.4545H142.115L143.772 26.5341H143.841L145.498 21.4545H146.866L144.169 28.8736C144.044 29.2145 143.885 29.5028 143.691 29.7386C143.498 29.9773 143.268 30.1563 143.001 30.2756C142.734 30.3949 142.424 30.4545 142.072 30.4545Z" fill="#8185FF"/>
<path d="M3.847 0.646484H0V16.2304H3.847V0.646484Z" fill="#00306B"/>
<path d="M64.1412 0.646484L68.6675 11.1122L73.3356 0.67566L77.6077 0.750683L84.1639 16.2304H80.0918L75.3446 5.5438L71.0183 16.2054L66.7336 16.1303L60.1816 0.646484H64.1412Z" fill="#8185FF"/>
<path d="M18.551 10.2202V0.646484H22.398V16.2304H18.6635C18.0216 16.2304 11.9823 7.24431 10.6319 6.43157V16.2304H7.12666L6.78906 15.8969V0.646484H10.7486L18.5551 10.2202H18.551Z" fill="#00306B"/>
<path d="M134.842 10.2202V0.646484H138.689V16.2304H134.954L127.152 6.43574V15.8969L126.81 16.2304H123.305V0.646484H127.035L134.842 10.2202Z" fill="#00306B"/>
<path d="M37.1032 10.2202V0.646484H40.9502V16.2304H37.2158L29.6301 6.43574H29.2967C28.9758 6.46908 29.4092 6.71499 29.4092 6.76917V15.8969L29.0716 16.2304H25.5664V0.646484H29.3009L37.1074 10.2202H37.1032Z" fill="#00306B"/>
<path d="M95.9296 0.646484V3.98499H90.949V16.2304H87.1061V3.98499H81.9004V0.646484H95.9296Z" fill="#00306B"/>
<path d="M101.585 0.646484H97.7383V16.2304H101.585V0.646484Z" fill="#00306B"/>
</svg>
