<svg width="406" height="49" viewBox="0 0 406 49" fill="none" xmlns="http://www.w3.org/2000/svg">
<path d="M156.276 48.8079C154.19 49.064 149.091 49.064 147.005 48.8079C119.485 45.3557 119.595 0.257247 151.385 0.00107498C183.674 -0.255097 183.821 45.3557 156.276 48.8079ZM148.152 11.1628C134.831 13.3952 134.855 38.1219 151.311 38.4268C169.817 38.7684 169.707 7.55204 148.152 11.1628Z" fill="#050950"/>
<path d="M333.731 48.8078H323.801C295.549 42.5865 298.623 0.244995 328.839 0.00102243C357.835 -0.230752 362.385 39.0123 338.561 47.3684L333.743 48.82L333.731 48.8078ZM325.619 11.1628C312.383 13.3829 312.2 38.1096 328.778 38.4268C347.332 38.7805 347.064 7.57638 325.619 11.1628Z" fill="#050950"/>
<path d="M11.2594 1.89209H0V47.5028H11.2594V1.89209Z" fill="#050950"/>
<path d="M187.722 1.89209L200.969 32.5229L214.632 1.97748L227.135 2.19706L246.324 47.5028H234.406L220.512 16.2255L207.849 47.4297L195.309 47.2101L176.133 1.89209H187.722Z" fill="#2951AC" fill-opacity="0.968627"/>
<path d="M54.2957 29.9124V1.89209H65.555V47.5028H54.625C52.7465 47.5028 35.0706 21.2026 31.1182 18.8238V47.5028H20.8592L19.8711 46.527V1.89209H31.4598L54.3079 29.9124H54.2957Z" fill="#050950"/>
<path d="M394.653 29.9124V1.89209H405.912V47.5028H394.982L372.146 18.836V46.527L371.146 47.5028H360.887V1.89209H371.805L394.653 29.9124Z" fill="#050950"/>
<path d="M108.594 29.9124V1.89209H119.853V47.5028H108.923L86.7218 18.836H85.7459C84.8066 18.9336 86.0753 19.6533 86.0753 19.8119V46.527L85.0872 47.5028H74.8281V1.89209H85.7581L108.606 29.9124H108.594Z" fill="#050950"/>
<path d="M280.766 1.89209V11.6632H266.188V47.5028H254.941V11.6632H239.705V1.89209H280.766Z" fill="#050950"/>
<path d="M297.318 1.89209H286.059V47.5028H297.318V1.89209Z" fill="#050950"/>
</svg>
