<svg width="139" height="35" viewBox="0 0 139 35" fill="none" xmlns="http://www.w3.org/2000/svg">
<path d="M34.5376 24.6172C34.4912 24.183 34.2957 23.8449 33.951 23.603C33.6096 23.361 33.1655 23.2401 32.6186 23.2401C32.2341 23.2401 31.9044 23.2981 31.6293 23.4141C31.3542 23.5301 31.1437 23.6875 30.9979 23.8864C30.852 24.0852 30.7775 24.3123 30.7741 24.5675C30.7741 24.7796 30.8222 24.9635 30.9183 25.1193C31.0178 25.2751 31.152 25.4077 31.321 25.517C31.4901 25.6231 31.6773 25.7126 31.8828 25.7855C32.0883 25.8584 32.2955 25.9197 32.5043 25.9695L33.4588 26.2081C33.8433 26.2976 34.2128 26.4186 34.5675 26.571C34.9254 26.7235 35.2453 26.9157 35.527 27.1477C35.812 27.3797 36.0374 27.6598 36.2031 27.9879C36.3688 28.3161 36.4517 28.7005 36.4517 29.1413C36.4517 29.7379 36.2992 30.2633 35.9943 30.7173C35.6894 31.1681 35.2486 31.5211 34.6719 31.7763C34.0985 32.0282 33.4041 32.1541 32.5888 32.1541C31.7966 32.1541 31.1089 32.0315 30.5256 31.7862C29.9455 31.541 29.4915 31.183 29.1634 30.7124C28.8385 30.2417 28.6629 29.6683 28.6364 28.9922H30.451C30.4775 29.3468 30.5869 29.6418 30.7791 29.8771C30.9714 30.1125 31.2216 30.2881 31.5298 30.4041C31.8414 30.5201 32.1894 30.5781 32.5739 30.5781C32.9749 30.5781 33.3262 30.5185 33.6278 30.3991C33.9328 30.2765 34.1714 30.1075 34.3438 29.892C34.5161 29.6733 34.6039 29.4181 34.6072 29.1264C34.6039 28.8613 34.526 28.6425 34.3736 28.4702C34.2211 28.2945 34.0073 28.1487 33.7322 28.0327C33.4605 27.9134 33.1423 27.8073 32.7777 27.7145L31.6193 27.4162C30.7808 27.2008 30.1179 26.8743 29.6307 26.4368C29.1468 25.996 28.9048 25.411 28.9048 24.6818C28.9048 24.0819 29.0672 23.5566 29.392 23.1058C29.7202 22.6551 30.166 22.3054 30.7294 22.0568C31.2929 21.8049 31.9309 21.679 32.6435 21.679C33.366 21.679 33.9991 21.8049 34.5426 22.0568C35.0895 22.3054 35.5187 22.6518 35.8303 23.0959C36.1418 23.5367 36.3026 24.0438 36.3125 24.6172H34.5376ZM38.9086 23.3643V21.8182H47.0322V23.3643H43.8852V32H42.0556V23.3643H38.9086ZM49.8582 32V21.8182H53.6764C54.4586 21.8182 55.1149 21.9541 55.6452 22.2259C56.1788 22.4976 56.5815 22.8788 56.8533 23.3693C57.1284 23.8565 57.2659 24.425 57.2659 25.0746C57.2659 25.7275 57.1267 26.2943 56.8483 26.7749C56.5732 27.2521 56.1672 27.6217 55.6303 27.8835C55.0933 28.142 54.4338 28.2713 53.6516 28.2713H50.9321V26.7401H53.403C53.8604 26.7401 54.2349 26.6771 54.5266 26.5511C54.8182 26.4219 55.0337 26.2346 55.1729 25.9893C55.3154 25.7408 55.3867 25.4358 55.3867 25.0746C55.3867 24.7133 55.3154 24.4051 55.1729 24.1499C55.0304 23.8913 54.8133 23.6958 54.5216 23.5632C54.2299 23.4273 53.8537 23.3594 53.393 23.3594H51.7027V32H49.8582ZM55.1182 27.3864L57.6388 32H55.5805L53.1047 27.3864H55.1182ZM61.5312 32H59.5625L63.147 21.8182H65.424L69.0135 32H67.0447L64.3253 23.9062H64.2457L61.5312 32ZM61.5959 28.0078H66.9652V29.4893H61.5959V28.0078ZM69.9367 23.3643V21.8182H78.0602V23.3643H74.9132V32H73.0837V23.3643H69.9367ZM80.8863 32V21.8182H87.5085V23.3643H82.7308V26.1286H87.1654V27.6747H82.7308V30.4538H87.5482V32H80.8863ZM97.4712 25.0696C97.3884 24.8011 97.274 24.5608 97.1282 24.3487C96.9857 24.1333 96.8133 23.9493 96.6111 23.7969C96.4123 23.6444 96.1836 23.5301 95.9251 23.4538C95.6665 23.3743 95.3848 23.3345 95.0799 23.3345C94.533 23.3345 94.0458 23.4721 93.6182 23.7472C93.1907 24.0223 92.8543 24.4266 92.609 24.9602C92.3671 25.4905 92.2461 26.1368 92.2461 26.8991C92.2461 27.6681 92.3671 28.3194 92.609 28.853C92.851 29.3866 93.1874 29.7926 93.6182 30.071C94.0491 30.3461 94.5496 30.4837 95.1197 30.4837C95.6367 30.4837 96.0841 30.3842 96.462 30.1854C96.8431 29.9865 97.1365 29.7048 97.342 29.3402C97.5475 28.9723 97.6502 28.5414 97.6502 28.0476L98.0678 28.1122H95.3036V26.6705H99.435V27.8935C99.435 28.7652 99.2494 29.5192 98.8782 30.1555C98.507 30.7919 97.9966 31.2824 97.3469 31.6271C96.6973 31.9685 95.9516 32.1392 95.1097 32.1392C94.1717 32.1392 93.3481 31.9287 92.6388 31.5078C91.9329 31.0836 91.381 30.482 90.9833 29.7031C90.5889 28.9209 90.3917 27.9929 90.3917 26.919C90.3917 26.0971 90.5077 25.3629 90.7397 24.7166C90.975 24.0703 91.3031 23.5218 91.7241 23.071C92.145 22.617 92.6388 22.2723 93.2056 22.0369C93.7724 21.7983 94.3888 21.679 95.055 21.679C95.6185 21.679 96.1438 21.7618 96.631 21.9276C97.1182 22.09 97.5508 22.322 97.9286 22.6236C98.3098 22.9252 98.623 23.2831 98.8682 23.6974C99.1135 24.1117 99.2743 24.5691 99.3505 25.0696H97.4712ZM101.4 21.8182H103.483L105.974 26.3224H106.073L108.564 21.8182H110.647L106.943 28.2017V32H105.104V28.2017L101.4 21.8182Z" fill="#7F9AD6" fill-opacity="0.968627"/>
<path d="M53.3948 16.6762C52.6821 16.7638 50.9399 16.7638 50.2272 16.6762C40.8243 15.4967 40.8618 0.0878938 51.7234 0.000367291C62.7559 -0.0871592 62.806 15.4967 53.3948 16.6762ZM50.6189 3.81402C46.0676 4.57675 46.0759 13.0251 51.6984 13.1293C58.0212 13.246 57.9837 2.58031 50.6189 3.81402Z" fill="#00306B"/>
<path d="M114.026 16.6762H110.633C100.981 14.5506 102.031 0.0837079 112.355 0.000349333C122.262 -0.0788413 123.817 13.3294 115.677 16.1844L114.03 16.6804L114.026 16.6762ZM111.254 3.814C106.732 4.57257 106.67 13.021 112.334 13.1293C118.673 13.2502 118.582 2.58863 111.254 3.814Z" fill="#00306B"/>
<path d="M3.847 0.646484H0V16.2304H3.847V0.646484Z" fill="#00306B"/>
<path d="M64.1392 0.646484L68.6656 11.1122L73.3337 0.67566L77.6058 0.750683L84.1619 16.2304H80.0899L75.3426 5.5438L71.0163 16.2054L66.7317 16.1303L60.1797 0.646484H64.1392Z" fill="#7F9AD6" fill-opacity="0.968627"/>
<path d="M18.551 10.2202V0.646484H22.398V16.2304H18.6635C18.0216 16.2304 11.9823 7.24431 10.6319 6.43157V16.2304H7.12666L6.78906 15.8969V0.646484H10.7486L18.5551 10.2202H18.551Z" fill="#00306B"/>
<path d="M134.842 10.2202V0.646484H138.689V16.2304H134.954L127.152 6.43574V15.8969L126.81 16.2304H123.305V0.646484H127.035L134.842 10.2202Z" fill="#00306B"/>
<path d="M37.1032 10.2202V0.646484H40.9502V16.2304H37.2158L29.6301 6.43574H29.2967C28.9758 6.46908 29.4092 6.71499 29.4092 6.76917V15.8969L29.0716 16.2304H25.5664V0.646484H29.3009L37.1074 10.2202H37.1032Z" fill="#00306B"/>
<path d="M95.9296 0.646484V3.98499H90.949V16.2304H87.1061V3.98499H81.9004V0.646484H95.9296Z" fill="#00306B"/>
<path d="M101.585 0.646484H97.7383V16.2304H101.585V0.646484Z" fill="#00306B"/>
</svg>
