<svg width="61" height="61" viewBox="0 0 61 61" fill="none" xmlns="http://www.w3.org/2000/svg">
<rect x="1.38794" y="0.606995" width="59" height="59" rx="29.5" fill="#DFE8FF"/>
<rect x="1.38794" y="0.606995" width="59" height="59" rx="29.5" stroke="#486EC4"/>
<path d="M44.6282 38.8668C44.6282 39.1988 44.5061 39.4869 44.262 39.731C44.0178 39.9752 43.7297 40.0972 43.3977 40.0972H28.3977C28.0461 40.0972 27.7483 39.9752 27.5042 39.731C27.26 39.4869 27.1379 39.1988 27.1379 38.8668C27.1379 37.8316 27.3333 36.855 27.7239 35.9371C28.1145 35.0191 28.6516 34.2232 29.3352 33.5494C30.0188 32.8755 30.8098 32.3433 31.7083 31.9527C32.6262 31.5621 33.6028 31.3668 34.6379 31.3668H37.1282C38.1633 31.3668 39.1399 31.5621 40.0579 31.9527C40.9758 32.3433 41.7717 32.8755 42.4456 33.5494C43.1194 34.2232 43.6516 35.0191 44.0422 35.9371C44.4329 36.855 44.6282 37.8316 44.6282 38.8668ZM35.8977 20.1168C34.511 20.1168 33.3293 20.605 32.3528 21.5816C31.3762 22.5582 30.8879 23.73 30.8879 25.0972C30.8879 26.4839 31.3762 27.6656 32.3528 28.6422C33.3293 29.6187 34.511 30.107 35.8977 30.107C37.2649 30.107 38.4368 29.6187 39.4133 28.6422C40.3899 27.6656 40.8782 26.4839 40.8782 25.0972C40.8782 23.73 40.3899 22.5582 39.4133 21.5816C38.4368 20.605 37.2649 20.1168 35.8977 20.1168ZM24.6477 20.1168C23.261 20.1168 22.0793 20.605 21.1028 21.5816C20.1262 22.5582 19.6379 23.73 19.6379 25.0972C19.6379 26.4839 20.1262 27.6656 21.1028 28.6422C22.0793 29.6187 23.261 30.107 24.6477 30.107C26.0149 30.107 27.1868 29.6187 28.1633 28.6422C29.1399 27.6656 29.6282 26.4839 29.6282 25.0972C29.6282 23.73 29.1399 22.5582 28.1633 21.5816C27.1868 20.605 26.0149 20.1168 24.6477 20.1168ZM24.6477 38.8668C24.6477 38.8668 24.6477 38.8619 24.6477 38.8521C24.6477 38.8423 24.6477 38.8375 24.6477 38.8375C24.6477 37.4703 24.9065 36.1812 25.4241 34.9703C25.9417 33.7593 26.6594 32.7047 27.5774 31.8062C27.2258 31.6695 26.845 31.5621 26.4348 31.4839C26.0247 31.4058 25.6047 31.3668 25.175 31.3668H24.0911C23.134 31.3668 22.2356 31.5425 21.3958 31.8941C20.5364 32.2652 19.7942 32.7632 19.1692 33.3882C18.5442 34.0132 18.0461 34.7554 17.675 35.6148C17.3235 36.4547 17.1477 37.3531 17.1477 38.3101V38.8668C17.1477 39.1988 17.2698 39.4869 17.5139 39.731C17.7581 39.9752 18.0461 40.0972 18.3782 40.0972H24.8528C24.7942 39.9214 24.7454 39.7261 24.7063 39.5113C24.6672 39.2964 24.6477 39.0816 24.6477 38.8668Z" fill="#30336E"/>
</svg>
