<svg width="60" height="61" viewBox="0 0 60 61" fill="none" xmlns="http://www.w3.org/2000/svg">
<rect x="0.5" y="0.606995" width="59" height="59" rx="29.5" fill="#DFE8FF"/>
<rect x="0.5" y="0.606995" width="59" height="59" rx="29.5" stroke="#486EC4"/>
<path d="M39.9316 22.9293L38.6426 22.4019C38.6035 22.2457 38.5498 22.0894 38.4814 21.9332C38.4131 21.7769 38.3496 21.6402 38.291 21.523L38.877 20.2047C38.916 20.1265 38.9258 20.0435 38.9062 19.9556C38.8867 19.8678 38.8477 19.7847 38.7891 19.7066L37.3535 18.3004C37.2754 18.2222 37.1924 18.1734 37.1045 18.1539C37.0166 18.1344 36.9336 18.1441 36.8555 18.1832L35.5664 18.7398C35.4297 18.6617 35.2832 18.5933 35.127 18.5347C34.9707 18.4762 34.8145 18.4273 34.6582 18.3883L34.1309 17.0699C34.0527 16.9918 33.9697 16.9234 33.8818 16.8648C33.7939 16.8062 33.7109 16.7769 33.6328 16.7769H31.5527C31.4746 16.7769 31.3965 16.8014 31.3184 16.8502C31.2402 16.899 31.1914 16.9625 31.1719 17.0406L30.6152 18.3297C30.459 18.3687 30.3076 18.4224 30.1611 18.4908C30.0146 18.5592 29.873 18.6226 29.7363 18.6812L28.4473 18.1832C28.3496 18.1441 28.2568 18.1344 28.1689 18.1539C28.0811 18.1734 28.0078 18.2222 27.9492 18.3004L26.5137 19.7066C26.4355 19.7847 26.3867 19.8678 26.3672 19.9556C26.3477 20.0435 26.3672 20.1265 26.4258 20.2047L27.0117 21.523C26.9336 21.6402 26.8652 21.7769 26.8066 21.9332C26.748 22.0894 26.6895 22.2457 26.6309 22.4019L25.3125 22.9293C25.2148 22.9683 25.1416 23.0269 25.0928 23.1051C25.0439 23.1832 25.0195 23.2613 25.0195 23.3394V25.4195C25.0195 25.4976 25.0488 25.5758 25.1074 25.6539C25.166 25.732 25.2344 25.7808 25.3125 25.8004L26.6016 26.357C26.6406 26.5133 26.6943 26.6646 26.7627 26.8111C26.8311 26.9576 26.8945 27.0992 26.9531 27.2359L26.4258 28.5543C26.3672 28.6324 26.3477 28.7154 26.3672 28.8033C26.3867 28.8912 26.4355 28.9644 26.5137 29.023L27.9492 30.5172C28.0078 30.5758 28.0811 30.6148 28.1689 30.6344C28.2568 30.6539 28.3496 30.6441 28.4473 30.6051L29.7363 30.0191C29.8926 30.0777 30.0391 30.1412 30.1758 30.2096C30.3125 30.2779 30.459 30.3316 30.6152 30.3707L31.1719 31.6597C31.1914 31.7574 31.2402 31.8306 31.3184 31.8795C31.3965 31.9283 31.4746 31.9527 31.5527 31.9527H33.6328C33.7109 31.9527 33.7891 31.9283 33.8672 31.8795C33.9453 31.8306 34.0039 31.7574 34.043 31.6597L34.5703 30.3707C34.7266 30.3316 34.8828 30.2779 35.0391 30.2096C35.1953 30.1412 35.332 30.0777 35.4492 30.0191L36.7676 30.5465C36.8457 30.6051 36.9287 30.6246 37.0166 30.6051C37.1045 30.5855 37.1875 30.5367 37.2656 30.4586L38.7012 28.9937C38.7598 28.9156 38.7988 28.8375 38.8184 28.7594C38.8379 28.6812 38.8281 28.5933 38.7891 28.4957L38.2031 27.2066C38.2617 27.0699 38.3252 26.9234 38.3936 26.7672C38.4619 26.6109 38.5156 26.4547 38.5547 26.2984L39.8438 25.7711C39.9414 25.7515 40.0098 25.7027 40.0488 25.6246C40.0879 25.5465 40.1074 25.4586 40.1074 25.3609V23.3101C40.166 23.232 40.1758 23.1637 40.1367 23.1051C40.0977 23.0465 40.0293 22.9879 39.9316 22.9293ZM32.6074 27.8219C31.6309 27.8219 30.8105 27.4849 30.1465 26.8111C29.4824 26.1373 29.1504 25.3219 29.1504 24.3648C29.1504 23.4273 29.4824 22.6217 30.1465 21.9478C30.8105 21.274 31.6309 20.9371 32.6074 20.9371C33.5449 20.9371 34.3506 21.274 35.0244 21.9478C35.6982 22.6217 36.0352 23.4273 36.0352 24.3648C36.0352 25.3414 35.7031 26.1617 35.0391 26.8258C34.375 27.4898 33.5645 27.8219 32.6074 27.8219ZM20.8594 31.7769C20.8594 31.8355 20.8594 32.3531 20.8594 33.3297C20.8594 34.3062 20.8594 35.3512 20.8594 36.4644C20.8594 37.5777 20.8594 38.5836 20.8594 39.482C20.8594 40.3609 20.8594 40.7418 20.8594 40.6246C20.8594 40.7613 20.8154 40.8687 20.7275 40.9469C20.6396 41.025 20.5371 41.064 20.4199 41.064H17.0215C16.8848 41.064 16.7725 41.0201 16.6846 40.9322C16.5967 40.8443 16.5527 40.7418 16.5527 40.6246V31.7769C16.5527 31.6402 16.6016 31.5279 16.6992 31.44C16.7969 31.3521 16.9043 31.3082 17.0215 31.3082H20.4199C20.5566 31.3082 20.6641 31.3521 20.7422 31.44C20.8203 31.5279 20.8594 31.6402 20.8594 31.7769ZM42.9492 36.1129L32.1387 42.8805C31.5918 43.232 30.9766 43.4176 30.293 43.4371C29.6094 43.4566 28.9746 43.3004 28.3887 42.9683L21.7676 39.2476V32.9195H22.7051C24.1113 32.9 25.3369 32.9488 26.3818 33.066C27.4268 33.1832 28.1445 33.6617 28.5352 34.5015C28.6328 34.7359 28.8086 34.9264 29.0625 35.0728C29.3164 35.2193 29.5801 35.2926 29.8535 35.2926H32.8125C33.0859 35.2926 33.3105 35.3853 33.4863 35.5709C33.6621 35.7564 33.75 35.9762 33.75 36.2301C33.75 36.484 33.6621 36.7037 33.4863 36.8892C33.3105 37.0748 33.0859 37.1676 32.8125 37.1676H27.5684C27.4512 37.1676 27.3486 37.2115 27.2607 37.2994C27.1729 37.3873 27.1289 37.4996 27.1289 37.6363C27.1289 37.773 27.1729 37.8805 27.2607 37.9586C27.3486 38.0367 27.4512 38.0758 27.5684 38.0758H32.8125C33.1836 38.0758 33.5156 37.983 33.8086 37.7974C34.1016 37.6119 34.3262 37.3629 34.4824 37.0504L42.0996 34.3551C42.3145 34.2769 42.5391 34.2672 42.7734 34.3258C43.0078 34.3844 43.1836 34.5308 43.3008 34.7652C43.4375 34.9801 43.4717 35.2242 43.4033 35.4976C43.335 35.7711 43.1836 35.9762 42.9492 36.1129Z" fill="#30336E"/>
</svg>
