<svg width="38" height="38" viewBox="0 0 38 38" fill="none" xmlns="http://www.w3.org/2000/svg">
<rect width="38" height="38" rx="19" fill="white" fill-opacity="0.1"/>
<path d="M18.9999 11.5C18.7266 11.5 18.5022 11.5879 18.3266 11.7637C18.1509 11.9395 18.0631 12.1641 18.0631 12.4375V12.9648C16.9702 13.1602 16.0822 13.6582 15.3991 14.459C14.6965 15.2598 14.3355 16.2266 14.3159 17.3594V18.3262C14.2964 19.6934 13.8671 20.9141 13.0279 21.9883L12.5887 22.5449C12.4131 22.7793 12.3838 23.0234 12.5009 23.2773C12.6375 23.5312 12.8522 23.668 13.145 23.6875H24.8548C25.1475 23.668 25.3622 23.5312 25.4988 23.2773C25.5964 23.0234 25.5671 22.7793 25.411 22.5449L24.9719 21.9883C24.1327 20.9141 23.7033 19.6934 23.6838 18.3262V17.3594C23.6643 16.2266 23.3032 15.2598 22.6006 14.459C21.9176 13.6582 21.0296 13.1602 19.9367 12.9648V12.4375C19.9367 12.1641 19.8488 11.9395 19.6732 11.7637C19.4975 11.5879 19.2731 11.5 18.9999 11.5ZM18.9999 14.3125H19.2341C20.0928 14.332 20.8149 14.625 21.4004 15.1914C21.9664 15.7773 22.2591 16.5 22.2786 17.3594V18.3262C22.2786 19.7715 22.669 21.0898 23.4496 22.2812H14.5501C15.3113 21.0898 15.7016 19.7715 15.7211 18.3262V17.3594C15.7406 16.5 16.0334 15.7773 16.5994 15.1914C17.1849 14.625 17.907 14.332 18.7657 14.3125H18.9999ZM20.8734 24.625H18.9999H17.1263C17.1263 25.1328 17.3117 25.5723 17.6825 25.9434C18.0533 26.3145 18.4924 26.5 18.9999 26.5C19.5073 26.5 19.9464 26.3145 20.3172 25.9434C20.688 25.5723 20.8734 25.1328 20.8734 24.625Z" fill="#86ABFF"/>
</svg>
