<svg width="49" height="50" viewBox="0 0 49 50" fill="none" xmlns="http://www.w3.org/2000/svg">
<rect y="0.631149" width="49.0069" height="49.0069" rx="24.5035" fill="#486EC4"/>
<path d="M33.078 19.1125C33.3173 19.3783 33.4369 19.6841 33.4369 20.0297C33.4369 20.3754 33.3173 20.6812 33.078 20.947L22.8682 31.1568C22.6023 31.3961 22.2966 31.5157 21.9509 31.5157C21.6053 31.5157 21.2995 31.3961 21.0336 31.1568L15.9288 26.0519C15.6895 25.786 15.5698 25.4803 15.5698 25.1346C15.5698 24.789 15.6895 24.4832 15.9288 24.2174C16.1946 23.9781 16.5004 23.8584 16.846 23.8584C17.1917 23.8584 17.4975 23.9781 17.7633 24.2174L21.9509 28.4448L31.2434 19.1125C31.5093 18.8732 31.8151 18.7535 32.1607 18.7535C32.5064 18.7535 32.8121 18.8732 33.078 19.1125Z" fill="white"/>
</svg>
