<svg width="66" height="66" viewBox="0 0 66 66" fill="none" xmlns="http://www.w3.org/2000/svg">
<rect x="0.5" y="1.03185" width="64.3426" height="64.3426" rx="32.1713" stroke="#A9A9A9"/>
<g clip-path="url(#clip0_260_1900)">
<path d="M25.2183 36.3672C25.2183 34.0406 23.3262 32.1484 20.9995 32.1484C18.6729 32.1484 16.7808 34.0406 16.7808 36.3672C16.7808 38.6938 18.6729 40.5859 20.9995 40.5859C23.3262 40.5859 25.2183 38.6938 25.2183 36.3672ZM36.8901 19.4219C36.8901 17.0952 34.998 15.2031 32.6714 15.2031C30.3447 15.2031 28.4526 17.0952 28.4526 19.4219C28.4526 21.7485 30.3447 23.6406 32.6714 23.6406C34.998 23.6406 36.8901 21.7485 36.8901 19.4219ZM48.562 36.3672C48.562 34.0406 46.6699 32.1484 44.3433 32.1484C42.0166 32.1484 40.1245 34.0406 40.1245 36.3672C40.1245 38.6938 42.0166 40.5859 44.3433 40.5859C46.6699 40.5859 48.562 38.6938 48.562 36.3672Z" fill="#30336E"/>
<path d="M50.6714 46.9141C50.6714 43.4245 47.8328 40.5859 44.3433 40.5859C42.5555 40.5859 40.9463 41.3377 39.7947 42.5336L33.7261 38.9341V34.2578H37.9448C38.5277 34.2578 38.9995 33.786 38.9995 33.2031V29.9688C38.9995 26.4792 36.1609 23.6406 32.6714 23.6406C29.1818 23.6406 26.3433 26.4792 26.3433 29.9688V33.2031C26.3433 33.786 26.8151 34.2578 27.3979 34.2578H31.6167V38.9339L25.5481 42.5335C24.3964 41.3377 22.7873 40.5859 20.9995 40.5859C17.51 40.5859 14.6714 43.4245 14.6714 46.9141V50.1484C14.6714 50.7313 15.1432 51.2031 15.7261 51.2031H26.2729C26.8558 51.2031 27.3276 50.7313 27.3276 50.1484V46.9141C27.3276 45.9717 27.1071 45.0851 26.736 44.2809L32.6714 40.7612L38.6067 44.281C38.236 45.0851 38.0151 45.9717 38.0151 46.9141V50.1484C38.0151 50.7313 38.4869 51.2031 39.0698 51.2031H49.6167C50.1996 51.2031 50.6714 50.7313 50.6714 50.1484V46.9141Z" fill="#30336E"/>
</g>
<defs>
<clipPath id="clip0_260_1900">
<rect width="36" height="36" fill="white" transform="translate(14.6714 15.2031)"/>
</clipPath>
</defs>
</svg>
