<svg width="38" height="38" viewBox="0 0 38 38" fill="none" xmlns="http://www.w3.org/2000/svg">
<rect width="38" height="38" rx="19" fill="#486EC4"/>
<path d="M11.5 19.125C11.1459 19.3542 10.9792 19.6667 11 20.0625C11.0417 20.4583 11.25 20.75 11.625 20.9375L16 22.75V25.9688C16 26.2604 16.1042 26.5 16.3125 26.6875C16.5 26.8958 16.7396 27 17.0313 27C17.3438 27 17.6042 26.875 17.8125 26.625L19.75 24.3125L23.625 25.9375C23.9375 26.0417 24.2292 26.0208 24.5 25.875C24.7709 25.7083 24.9375 25.4688 25 25.1562L27 12.1562C27.0417 11.7396 26.8959 11.4167 26.5625 11.1875C26.2292 10.9583 25.875 10.9375 25.5 11.125L11.5 19.125ZM13.125 19.9375L23.8125 13.8438L16.9375 21.5L16.9688 21.5312L13.125 19.9375ZM23.5938 24.2812L18.4063 22.125L25.0938 14.6562L23.5938 24.2812Z" fill="white"/>
</svg>
