<svg width="77" height="77" viewBox="0 0 77 77" fill="none" xmlns="http://www.w3.org/2000/svg">
<rect x="0.667969" y="0.382568" width="76.303" height="76.303" rx="38.1515" fill="white"/>
<path d="M25.4286 28.0137C24.7311 28.0602 24.3592 28.4322 24.3127 29.1297V30.6641L36.3787 40.568C37.1227 41.126 37.9364 41.405 38.8198 41.405C39.7498 41.405 40.5867 41.126 41.3307 40.568L53.327 30.6641V29.1297C53.2805 28.4322 52.9086 28.0602 52.2111 28.0137H25.4286ZM24.3127 34.9883V46.9847C24.3592 47.6821 24.7311 48.0541 25.4286 48.1006H52.2111C52.9086 48.0541 53.2805 47.6821 53.327 46.9847V34.9883L43.4231 43.1486C42.0282 44.2181 40.4937 44.7528 38.8198 44.7528C37.1459 44.7528 35.6115 44.2181 34.2166 43.1486L24.3127 34.9883ZM20.9648 29.1297C21.0113 27.8742 21.4531 26.8281 22.29 25.9911C23.127 25.1541 24.1732 24.7124 25.4286 24.6659H52.2111C53.4665 24.7124 54.5127 25.1541 55.3497 25.9911C56.1866 26.8281 56.6283 27.8742 56.6748 29.1297V46.9847C56.6283 48.2401 56.1866 49.2863 55.3497 50.1232C54.5127 50.9602 53.4665 51.4019 52.2111 51.4484H25.4286C24.1732 51.4019 23.127 50.9602 22.29 50.1232C21.4531 49.2863 21.0113 48.2401 20.9648 46.9847V29.1297Z" fill="#486EC4"/>
</svg>
