<svg width="66" height="66" viewBox="0 0 66 66" fill="none" xmlns="http://www.w3.org/2000/svg">
<rect x="0.5" y="1.03877" width="64.3426" height="64.3426" rx="32.1713" stroke="#A9A9A9"/>
<g clip-path="url(#clip0_260_1910)">
<path d="M50.0923 34.5207C50.1479 35.8498 49.6741 37.1467 48.7747 38.1269C47.8753 39.1071 46.6239 39.6905 45.2949 39.7491C45.2172 39.7527 45.1396 39.7545 45.0622 39.7545C44.709 39.7543 44.357 39.7161 44.012 39.6406C42.9885 41.2208 41.6465 42.57 40.0717 43.6019C38.497 44.6339 36.7242 45.3257 34.8667 45.6333C34.647 46.2787 34.2087 46.8271 33.6276 47.1836C33.0464 47.5402 32.359 47.6825 31.6841 47.5859C31.0091 47.4894 30.3892 47.1601 29.9313 46.6549C29.4734 46.1497 29.2064 45.5005 29.1765 44.8193C29.1466 44.1382 29.3555 43.468 29.7673 42.9246C30.1791 42.3812 30.7678 41.9988 31.4316 41.8434C32.0955 41.688 32.7928 41.7694 33.4029 42.0736C34.0131 42.3778 34.4978 42.8856 34.7733 43.5092C37.3884 43.0256 39.7508 41.6396 41.4488 39.5929C43.1469 37.5462 44.0729 34.9686 44.0655 32.3092C44.0655 26.0264 38.9541 20.9151 32.6713 20.9151C26.3886 20.9151 21.2772 26.0264 21.2772 32.3092C21.2769 34.2519 21.7734 36.1625 22.7195 37.8593C22.7516 37.9153 22.7757 37.9755 22.791 38.0381C22.8824 38.2921 22.8726 38.5716 22.7637 38.8186C22.6548 39.0656 22.4551 39.2613 22.2059 39.3651C21.5958 39.6219 20.9405 39.7541 20.2785 39.754C20.2006 39.754 20.1226 39.7522 20.0443 39.7486C18.7159 39.6892 17.4652 39.1055 16.5666 38.1254C15.6679 37.1453 15.1946 35.8488 15.2504 34.5202C15.2728 33.9904 15.2603 33.5177 15.248 33.0606C15.2366 32.6302 15.2248 32.1851 15.2443 31.7207C15.3026 30.4235 15.8607 29.1991 16.8015 28.3041C17.7423 27.4091 18.993 26.9128 20.2915 26.9193C22.3767 22.1484 27.1406 18.8057 32.6713 18.8057C38.2021 18.8057 42.9661 22.1484 45.0513 26.9193C46.3499 26.9119 47.601 27.4078 48.5419 28.3028C49.4829 29.1978 50.0407 30.4225 50.0983 31.7199C50.1179 32.185 50.1061 32.63 50.0946 33.0604C50.0825 33.5176 50.0699 33.9905 50.0923 34.5207ZM41.517 32.3092C41.5165 33.6644 41.2047 35.0013 40.6058 36.2169C40.0068 37.4326 39.1367 38.4944 38.0624 39.3205C36.9882 40.1466 35.7386 40.715 34.4099 40.9818C33.0813 41.2486 31.7091 41.2066 30.3993 40.8592L26.8189 42.9269C26.6382 43.0312 26.4307 43.0796 26.2225 43.066C26.0143 43.0524 25.8149 42.9773 25.6494 42.8503C25.4839 42.7233 25.3598 42.5501 25.2927 42.3525C25.2257 42.155 25.2187 41.942 25.2727 41.7405L26.1877 38.327C24.6724 36.689 23.8292 34.5406 23.826 32.3092C23.826 27.4304 27.7938 23.4615 32.6713 23.4615C37.5488 23.4615 41.517 27.4304 41.517 32.3092ZM30.2122 32.3092C30.2122 32.0295 30.101 31.7612 29.9032 31.5634C29.7055 31.3656 29.4372 31.2545 29.1575 31.2545H29.1557C28.9472 31.2549 28.7435 31.3171 28.5703 31.4332C28.3971 31.5494 28.2622 31.7142 28.1827 31.907C28.1032 32.0997 28.0826 32.3117 28.1235 32.5162C28.1644 32.7206 28.265 32.9084 28.4126 33.0557C28.5602 33.203 28.7481 33.3032 28.9526 33.3438C29.1572 33.3843 29.3691 33.3633 29.5617 33.2834C29.7543 33.2035 29.9189 33.0684 30.0348 32.895C30.1506 32.7216 30.2124 32.5177 30.2124 32.3092H30.2122ZM33.7262 32.3092C33.7261 32.2747 33.7243 32.2402 33.7206 32.2059C33.7173 32.1714 33.7121 32.1371 33.7052 32.1032C33.6989 32.0694 33.6904 32.0361 33.6798 32.0034C33.6701 31.9703 33.6581 31.938 33.6454 31.9056C33.6328 31.8733 33.6173 31.843 33.6011 31.8128C33.5851 31.7824 33.5675 31.7528 33.5484 31.7242C33.5292 31.6953 33.5085 31.6674 33.4865 31.6405C33.4648 31.6137 33.4416 31.5881 33.4169 31.5639C33.393 31.5393 33.367 31.5161 33.3403 31.4936C33.3135 31.4725 33.2854 31.4514 33.2565 31.4324C33.2279 31.4133 33.1984 31.3957 33.168 31.3797C33.1377 31.3635 33.1061 31.3487 33.0744 31.3354C33.0428 31.3221 33.0104 31.3106 32.9775 31.3009C32.9117 31.2798 32.8438 31.2661 32.775 31.2601C32.6717 31.2502 32.5675 31.2552 32.4656 31.2749C32.4317 31.2818 32.3981 31.2905 32.3651 31.3009C32.3322 31.3106 32.2998 31.3221 32.2681 31.3354C32.2365 31.3487 32.2048 31.3635 32.1746 31.3797C32.1443 31.3959 32.1148 31.4134 32.0859 31.4324C32.0282 31.4707 31.9745 31.5148 31.9257 31.5639C31.901 31.5881 31.8777 31.6137 31.856 31.6405C31.8342 31.6674 31.8138 31.6953 31.7949 31.7242C31.7756 31.7528 31.7577 31.7824 31.7414 31.8128C31.7252 31.8429 31.7106 31.8739 31.6978 31.9056C31.6844 31.9376 31.6727 31.9702 31.6626 32.0034C31.6529 32.0357 31.6444 32.0694 31.6374 32.1032C31.6304 32.1371 31.6253 32.1714 31.6218 32.2059C31.6184 32.2403 31.6169 32.2748 31.6169 32.3092C31.6169 32.3437 31.6184 32.3788 31.6218 32.4133C31.6253 32.4475 31.6305 32.4815 31.6374 32.5152C31.6444 32.549 31.6529 32.5827 31.6626 32.6158C31.6727 32.6487 31.6844 32.6811 31.6978 32.7128C31.7106 32.7447 31.7252 32.776 31.7414 32.8063C31.7576 32.8366 31.7759 32.8661 31.7949 32.8949C31.8138 32.9236 31.8342 32.9513 31.856 32.9779C31.8779 33.0048 31.9012 33.0306 31.9257 33.0552C31.9503 33.0791 31.9756 33.103 32.003 33.1248C32.0295 33.1468 32.0571 33.1672 32.0859 33.186C32.1148 33.205 32.1443 33.2233 32.1746 33.2394C32.2356 33.2713 32.2994 33.2976 32.3651 33.3182C32.3981 33.328 32.4318 33.3365 32.4656 33.3435C32.5334 33.3574 32.6024 33.3642 32.6716 33.3639C32.951 33.3632 33.2188 33.2522 33.4169 33.0552C33.4655 33.0059 33.5095 32.9522 33.5484 32.8949C33.5674 32.8661 33.585 32.8366 33.6011 32.8063C33.6173 32.7761 33.6321 32.7444 33.6454 32.7128C33.6588 32.6812 33.6701 32.6481 33.6798 32.6158C33.6903 32.5828 33.6988 32.5492 33.7052 32.5152C33.7121 32.4815 33.7172 32.4475 33.7206 32.4133C33.7242 32.3787 33.726 32.3439 33.726 32.3091L33.7262 32.3092ZM37.2419 32.3092C37.2419 32.0295 37.1307 31.7612 36.9329 31.5634C36.7352 31.3656 36.4669 31.2545 36.1872 31.2545H36.1851C35.9766 31.2549 35.7729 31.3171 35.5997 31.4333C35.4266 31.5494 35.2917 31.7143 35.2122 31.907C35.1327 32.0998 35.1121 32.3118 35.153 32.5162C35.1939 32.7207 35.2945 32.9084 35.4421 33.0557C35.5897 33.203 35.7776 33.3032 35.9822 33.3438C36.1867 33.3843 36.3987 33.3633 36.5913 33.2834C36.7839 33.2035 36.9485 33.0683 37.0643 32.8949C37.1801 32.7216 37.2419 32.5177 37.2419 32.3092Z" fill="#30336E"/>
</g>
<defs>
<clipPath id="clip0_260_1910">
<rect width="36" height="36" fill="white" transform="translate(14.6714 15.2101)"/>
</clipPath>
</defs>
</svg>
