<svg width="20" height="21" viewBox="0 0 20 21" fill="none" xmlns="http://www.w3.org/2000/svg">
<path d="M8.11496 3.10667C7.58177 3.63987 7.0534 3.88741 6.29324 3.88741C5.62951 3.88741 4.68519 3.75869 4.1665 4.28174C3.65192 4.80065 3.78007 5.74108 3.78007 6.40058C3.78007 7.16076 3.5325 7.68913 2.9993 8.22234C2.11077 9.11086 1.66651 9.55512 1.6665 10.1072C1.66652 10.6592 2.11078 11.1035 2.99932 11.9921C3.59663 12.5894 3.78007 12.975 3.78007 13.8138C3.78007 14.4775 3.65134 15.4218 4.17441 15.9405C4.69332 16.4551 5.63374 16.3269 6.29322 16.3269C7.10275 16.3269 7.49257 16.4853 8.07031 17.0631C8.56227 17.555 9.22175 18.4405 9.99986 18.4405C10.7779 18.4405 11.4374 17.555 11.9294 17.0631C12.5071 16.4853 12.8969 16.3269 13.7064 16.3269C14.3659 16.3269 15.3063 16.4551 15.8253 15.9405C16.3483 15.4218 16.2196 14.4775 16.2196 13.8138C16.2196 12.9751 16.403 12.5893 17.0004 11.9921C17.8889 11.1035 18.3332 10.6592 18.3332 10.1072C18.3332 9.55512 17.8889 9.11086 17.0004 8.22234C16.4031 7.62501 16.2196 7.23935 16.2196 6.40058C16.2196 5.73686 16.3483 4.79256 15.8253 4.27386C15.3064 3.75926 14.3659 3.88741 13.7064 3.88741C12.9461 3.88741 12.4178 3.63975 11.8847 3.10667C10.9962 2.21813 10.5519 1.77386 9.99984 1.77386C9.44777 1.77386 9.0035 2.21813 8.11496 3.10667Z" fill="#486EC4"/>
<path d="M15.8253 15.9405H15.8332M15.8253 15.9405C15.3063 16.4551 14.3659 16.3269 13.7064 16.3269C12.8969 16.3269 12.5071 16.4853 11.9294 17.0631C11.4374 17.555 10.7779 18.4405 9.99986 18.4405C9.22175 18.4405 8.56227 17.555 8.07031 17.0631C7.49257 16.4853 7.10275 16.3269 6.29322 16.3269C5.63374 16.3269 4.69332 16.4551 4.17441 15.9405C3.65134 15.4218 3.78007 14.4775 3.78007 13.8138C3.78007 12.975 3.59663 12.5894 2.99932 11.9921C2.11078 11.1035 1.66652 10.6592 1.6665 10.1072C1.66651 9.55512 2.11077 9.11086 2.9993 8.22234C3.5325 7.68913 3.78007 7.16076 3.78007 6.40058C3.78007 5.74108 3.65192 4.80065 4.1665 4.28174C4.68519 3.75869 5.62951 3.88741 6.29324 3.88741C7.0534 3.88741 7.58177 3.63987 8.11496 3.10667C9.0035 2.21813 9.44777 1.77386 9.99984 1.77386C10.5519 1.77386 10.9962 2.21813 11.8847 3.10667C12.4178 3.63975 12.9461 3.88741 13.7064 3.88741C14.3659 3.88741 15.3064 3.75926 15.8253 4.27386C16.3483 4.79256 16.2196 5.73686 16.2196 6.40058C16.2196 7.23935 16.4031 7.62501 17.0004 8.22234C17.8889 9.11086 18.3332 9.55512 18.3332 10.1072C18.3332 10.6592 17.8889 11.1035 17.0004 11.9921C16.403 12.5893 16.2196 12.9751 16.2196 13.8138C16.2196 14.4775 16.3483 15.4218 15.8253 15.9405Z" stroke="#486EC4" stroke-width="1.25"/>
<path d="M7.5 10.8512C7.5 10.8512 8.5 11.3944 9 12.1905C9 12.1905 10.5 9.06553 12.5 8.02386" stroke="white" stroke-width="1.25" stroke-linecap="round" stroke-linejoin="round"/>
</svg>
