<svg width="66" height="66" viewBox="0 0 66 66" fill="none" xmlns="http://www.w3.org/2000/svg">
<rect x="0.5" y="0.535309" width="64.3426" height="64.3426" rx="32.1713" stroke="#A9A9A9"/>
<g clip-path="url(#clip0_260_1905)">
<path fill-rule="evenodd" clip-rule="evenodd" d="M50.1089 48.6402H47.6025V28.9141C47.6025 28.7649 47.5433 28.6218 47.4378 28.5163C47.3323 28.4108 47.1892 28.3516 47.04 28.3516H41.8127C41.6635 28.3516 41.5205 28.4108 41.415 28.5163C41.3095 28.6218 41.2502 28.7649 41.2502 28.9141V48.6402H39.7659V33.2839C39.7659 33.1347 39.7067 32.9916 39.6012 32.8861C39.4957 32.7806 39.3526 32.7214 39.2034 32.7214H33.976C33.8268 32.7214 33.6837 32.7806 33.5782 32.8861C33.4727 32.9916 33.4135 33.1347 33.4135 33.2839V48.6401H31.9292V37.6529C31.9292 37.5037 31.8699 37.3607 31.7644 37.2552C31.6589 37.1497 31.5159 37.0904 31.3667 37.0904H26.1394C25.9902 37.0904 25.8471 37.1497 25.7416 37.2552C25.6361 37.3607 25.5769 37.5037 25.5769 37.6529V48.6402H24.0926V42.0224C24.0926 41.8732 24.0333 41.7302 23.9278 41.6247C23.8223 41.5192 23.6792 41.4599 23.5301 41.4599H18.3028C18.1536 41.4599 18.0106 41.5192 17.9051 41.6247C17.7996 41.7302 17.7403 41.8732 17.7403 42.0224V48.6402H15.2339C15.0847 48.6402 14.9416 48.6995 14.8361 48.805C14.7306 48.9105 14.6714 49.0536 14.6714 49.2027C14.6714 49.3519 14.7306 49.495 14.8361 49.6005C14.9416 49.706 15.0847 49.7652 15.2339 49.7652H50.1089C50.2581 49.7652 50.4011 49.706 50.5066 49.6005C50.6121 49.495 50.6714 49.3519 50.6714 49.2027C50.6714 49.0536 50.6121 48.9105 50.5066 48.805C50.4011 48.6995 50.2581 48.6402 50.1089 48.6402ZM20.0541 36.1117C19.9125 36.1113 19.7763 36.0575 19.6726 35.9611C19.5689 35.8647 19.5054 35.7327 19.4948 35.5915C19.4841 35.4503 19.5271 35.3103 19.6151 35.1994C19.7032 35.0885 19.8298 35.0149 19.9697 34.9933C27.5337 33.8411 34.4918 28.7184 39.1253 20.9105L36.4394 18.8757C36.3556 18.8123 36.2913 18.7267 36.2537 18.6286C36.2161 18.5305 36.2068 18.4238 36.2267 18.3207C36.2466 18.2176 36.295 18.1221 36.3664 18.045C36.4377 17.9679 36.5293 17.9124 36.6306 17.8847L44.7547 15.6674C44.8378 15.6447 44.925 15.6414 45.0095 15.6578C45.0941 15.6741 45.1738 15.7096 45.2425 15.7617C45.3111 15.8137 45.3669 15.8808 45.4056 15.9578C45.4442 16.0347 45.4646 16.1196 45.4653 16.2057L45.5305 24.6266C45.5313 24.7316 45.5027 24.8348 45.4479 24.9244C45.393 25.014 45.3142 25.0865 45.2203 25.1336C45.1264 25.1808 45.0212 25.2007 44.9166 25.191C44.812 25.1814 44.7121 25.1427 44.6284 25.0793L42.6428 23.5752C39.9729 27.0332 36.6722 29.9544 32.9153 32.1844C28.7543 34.6414 24.3121 35.9996 20.0692 36.1117H20.0541Z" fill="#30336E"/>
</g>
<defs>
<clipPath id="clip0_260_1905">
<rect width="36" height="36" fill="white" transform="translate(14.6714 14.7066)"/>
</clipPath>
</defs>
</svg>
