<svg width="28" height="28" viewBox="0 0 28 28" fill="none" xmlns="http://www.w3.org/2000/svg">
<path d="M26.8333 12.79H1.16667C0.522334 12.79 0 13.3124 0 13.9567C0 14.601 0.522334 15.1234 1.16667 15.1234H26.8333C27.4777 15.1234 28 14.601 28 13.9567C28 13.3124 27.4777 12.79 26.8333 12.79Z" fill="white"/>
<path d="M26.8333 4.66699H1.16667C0.522334 4.66699 0 5.18933 0 5.83366C0 6.47799 0.522334 7.00033 1.16667 7.00033H26.8333C27.4777 7.00033 28 6.47799 28 5.83366C28 5.18933 27.4777 4.66699 26.8333 4.66699Z" fill="white"/>
<path d="M26.8333 20.9141H1.16667C0.522334 20.9141 0 21.4364 0 22.0807C0 22.7251 0.522334 23.2474 1.16667 23.2474H26.8333C27.4777 23.2474 28 22.7251 28 22.0807C28 21.4364 27.4777 20.9141 26.8333 20.9141Z" fill="white"/>
</svg>
