<svg width="22" height="25" viewBox="0 0 22 25" fill="none" xmlns="http://www.w3.org/2000/svg">
<path d="M0.187744 10.1874C0.219177 8.58434 0.769261 7.24842 1.83799 6.17969C2.90673 5.11095 4.24264 4.56087 5.84574 4.52944H6.22294C6.66301 4.52944 7.02449 4.67089 7.30739 4.95379C7.59029 5.23669 7.73174 5.59817 7.73174 6.03824C7.73174 6.4783 7.59029 6.83979 7.30739 7.12269C7.02449 7.40559 6.66301 7.54704 6.22294 7.54704H5.84574C5.09134 7.57847 4.46268 7.82994 3.95974 8.30144C3.48824 8.80437 3.23678 9.43304 3.20534 10.1874V10.5646H6.22294C7.07164 10.5961 7.77889 10.8947 8.34469 11.4605C8.91049 12.0263 9.20911 12.7335 9.24054 13.5822V16.5998C9.20911 17.4485 8.91049 18.1558 8.34469 18.7216C7.77889 19.2874 7.07164 19.586 6.22294 19.6174H3.20534C2.35664 19.586 1.64939 19.2874 1.08359 18.7216C0.517794 18.1558 0.219177 17.4485 0.187744 16.5998V15.091V13.5822V10.1874ZM12.2581 10.1874C12.2896 8.58434 12.8397 7.24842 13.9084 6.17969C14.9771 5.11095 16.313 4.56087 17.9161 4.52944H18.2933C18.7334 4.52944 19.0949 4.67089 19.3778 4.95379C19.6607 5.23669 19.8021 5.59817 19.8021 6.03824C19.8021 6.4783 19.6607 6.83979 19.3778 7.12269C19.0949 7.40559 18.7334 7.54704 18.2933 7.54704H17.9161C17.1617 7.57847 16.5331 7.82994 16.0301 8.30144C15.5586 8.80437 15.3072 9.43304 15.2757 10.1874V10.5646H18.2933C19.142 10.5961 19.8493 10.8947 20.4151 11.4605C20.9809 12.0263 21.2795 12.7335 21.3109 13.5822V16.5998C21.2795 17.4485 20.9809 18.1558 20.4151 18.7216C19.8493 19.2874 19.142 19.586 18.2933 19.6174H15.2757C14.427 19.586 13.7198 19.2874 13.154 18.7216C12.5882 18.1558 12.2896 17.4485 12.2581 16.5998V15.091V13.5822V10.1874Z" fill="#7F9AD6"/>
</svg>
