<svg width="33" height="33" viewBox="0 0 33 33" fill="none" xmlns="http://www.w3.org/2000/svg">
<g clip-path="url(#clip0_414_132)">
<path d="M7.39511 30.8723C7.75711 30.5103 8.04427 30.0806 8.24019 29.6077C8.43612 29.1347 8.53698 28.6279 8.53701 28.1159C8.53704 27.604 8.43624 27.0971 8.24036 26.6242C8.04449 26.1512 7.75738 25.7215 7.39542 25.3595C7.03347 24.9975 6.60375 24.7103 6.13082 24.5144C5.65789 24.3185 5.15099 24.2176 4.63908 24.2176C4.12717 24.2175 3.62026 24.3183 3.14731 24.5142C2.67435 24.7101 2.24461 24.9972 1.88261 25.3592C0.798235 26.4429 0.369485 28.1235 0.23511 29.6454C0.158135 30.5064 0.163158 31.3728 0.25011 32.2329C0.273235 32.4485 0.480735 32.4973 0.51636 32.5035H0.526985C0.61386 32.5035 1.85949 32.5317 2.24324 31.316C2.31216 31.0894 2.41341 30.8738 2.54386 30.676C2.59794 30.598 2.67676 30.5406 2.76757 30.513C2.85837 30.4854 2.95582 30.4893 3.04414 30.524C3.13246 30.5588 3.20647 30.6223 3.25418 30.7043C3.30188 30.7864 3.32049 30.8821 3.30699 30.976C3.24465 31.4378 3.34047 31.907 3.57886 32.3073C3.60491 32.3519 3.64373 32.3876 3.6903 32.4099C3.73687 32.4322 3.78906 32.44 3.84011 32.4323C5.14511 32.2323 6.48136 31.786 7.39511 30.8723ZM32.1514 3.42916C32.057 1.79853 30.8889 0.630408 29.2582 0.536033C23.7195 0.206033 17.547 2.55478 12.7332 7.36853L11.4495 8.65228C10.9866 9.11478 10.547 9.58937 10.1307 10.076H6.08324C5.22386 10.1092 4.46386 10.6048 4.03386 11.3323L1.65449 16.0917C1.59094 16.2625 1.5465 16.4398 1.52199 16.6204C1.52573 16.9266 1.64924 17.2192 1.86607 17.4354C2.08289 17.6516 2.37578 17.7744 2.68199 17.7773H5.68699C5.29699 19.0898 5.55699 20.3817 6.39136 21.2148L11.472 26.2954C12.3057 27.1298 13.597 27.3898 14.9095 26.9998V30.0079C14.9132 30.3136 15.0363 30.6057 15.2524 30.8218C15.4686 31.038 15.7607 31.1611 16.0664 31.1648C16.247 31.1403 16.4243 31.0958 16.5951 31.0323L21.3545 28.6529C22.082 28.2229 22.5776 27.4654 22.6107 26.6035V22.5567C23.0962 22.14 23.5707 21.7004 24.0345 21.2379L25.3182 19.9542C30.1326 15.1404 32.4814 8.96791 32.1514 3.42916ZM25.4076 13.0735C24.8347 13.6465 24.1047 14.0367 23.3099 14.1948C22.5152 14.3529 21.6915 14.2718 20.9429 13.9617C20.1942 13.6516 19.5544 13.1265 19.1042 12.4528C18.654 11.779 18.4138 10.9869 18.4138 10.1767C18.4138 9.36637 18.654 8.57427 19.1042 7.90054C19.5544 7.22681 20.1942 6.7017 20.9429 6.39162C21.6915 6.08155 22.5152 6.00042 23.3099 6.15851C24.1047 6.31661 24.8347 6.70681 25.4076 7.27978C26.1759 8.04809 26.6075 9.09013 26.6075 10.1767C26.6075 11.2632 26.1759 12.3052 25.4076 13.0735ZM5.12699 6.89416C4.90368 6.67077 4.77823 6.36784 4.77823 6.05197C4.77823 5.73611 4.90368 5.43317 5.12699 5.20978L8.21199 2.12478C8.43576 1.90101 8.73927 1.77529 9.05574 1.77529C9.3722 1.77529 9.67571 1.90101 9.89949 2.12478C10.1233 2.34856 10.249 2.65207 10.249 2.96853C10.249 3.285 10.1233 3.58851 9.89949 3.81228L6.81449 6.89728C6.70361 7.00812 6.57195 7.09598 6.42705 7.15583C6.28215 7.21567 6.12686 7.24633 5.97009 7.24604C5.81331 7.24575 5.65814 7.21452 5.51346 7.15414C5.36878 7.09375 5.23745 7.0054 5.12699 6.89416ZM0.65511 6.18728C0.432565 5.964 0.307602 5.6616 0.307602 5.34635C0.307602 5.03109 0.432565 4.7287 0.65511 4.50541L2.23699 2.92103C2.46177 2.70467 2.76248 2.58512 3.07446 2.5881C3.38645 2.59108 3.68482 2.71634 3.90544 2.93696C4.12605 3.15758 4.25131 3.45594 4.25429 3.76793C4.25727 4.07992 4.13773 4.38062 3.92136 4.60541L2.33949 6.18728C2.22913 6.2983 2.0979 6.38641 1.95337 6.44653C1.80883 6.50665 1.65384 6.5376 1.4973 6.5376C1.34076 6.5376 1.18576 6.50665 1.04123 6.44653C0.896693 6.38641 0.765471 6.2983 0.65511 6.18728ZM25.6926 27.4592C25.5816 27.3488 25.4935 27.2176 25.4334 27.073C25.3732 26.9285 25.3423 26.7735 25.3423 26.617C25.3423 26.4604 25.3732 26.3054 25.4334 26.1609C25.4935 26.0164 25.5816 25.8851 25.6926 25.7748L28.777 22.6929C28.8876 22.5821 29.0189 22.4942 29.1635 22.4341C29.3081 22.3741 29.4631 22.3431 29.6196 22.343C29.7762 22.3428 29.9312 22.3735 30.0759 22.4333C30.2206 22.4931 30.3521 22.5807 30.4629 22.6913C30.5737 22.8019 30.6617 22.9333 30.7217 23.0779C30.7817 23.2224 30.8127 23.3774 30.8129 23.534C30.813 23.6905 30.7823 23.8456 30.7226 23.9903C30.6628 24.135 30.5751 24.2665 30.4645 24.3773L27.3801 27.4623C27.2692 27.5731 27.1376 27.661 26.9927 27.7208C26.8478 27.7807 26.6925 27.8113 26.5357 27.811C26.3789 27.8108 26.2238 27.7795 26.0791 27.7191C25.9344 27.6588 25.8031 27.5704 25.6926 27.4592ZM26.3989 31.931C26.1756 31.7076 26.0501 31.4047 26.0501 31.0888C26.0501 30.773 26.1756 30.47 26.3989 30.2467L27.9807 28.6648C28.0913 28.554 28.2227 28.466 28.3673 28.406C28.5118 28.346 28.6668 28.315 28.8234 28.3148C28.9799 28.3147 29.135 28.3454 29.2797 28.4052C29.4244 28.4649 29.5559 28.5526 29.6667 28.6632C29.7775 28.7738 29.8654 28.9052 29.9255 29.0497C29.9855 29.1943 30.0165 29.3493 30.0166 29.5059C30.0168 29.6624 29.9861 29.8175 29.9263 29.9622C29.8665 30.1069 29.7788 30.2384 29.6682 30.3492L28.0864 31.931C27.9757 32.0421 27.8442 32.1303 27.6995 32.1905C27.5547 32.2506 27.3994 32.2816 27.2426 32.2816C27.0858 32.2816 26.9306 32.2506 26.7858 32.1905C26.641 32.1303 26.5095 32.0421 26.3989 31.931Z" fill="#30336E"/>
</g>
<defs>
<clipPath id="clip0_414_132">
<rect width="32" height="32" fill="white" transform="translate(0.181885 0.505432)"/>
</clipPath>
</defs>
</svg>
