<svg width="92" height="17" viewBox="0 0 92 17" fill="none" xmlns="http://www.w3.org/2000/svg">
<path d="M9.90635 1.15896C9.71885 0.804793 9.41676 0.617293 9.0001 0.59646C8.60426 0.617293 8.30218 0.804793 8.09385 1.15896L6.09385 5.28396L1.59385 5.97146C1.19801 6.03396 0.937598 6.25271 0.812598 6.62771C0.687598 7.02354 0.770931 7.36729 1.0626 7.65896L4.3126 10.8777L3.53135 15.4402C3.48968 15.836 3.6251 16.159 3.9376 16.409C4.27093 16.6381 4.6251 16.659 5.0001 16.4715L9.0001 14.3465L13.0313 16.4715C13.3855 16.659 13.7293 16.6381 14.0626 16.409C14.3959 16.159 14.5313 15.836 14.4688 15.4402L13.7188 10.8777L16.9688 7.65896C17.2397 7.36729 17.323 7.02354 17.2188 6.62771C17.073 6.25271 16.8022 6.03396 16.4063 5.97146L11.9063 5.28396L9.90635 1.15896Z" fill="#FF9D10"/>
<path d="M27.9063 1.15896C27.7188 0.804793 27.4168 0.617293 27.0001 0.59646C26.6043 0.617293 26.3022 0.804793 26.0938 1.15896L24.0938 5.28396L19.5938 5.97146C19.198 6.03396 18.9376 6.25271 18.8126 6.62771C18.6876 7.02354 18.7709 7.36729 19.0626 7.65896L22.3126 10.8777L21.5313 15.4402C21.4897 15.836 21.6251 16.159 21.9376 16.409C22.2709 16.6381 22.6251 16.659 23.0001 16.4715L27.0001 14.3465L31.0313 16.4715C31.3855 16.659 31.7293 16.6381 32.0626 16.409C32.3959 16.159 32.5313 15.836 32.4688 15.4402L31.7188 10.8777L34.9688 7.65896C35.2397 7.36729 35.323 7.02354 35.2188 6.62771C35.073 6.25271 34.8022 6.03396 34.4063 5.97146L29.9063 5.28396L27.9063 1.15896Z" fill="#FF9D10"/>
<path d="M45.9063 1.15896C45.7188 0.804793 45.4168 0.617293 45.0001 0.59646C44.6043 0.617293 44.3022 0.804793 44.0938 1.15896L42.0938 5.28396L37.5938 5.97146C37.198 6.03396 36.9376 6.25271 36.8126 6.62771C36.6876 7.02354 36.7709 7.36729 37.0626 7.65896L40.3126 10.8777L39.5313 15.4402C39.4897 15.836 39.6251 16.159 39.9376 16.409C40.2709 16.6381 40.6251 16.659 41.0001 16.4715L45.0001 14.3465L49.0313 16.4715C49.3855 16.659 49.7293 16.6381 50.0626 16.409C50.3959 16.159 50.5313 15.836 50.4688 15.4402L49.7188 10.8777L52.9688 7.65896C53.2397 7.36729 53.323 7.02354 53.2188 6.62771C53.073 6.25271 52.8022 6.03396 52.4063 5.97146L47.9063 5.28396L45.9063 1.15896Z" fill="#FF9D10"/>
<path d="M63.9063 1.15896C63.7188 0.804793 63.4168 0.617293 63.0001 0.59646C62.6043 0.617293 62.3022 0.804793 62.0938 1.15896L60.0938 5.28396L55.5938 5.97146C55.198 6.03396 54.9376 6.25271 54.8126 6.62771C54.6876 7.02354 54.7709 7.36729 55.0626 7.65896L58.3126 10.8777L57.5313 15.4402C57.4897 15.836 57.6251 16.159 57.9376 16.409C58.2709 16.6381 58.6251 16.659 59.0001 16.4715L63.0001 14.3465L67.0313 16.4715C67.3855 16.659 67.7293 16.6381 68.0626 16.409C68.3959 16.159 68.5313 15.836 68.4688 15.4402L67.7188 10.8777L70.9688 7.65896C71.2397 7.36729 71.323 7.02354 71.2188 6.62771C71.073 6.25271 70.8022 6.03396 70.4063 5.97146L65.9063 5.28396L63.9063 1.15896Z" fill="#FF9D10"/>
<path d="M82.0001 12.3465L82.8438 12.784L85.5001 14.2215L84.9688 11.159L84.8126 10.284L85.4688 9.62771L87.6563 7.47146L84.6563 7.03396L83.7501 6.87771L83.3438 6.06521L82.0001 3.31521V12.3465ZM87.4688 15.4402C87.5313 15.836 87.3959 16.159 87.0626 16.409C86.7293 16.6381 86.3751 16.659 86.0001 16.4715L82.0001 14.3465L78.0001 16.4715C77.6251 16.659 77.2709 16.6381 76.9376 16.409C76.6251 16.159 76.4897 15.836 76.5313 15.4402L77.3126 10.8777L74.0626 7.65896C73.7709 7.36729 73.6876 7.02354 73.8126 6.62771C73.9376 6.25271 74.198 6.03396 74.5938 5.97146L79.0938 5.28396L81.0938 1.15896C81.3022 0.804793 81.6043 0.617293 82.0001 0.59646C82.4168 0.617293 82.7188 0.804793 82.9063 1.15896L84.9063 5.28396L89.4063 5.97146C89.8022 6.03396 90.073 6.25271 90.2188 6.62771C90.323 7.02354 90.2397 7.36729 89.9688 7.65896L86.7188 10.8777L87.4688 15.4402Z" fill="#FF9D10"/>
</svg>
